<svg width="530" height="799" viewBox="0 0 530 799" fill="none" xmlns="http://www.w3.org/2000/svg">
<path d="M475.027 766.011C475.027 769.458 380.995 772.252 265 772.252C149.005 772.252 54.9731 769.458 54.9731 766.011C54.9731 762.564 149.005 759.77 265 759.77C380.995 759.77 475.027 762.564 475.027 766.011Z" fill="#E2E2E2"/>
<path d="M475.027 766.011C475.027 769.458 380.995 772.252 265 772.252C149.005 772.252 54.9731 769.458 54.9731 766.011V792.759C54.9731 796.206 149.005 799 265 799C380.995 799 475.027 796.206 475.027 792.759V766.011Z" fill="url(#paint0_linear_3423_14937)"/>
<g filter="url(#filter0_f_3423_14937)">
<path d="M475.027 766.075C475.027 769.557 380.995 772.38 265 772.38C149.005 772.38 54.9731 769.557 54.9731 766.075C54.9731 762.593 149.005 759.77 265 759.77C380.995 759.77 475.027 762.593 475.027 766.075Z" fill="#E2E2E2"/>
</g>
<g filter="url(#filter1_f_3423_14937)">
<path d="M21.0721 88.1436C19.2257 51.14 45.5284 20 78.6303 20H451.37C484.472 20 510.775 51.1401 508.928 88.1437L475.136 765.374H54.8641L21.0721 88.1436Z" fill="url(#paint1_linear_3423_14937)"/>
</g>
<defs>
<filter id="filter0_f_3423_14937" x="50.0731" y="754.87" width="429.854" height="22.4096" filterUnits="userSpaceOnUse" color-interpolation-filters="sRGB">
<feFlood flood-opacity="0" result="BackgroundImageFix"/>
<feBlend mode="normal" in="SourceGraphic" in2="BackgroundImageFix" result="shape"/>
<feGaussianBlur stdDeviation="2.45" result="effect1_foregroundBlur_3423_14937"/>
</filter>
<filter id="filter1_f_3423_14937" x="0.980469" y="0" width="528.04" height="785.374" filterUnits="userSpaceOnUse" color-interpolation-filters="sRGB">
<feFlood flood-opacity="0" result="BackgroundImageFix"/>
<feBlend mode="normal" in="SourceGraphic" in2="BackgroundImageFix" result="shape"/>
<feGaussianBlur stdDeviation="10" result="effect1_foregroundBlur_3423_14937"/>
</filter>
<linearGradient id="paint0_linear_3423_14937" x1="475.027" y1="779.385" x2="54.9731" y2="779.385" gradientUnits="userSpaceOnUse">
<stop offset="0.5" stop-color="#595959"/>
<stop offset="1" stop-color="#595959" stop-opacity="0.2"/>
</linearGradient>
<linearGradient id="paint1_linear_3423_14937" x1="265" y1="20" x2="265" y2="765.374" gradientUnits="userSpaceOnUse">
<stop stop-color="white" stop-opacity="0"/>
<stop offset="1" stop-color="white" stop-opacity="0.5"/>
</linearGradient>
</defs>
</svg>
