<svg width="102" height="109" viewBox="0 0 102 109" fill="none" xmlns="http://www.w3.org/2000/svg">
<path d="M44.0783 58.6652H39.9916L37.4745 41.0563L36.4531 49.3536V49.389H37.4745V53.3753H35.7956L34.9561 58.6652H30.9063L31.7457 53.3753H30.8338V49.389H32.4021L34.993 33.3021H39.9548L44.0783 58.6652Z" fill="#E2E2E2"/>
<path d="M54.6721 33.3021C55.3773 33.423 55.9604 33.7497 56.4224 34.281C56.8845 34.8123 57.1156 35.4398 57.1156 36.1643V40.0054H53.1026V37.2518H49.5272V54.7155H53.1026V51.9253H57.1156V55.803C57.1155 56.5275 56.8845 57.155 56.4224 57.6863C55.9604 58.2176 55.3773 58.5443 54.6721 58.6652H47.9577L47.6998 58.6103C47.109 58.4597 46.6108 58.1514 46.2063 57.6863C45.7445 57.1551 45.5132 56.5273 45.5131 55.803V36.1643C45.5131 35.44 45.7445 34.8122 46.2063 34.281C46.6684 33.7497 47.2525 33.4229 47.9577 33.3021H54.6721Z" fill="#E2E2E2"/>
<path d="M63.4938 41.9985H67.0335V33.3021H71.0465V58.6652H67.0335V45.9836H63.4938V58.6652H59.4808V33.3021H63.4938V41.9985Z" fill="#E2E2E2"/>
<path d="M52.4394 16.1746C52.4508 16.227 52.4986 16.262 52.5499 16.2569L59.9978 15.5159L60.0347 15.5194C60.1158 15.5415 60.1415 15.664 60.0589 15.7149L53.6162 19.684C53.5718 19.7115 53.5542 19.7696 53.5748 19.819L56.5514 26.9819C56.5945 27.0866 56.471 27.1798 56.389 27.1043L51 22.138L45.611 27.1043C45.529 27.1798 45.4055 27.0866 45.4486 26.9819L48.4252 19.819C48.4458 19.7696 48.4282 19.7115 48.3838 19.684L41.9411 15.7149C41.8585 15.664 41.8842 15.5415 41.9653 15.5194L42.0022 15.5159L49.4501 16.2569C49.5014 16.262 49.5492 16.227 49.5606 16.1746L51 9.42675L52.4394 16.1746Z" fill="#E2E2E2"/>
<path fill-rule="evenodd" clip-rule="evenodd" d="M83.4412 0.316406C84.7435 0.31659 85.7995 1.36503 85.7995 2.65832V16.2467L102 19.5514V48.385C102 52.2652 98.8325 55.4107 94.9252 55.4107H85.8007V56.2775C85.8007 60.2614 85.2219 62.3758 84.9324 62.935C82.9438 68.4942 77.7361 72.4616 71.6211 72.4616H63.9106V86.2878C63.9106 87.5812 64.9665 88.6297 66.2689 88.6297H80.4186C81.721 88.6297 82.7768 89.6782 82.7768 90.9716V105.974C82.7768 107.268 81.721 108.316 80.4186 108.316H21.5814C20.279 108.316 19.2232 107.268 19.2232 105.974V90.9716C19.2232 89.6782 20.279 88.6297 21.5814 88.6297H35.7311C37.0335 88.6297 38.0894 87.5812 38.0894 86.2878V72.4616H30.3789C24.2639 72.4616 19.0562 68.4942 17.0676 62.935C16.7781 62.3758 16.1993 60.2614 16.1993 56.2775V55.4107H7.07482C3.16751 55.4107 0 52.2652 0 48.385V19.5514L16.1993 16.2467L16.2005 2.65832C16.2005 1.36503 17.2565 0.31659 18.5587 0.316406H83.4412ZM23.9397 93.3135V103.633H78.0603V93.3135H23.9397ZM42.8059 88.6297H59.1941V72.4616H42.8059V88.6297ZM20.9262 57.9356C20.9265 63.2837 25.159 67.62 30.3789 67.62H71.6211C76.841 67.62 81.0735 63.2837 81.0738 57.9356V5.15803H20.9262V57.9356ZM4.71655 23.3707V48.385C4.71655 49.5977 5.64479 50.5946 6.83416 50.7143L7.07482 50.7269H16.1993V21.0288L4.71655 23.3707ZM85.8007 50.7269H94.9252L95.1658 50.7143C96.2761 50.6026 97.1582 49.7265 97.2708 48.624L97.2834 48.385V23.3707L85.8007 21.0288V50.7269Z" fill="#E2E2E2"/>
</svg>
