<svg width="102" height="108" viewBox="0 0 102 108" fill="none" xmlns="http://www.w3.org/2000/svg">
<g id="Vector">
<path d="M24.9416 10.6138L0.123463 21.2276L0.0298099 53.5345C-0.0638436 71.3172 0.0766367 86.1207 0.263944 86.4465C0.685385 87.0983 49.7598 108 50.8837 108C52.1948 108 100.754 87.0983 101.363 86.2603C102.112 85.2828 102.253 23.2759 101.503 21.8793C101.035 20.9948 52.2885 0 50.6964 0C50.1813 0.0465517 38.6151 4.79483 24.9416 10.6138ZM57.1585 6.98276C59.453 7.96034 60.5768 8.65862 60.2022 8.84483C59.8744 9.03103 50.0876 13.2207 38.4746 18.1552L17.3557 27.0931L12.6262 25.0914C10.0039 23.9741 7.84988 22.95 7.84988 22.8103C7.84988 22.6707 17.4962 18.4345 29.2965 13.4534C49.432 4.88793 50.79 4.37586 52.1012 4.88793C52.8972 5.21379 55.1449 6.14483 57.1585 6.98276ZM72.8454 13.6862L78.6519 16.1534L56.4561 25.5569C44.2811 30.7707 34.026 35.3328 33.7451 35.7517C33.2768 36.3103 33.1363 39.4759 33.1363 47.9017V59.3534L30.7482 55.7224C27.9854 51.6259 27.4703 51.4397 23.771 53.3017C22.5067 53.9534 21.2423 54.4655 20.9614 54.4655C20.6336 54.4655 20.4931 50.4155 20.4931 42.4552V30.4914L43.1104 20.8552C55.5195 15.5483 66.0087 11.219 66.3833 11.219C66.7579 11.219 69.708 12.3362 72.8454 13.6862ZM89.3753 20.669C93.9175 22.6241 94.1516 22.7638 93.0746 23.2293C92.419 23.5552 82.6322 27.6983 71.347 32.5397L50.7432 41.2448L45.7327 39.15C42.0334 37.5672 40.9096 36.9155 41.4715 36.6362C46.9502 34.169 83.6156 18.6672 84.037 18.6672C84.318 18.6207 86.753 19.5517 89.3753 20.669ZM10.8936 28.9086L16.0446 31.1431L16.2787 45.0155C16.4192 52.65 16.7001 59.1672 16.8874 59.4466C17.543 60.4707 19.4629 60.0983 22.8813 58.3759C24.7075 57.4914 26.2528 56.7931 26.3465 56.8862C26.3933 56.9793 28.1727 59.5862 30.2799 62.7052C33.2768 67.2207 34.307 68.431 35.1499 68.431C37.3039 68.431 37.3507 68.1052 37.3507 53.9069C37.3507 46.5517 37.4912 40.5 37.7254 40.5C37.9127 40.5 40.4413 41.4776 43.2977 42.6879L48.5892 44.9224V102.786L26.4869 93.3362L4.33787 83.9328L4.19739 55.0241C4.10374 27.6052 4.15057 26.1155 4.89979 26.3948C5.36806 26.581 8.08401 27.6983 10.8936 28.9086ZM97.7573 54.8845V83.7L78.9329 91.7069C68.5374 96.1293 58.4228 100.459 56.4092 101.297L52.8036 102.833L52.8972 73.9241L53.0377 44.969L75.0463 35.5655C87.1744 30.3983 97.1954 26.1621 97.4295 26.1155C97.6168 26.069 97.7573 39.0569 97.7573 54.8845Z" fill="#E2E2E2"/>
<path d="M66.3499 55.0596C66.7053 54.9059 67.0378 54.8469 67.3474 54.8828C67.6795 54.8847 67.9554 54.9715 68.1754 55.1431C68.4176 55.3052 68.6038 55.5399 68.7341 55.8473C68.8867 56.1451 68.9613 56.4887 68.9582 56.8781L68.7975 76.5912C68.791 77.3944 68.5188 78.1911 67.9811 78.9814C67.4657 79.7622 66.8525 80.3062 66.1416 80.6137L58.1778 84.0579L58.3143 67.3017L61.9797 65.7165L61.8759 78.457L65.1414 77.0448L65.2839 59.5585L62.0184 60.9707L61.9797 65.7165L58.3792 59.3434L58.386 58.5038L66.3499 55.0596Z" fill="#E2E2E2"/>
<path d="M74.6318 72.9404L80.4297 70.4329L80.397 74.4485L70.9337 78.5412L71.1419 52.9871L74.8073 51.4019L74.6318 72.9404Z" fill="#E2E2E2"/>
<path d="M91.1877 44.3177C91.8309 44.1608 92.3613 44.2588 92.7791 44.6116C93.1968 44.9645 93.4026 45.506 93.3967 46.2361L93.3652 50.1058L89.6998 51.691L89.7224 48.9165L86.4569 50.3288L86.3135 67.9246L89.579 66.5123L89.6019 63.7014L93.2673 62.1162L93.2355 66.0223C93.2295 66.7524 93.0133 67.4764 92.5869 68.1944C92.1604 68.9124 91.6246 69.4715 90.9794 69.8718L84.8483 72.5234C84.205 72.6803 83.6746 72.5823 83.2569 72.2295C82.8391 71.8766 82.6333 71.3351 82.6392 70.605L82.8005 50.8188C82.8064 50.0887 83.0226 49.3647 83.449 48.6467C83.8755 47.9287 84.4113 47.3696 85.0565 46.9693L91.1877 44.3177Z" fill="#E2E2E2"/>
</g>
</svg>
