<svg width="1920" height="1920" viewBox="0 0 1920 1920" fill="none" xmlns="http://www.w3.org/2000/svg">
<g clip-path="url(#clip0_1828_2927)">
<rect width="1920" height="1920" fill="#363636"/>
<g opacity="0.5">
<path d="M1159.53 521.5L3939.76 1694.16C3263.48 1883.3 1655.46 2246.44 633.536 2185.92C-388.385 2125.4 -1219.95 1656.33 -1507.99 1429.36C-1370.23 1252.84 -936.918 824.122 -305.73 521.5C325.457 218.879 934.104 395.408 1159.53 521.5Z" fill="#E2E2E2"/>
<path fill-rule="evenodd" clip-rule="evenodd" d="M1227.68 475.562L4080.69 1762.38C3345.75 1957.72 1595.08 2242.66 633.531 2185.71C-319.021 2129.29 -1106.18 1717.92 -1441.94 1478.52C-1466.39 1461.08 -1488.45 1444.56 -1508 1429.16C-1493.56 1410.65 -1475.86 1389.36 -1455.03 1365.75C-1277.2 1164.11 -870.746 792.181 -305.735 521.292C325.453 218.67 1002.26 349.469 1227.68 475.562ZM-1388.58 1415.1C-1215.53 1220.5 -820.036 859.573 -270.381 596.041C331.205 307.612 973.889 408.744 1182.08 525.197L3685.18 1676.35C3348.68 1762.77 2889.1 1867.17 2402.26 1951.87C1789.62 2058.44 1139.65 2132.74 638.36 2103.06C-291.191 2048 -1060.52 1647.35 -1388.58 1415.1Z" fill="#1E1E1E"/>
<path d="M-298.269 -39.5571C340.321 -345.73 956.073 -167.466 1185.81 -38.9637L4082 1764.31L1176.38 188.048C946.592 59.5455 330.894 -118.646 -307.633 187.49C-627.519 340.862 -896.024 621.264 -1101.12 883.736C-1203.82 1015.17 -1279.02 1127.11 -1348.99 1232.5C-1367.98 1261.09 -1370.1 1262.25 -1507.04 1428.17C-1408.34 1282.49 -1311.14 1135.59 -1222.33 983.6C-1182.45 915.351 -1139.24 843.954 -1092.86 771.728C-888.175 452.971 -619.426 114.417 -298.269 -39.5571Z" fill="#1E1E1E"/>
<path d="M1185.6 167.989C955.816 39.4866 340.114 -138.71 -298.413 167.432C-618.299 320.799 -886.8 601.205 -1091.9 863.677C-1194.6 995.106 -1281.74 1122.49 -1351.72 1227.88C-1351.72 1227.88 -1414.52 1303.97 -1507.54 1428.97C-1367.95 1250.09 -932.613 849.752 -298.386 545.672C339.28 239.948 955.085 353.506 1185.6 481.967L4079.07 1761.94L1185.6 167.989Z" fill="#E2E2E2"/>
<path d="M999.339 1742.05C459.845 1742.05 22.5002 1301.71 22.5002 758.523C22.5002 637.604 44.1716 521.781 83.822 414.778C590.225 288.731 1038.51 427.444 1224.87 531.688L1972.28 846.935C1927.88 1348.69 1509.24 1742.05 999.339 1742.05Z" fill="#1E1E1E"/>
<path fill-rule="evenodd" clip-rule="evenodd" d="M-1222.07 -1240.06C-1140.05 -1322.65 -1007.06 -1322.65 -925.039 -1240.06L907.875 605.391C939.992 637.722 992.058 637.722 1024.17 605.391L2857.09 -1240.06C2939.11 -1322.65 3072.1 -1322.65 3154.1 -1240.06C3236.15 -1157.48 3236.15 -1023.59 3154.1 -941.003L1321.2 904.447C1289.09 936.782 1289.09 989.208 1321.2 1021.54L3154.1 2866.99C3236.15 2949.57 3236.15 3083.47 3154.1 3166.05C3072.1 3248.65 2939.11 3248.65 2857.09 3166.05L1024.17 1320.6C992.058 1288.26 939.992 1288.26 907.879 1320.6L-925.039 3166.05C-1007.06 3248.65 -1140.05 3248.65 -1222.07 3166.05C-1304.09 3083.47 -1304.09 2949.57 -1222.07 2866.99L610.85 1021.54C642.963 989.208 642.963 936.782 610.85 904.447L-1222.07 -941.004C-1304.09 -1023.59 -1304.09 -1157.48 -1222.07 -1240.06ZM-1041.33 -1122.97C-1059.13 -1140.89 -1087.98 -1140.89 -1105.77 -1122.97C-1123.56 -1105.06 -1123.56 -1076.01 -1105.77 -1058.09L727.146 787.356C823.489 884.361 823.489 1041.63 727.146 1138.63L-1105.77 2984.08C-1123.56 3002 -1123.57 3031.05 -1105.77 3048.96C-1087.98 3066.87 -1059.13 3066.87 -1041.33 3048.96L791.579 1203.51C887.925 1106.51 1044.12 1106.51 1140.47 1203.51L2973.38 3048.96C2991.18 3066.87 3020.03 3066.87 3037.83 3048.96C3055.6 3031.05 3055.6 3002 3037.83 2984.08L1204.9 1138.63C1108.56 1041.63 1108.56 884.357 1204.9 787.356L3037.83 -1058.09C3055.6 -1076.01 3055.6 -1105.06 3037.83 -1122.97C3020.03 -1140.89 2991.18 -1140.89 2973.38 -1122.97L1140.47 722.482C1044.12 819.483 887.925 819.483 791.579 722.482L-1041.33 -1122.97Z" fill="#FF6568"/>
<path d="M849.686 1262.29C913.916 1197.63 1018.05 1197.63 1082.28 1262.29L2919.52 3112.11C2969.54 3162.47 3050.64 3162.47 3100.68 3112.11C3150.68 3061.75 3150.68 2980.1 3100.68 2929.74L1263.41 1079.92C1199.18 1015.26 1199.18 910.409 1263.41 845.739L3100.68 -1004.07C3150.68 -1054.43 3150.68 -1136.09 3100.68 -1186.45C3050.64 -1236.81 2969.54 -1236.81 2919.52 -1186.45L1082.28 663.366C1018.05 728.036 913.916 728.036 849.686 663.366L-987.56 -1186.45C-1037.58 -1236.81 -1118.68 -1236.81 -1168.69 -1186.45C-1218.71 -1136.09 -1218.71 -1054.44 -1168.69 -1004.07L668.552 845.739C732.781 910.409 732.781 1015.26 668.552 1079.92L-1168.69 2929.74C-1218.71 2980.1 -1218.71 3061.75 -1168.69 3112.11C-1118.68 3162.47 -1037.58 3162.47 -987.56 3112.11L849.686 1262.29Z" fill="#1E1E1E"/>
</g>
<path fill-rule="evenodd" clip-rule="evenodd" d="M899.048 857.298C902.764 891.318 899.946 925.735 890.745 958.697L890.298 960.298L890.745 961.899C899.946 994.862 902.764 1029.28 899.048 1063.3H1021.55C1017.83 1029.28 1020.65 994.862 1029.85 961.899L1030.3 960.298L1029.85 958.697C1020.65 925.735 1017.83 891.318 1021.55 857.298H899.048ZM920.602 933.511C919.887 942.488 919.173 951.454 919.173 960.298C919.173 969.143 919.887 978.108 920.602 987.085C921.723 1001.16 922.847 1015.26 921.224 1028.96C920.535 1034.78 924.845 1040.3 930.7 1040.3H989.896C995.752 1040.3 1000.06 1034.78 999.373 1028.96C997.75 1015.26 998.873 1001.16 999.994 987.085C1000.71 978.108 1001.42 969.143 1001.42 960.298C1001.42 951.454 1000.71 942.488 999.994 933.511C998.873 919.439 997.75 905.338 999.373 891.634C1000.06 885.819 995.752 880.298 989.896 880.298H930.7C924.845 880.298 920.535 885.819 921.224 891.634C922.847 905.338 921.723 919.439 920.602 933.511Z" fill="#777777"/>
<path fill-rule="evenodd" clip-rule="evenodd" d="M1202.59 631.646C1181.16 658.329 1154.83 680.672 1125.02 697.474L1123.57 698.291L1122.75 699.739C1105.95 729.552 1083.61 755.881 1056.92 777.31L1143.54 863.93C1164.97 837.247 1191.3 814.904 1221.11 798.102L1222.56 797.285L1223.38 795.837C1240.18 766.024 1262.52 739.695 1289.21 718.266L1202.59 631.646ZM1163.94 700.778C1157.08 706.62 1150.24 712.454 1143.99 718.708C1137.73 724.962 1131.9 731.807 1126.05 738.66C1116.9 749.404 1107.72 760.168 1096.88 768.711C1092.28 772.336 1091.43 779.287 1095.57 783.428L1137.43 825.285C1141.57 829.426 1148.52 828.569 1152.14 823.971C1160.68 813.133 1171.45 803.957 1182.19 794.798C1189.05 788.956 1195.89 783.122 1202.15 776.868C1208.4 770.614 1214.23 763.769 1220.08 756.916C1229.23 746.172 1238.41 735.408 1249.25 726.865C1253.85 723.24 1254.7 716.289 1250.56 712.148L1208.7 670.291C1204.56 666.15 1197.61 667.007 1193.99 671.605C1185.45 682.443 1174.68 691.619 1163.94 700.778Z" fill="#777777"/>
<path d="M988.195 923.925C986.823 925.519 986.763 927.767 988.086 929.09L991.766 932.77C993.089 934.093 995.337 934.033 996.931 932.661C1023.14 910.106 1053.57 893.387 1085.82 883.855C1087.1 883.479 1088.14 882.439 1088.52 881.164C1098.05 848.912 1114.77 818.476 1137.32 792.271C1138.69 790.677 1138.75 788.429 1137.43 787.106L1133.75 783.426C1132.43 782.103 1130.18 782.163 1128.58 783.535C1102.38 806.09 1071.94 822.809 1039.69 832.34C1038.42 832.717 1037.38 833.756 1037 835.031C1027.47 867.284 1010.75 897.72 988.195 923.925Z" fill="#777777"/>
<path fill-rule="evenodd" clip-rule="evenodd" d="M1423.2 411.029C1401.78 437.712 1375.45 460.055 1345.63 476.857L1344.18 477.673L1343.37 479.122C1326.57 508.935 1304.22 535.264 1277.54 556.693L1364.16 643.313C1385.59 616.63 1411.92 594.286 1441.73 577.484L1443.18 576.668L1444 575.22C1460.8 545.406 1483.14 519.077 1509.82 497.649L1423.2 411.029ZM1384.55 480.16C1377.7 486.002 1370.86 491.837 1364.6 498.091C1358.35 504.345 1352.51 511.19 1346.67 518.043C1337.51 528.786 1328.34 539.551 1317.5 548.094C1312.9 551.719 1312.04 558.67 1316.18 562.81L1358.04 604.668C1362.18 608.808 1369.13 607.952 1372.76 603.354C1381.3 592.516 1392.07 583.34 1402.81 574.181C1409.66 568.339 1416.51 562.504 1422.76 556.251C1429.02 549.997 1434.85 543.152 1440.69 536.299C1449.85 525.555 1459.03 514.79 1469.87 506.247C1474.46 502.623 1475.32 495.671 1471.18 491.531L1429.32 449.673C1425.18 445.533 1418.23 446.39 1414.61 450.988C1406.06 461.826 1395.3 471.002 1384.55 480.16Z" fill="#777777"/>
<path d="M1208.81 703.307C1207.44 704.902 1207.38 707.15 1208.7 708.473L1212.38 712.152C1213.71 713.476 1215.95 713.416 1217.55 712.044C1243.75 689.489 1274.19 672.77 1306.44 663.238C1307.72 662.861 1308.76 661.822 1309.13 660.547C1318.66 628.295 1335.38 597.858 1357.94 571.654C1359.31 570.06 1359.37 567.812 1358.05 566.488L1354.37 562.809C1353.04 561.486 1350.8 561.545 1349.2 562.918C1323 585.473 1292.56 602.192 1260.31 611.723C1259.03 612.1 1257.99 613.139 1257.62 614.414C1248.09 646.666 1231.37 677.103 1208.81 703.307Z" fill="#777777"/>
<path fill-rule="evenodd" clip-rule="evenodd" d="M1643.82 190.411C1622.39 217.095 1596.06 239.438 1566.25 256.24L1564.8 257.056L1563.99 258.504C1547.18 288.318 1524.84 314.647 1498.16 336.075L1584.78 422.696C1606.21 396.013 1632.54 373.669 1662.35 356.867L1663.8 356.051L1664.61 354.603C1681.42 324.789 1703.76 298.46 1730.44 277.032L1643.82 190.411ZM1605.17 259.543C1598.32 265.385 1591.47 271.22 1585.22 277.474C1578.97 283.728 1573.13 290.572 1567.29 297.426C1558.13 308.169 1548.95 318.934 1538.12 327.477C1533.52 331.102 1532.66 338.053 1536.8 342.193L1578.66 384.051C1582.8 388.191 1589.75 387.335 1593.38 382.737C1601.92 371.899 1612.68 362.722 1623.43 353.564C1630.28 347.722 1637.13 341.887 1643.38 335.633C1649.63 329.379 1655.47 322.535 1661.31 315.682C1670.47 304.938 1679.64 294.173 1690.48 285.63C1695.08 282.005 1695.94 275.054 1691.8 270.914L1649.94 229.056C1645.8 224.916 1638.85 225.772 1635.22 230.371C1626.68 241.208 1615.92 250.385 1605.17 259.543Z" fill="#777777"/>
<path d="M1429.43 482.69C1428.06 484.284 1428 486.533 1429.32 487.856L1433 491.535C1434.32 492.858 1436.57 492.799 1438.17 491.427C1464.37 468.871 1494.81 452.153 1527.06 442.621C1528.33 442.244 1529.37 441.205 1529.75 439.93C1539.28 407.678 1556 377.241 1578.56 351.037C1579.93 349.443 1579.99 347.194 1578.66 345.871L1574.98 342.192C1573.66 340.869 1571.41 340.928 1569.82 342.3C1543.61 364.856 1513.18 381.574 1480.93 391.106C1479.65 391.483 1478.61 392.522 1478.23 393.797C1468.7 426.049 1451.98 456.486 1429.43 482.69Z" fill="#777777"/>
<path fill-rule="evenodd" clip-rule="evenodd" d="M1864.44 -30.2059C1843.01 -3.52265 1816.68 18.8208 1786.87 35.6228L1785.42 36.4389L1784.6 37.8871C1767.8 67.7008 1745.46 94.0298 1718.77 115.458L1805.4 202.079C1826.82 175.396 1853.15 153.052 1882.97 136.25L1884.41 135.434L1885.23 133.986C1902.03 104.172 1924.38 77.843 1951.06 56.4147L1864.44 -30.2059ZM1825.79 38.9261C1818.94 44.7681 1812.09 50.6028 1805.84 56.8567C1799.58 63.1106 1793.75 69.9552 1787.91 76.8083C1778.75 87.552 1769.57 98.3168 1758.73 106.86C1754.14 110.485 1753.28 117.436 1757.42 121.576L1799.28 163.434C1803.42 167.574 1810.37 166.718 1813.99 162.119C1822.54 151.282 1833.3 142.105 1844.04 132.947C1850.9 127.105 1857.74 121.27 1864 115.016C1870.25 108.762 1876.09 101.918 1881.93 95.0645C1891.09 84.3209 1900.26 73.5561 1911.1 65.013C1915.7 61.3883 1916.55 54.4371 1912.41 50.2968L1870.56 8.43893C1866.42 4.29872 1859.46 5.15519 1855.84 9.75348C1847.3 20.5913 1836.53 29.7677 1825.79 38.9261Z" fill="#777777"/>
<path d="M1650.05 262.073C1648.67 263.667 1648.61 265.915 1649.94 267.239L1653.62 270.918C1654.94 272.241 1657.19 272.181 1658.78 270.809C1684.99 248.254 1715.42 231.535 1747.68 222.004C1748.95 221.627 1749.99 220.588 1750.37 219.313C1759.9 187.06 1776.62 156.624 1799.17 130.419C1800.54 128.825 1800.6 126.577 1799.28 125.254L1795.6 121.575C1794.28 120.251 1792.03 120.311 1790.44 121.683C1764.23 144.238 1733.8 160.957 1701.54 170.489C1700.27 170.866 1699.23 171.905 1698.85 173.18C1689.32 205.432 1672.6 235.869 1650.05 262.073Z" fill="#777777"/>
<path d="M1870.66 41.4559C1869.29 43.0501 1869.23 45.2983 1870.55 46.6214L1874.23 50.3008C1875.56 51.6239 1877.81 51.5643 1879.4 50.1922C1905.6 27.637 1936.04 10.9182 1968.29 1.38657C1969.57 1.00976 1970.61 -0.0295385 1970.98 -1.30455C1980.52 -33.5567 1997.23 -63.9932 2019.79 -90.1977C2021.16 -91.7919 2021.22 -94.0401 2019.9 -95.3632L2016.22 -99.0426C2014.9 -100.366 2012.65 -100.306 2011.05 -98.934C1984.85 -76.3788 1954.41 -59.66 1922.16 -50.1284C1920.89 -49.7516 1919.85 -48.7123 1919.47 -47.4373C1909.94 -15.1851 1893.22 15.2514 1870.66 41.4559Z" fill="#777777"/>
<path fill-rule="evenodd" clip-rule="evenodd" d="M631.646 718.271C658.329 739.7 680.672 766.029 697.474 795.842L698.291 797.291L699.739 798.107C729.552 814.909 755.881 837.252 777.31 863.935L863.93 777.315C837.247 755.886 814.904 729.557 798.102 699.744L797.285 698.296L795.837 697.479C766.024 680.677 739.695 658.334 718.266 631.651L631.646 718.271ZM700.778 756.921C706.62 763.774 712.454 770.619 718.708 776.873C724.962 783.127 731.807 788.961 738.66 794.803C749.404 803.962 760.168 813.138 768.711 823.976C772.336 828.574 779.287 829.431 783.428 825.291L825.285 783.433C829.426 779.292 828.569 772.341 823.971 768.716C813.133 760.173 803.957 749.409 794.798 738.665C788.956 731.812 783.122 724.967 776.868 718.713C770.614 712.459 763.769 706.625 756.916 700.783C746.172 691.624 735.408 682.448 726.865 671.61C723.24 667.012 716.289 666.155 712.148 670.296L670.291 712.153C666.15 716.294 667.007 723.245 671.605 726.87C682.443 735.413 691.619 746.177 700.778 756.921Z" fill="#777777"/>
<path d="M923.925 932.663C925.519 934.036 927.767 934.095 929.09 932.772L932.77 929.093C934.093 927.77 934.033 925.521 932.661 923.927C910.106 897.723 893.387 867.286 883.855 835.034C883.479 833.759 882.439 832.72 881.164 832.343C848.912 822.811 818.476 806.092 792.271 783.537C790.677 782.165 788.429 782.106 787.106 783.429L783.426 787.108C782.103 788.431 782.163 790.679 783.535 792.274C806.09 818.478 822.809 848.915 832.34 881.167C832.717 882.442 833.756 883.481 835.031 883.858C867.284 893.39 897.72 910.108 923.925 932.663Z" fill="#777777"/>
<path fill-rule="evenodd" clip-rule="evenodd" d="M411.029 497.654C437.712 519.082 460.055 545.411 476.857 575.225L477.673 576.673L479.122 577.49C508.935 594.292 535.264 616.635 556.693 643.318L643.313 556.698C616.63 535.269 594.286 508.94 577.484 479.127L576.668 477.678L575.22 476.862C545.406 460.06 519.077 437.717 497.649 411.034L411.029 497.654ZM480.16 536.304C486.002 543.157 491.837 550.002 498.091 556.256C504.345 562.51 511.19 568.344 518.043 574.186C528.786 583.345 539.551 592.521 548.094 603.359C551.719 607.957 558.67 608.814 562.81 604.673L604.668 562.815C608.808 558.675 607.952 551.724 603.354 548.099C592.516 539.556 583.34 528.791 574.181 518.048C568.339 511.195 562.504 504.35 556.251 498.096C549.997 491.842 543.152 486.008 536.299 480.166C525.555 471.007 514.79 461.831 506.247 450.993C502.623 446.395 495.671 445.538 491.531 449.678L449.673 491.536C445.533 495.676 446.39 502.628 450.988 506.252C461.826 514.796 471.002 525.56 480.16 536.304Z" fill="#777777"/>
<path d="M703.307 712.046C704.902 713.418 707.15 713.478 708.473 712.155L712.152 708.475C713.476 707.152 713.416 704.904 712.044 703.31C689.489 677.105 672.77 646.669 663.238 614.417C662.861 613.142 661.822 612.103 660.547 611.726C628.295 602.194 597.858 585.475 571.654 562.92C570.06 561.548 567.812 561.488 566.488 562.811L562.809 566.491C561.486 567.814 561.545 570.062 562.918 571.656C585.473 597.861 602.192 628.297 611.723 660.55C612.1 661.825 613.139 662.864 614.414 663.241C646.666 672.772 677.103 689.491 703.307 712.046Z" fill="#777777"/>
<path fill-rule="evenodd" clip-rule="evenodd" d="M190.411 277.037C217.095 298.465 239.438 324.794 256.24 354.608L257.056 356.056L258.504 356.872C288.318 373.674 314.647 396.018 336.075 422.701L422.696 336.08C396.013 314.652 373.669 288.323 356.867 258.509L356.051 257.061L354.603 256.245C324.789 239.443 298.46 217.1 277.032 190.416L190.411 277.037ZM259.543 315.687C265.385 322.54 271.22 329.385 277.474 335.638C283.728 341.892 290.572 347.727 297.426 353.569C308.169 362.727 318.934 371.904 327.477 382.742C331.102 387.34 338.053 388.196 342.193 384.056L384.051 342.198C388.191 338.058 387.335 331.107 382.737 327.482C371.899 318.939 362.722 308.174 353.564 297.431C347.722 290.577 341.887 283.733 335.633 277.479C329.379 271.225 322.535 265.39 315.682 259.548C304.938 250.39 294.173 241.213 285.63 230.376C282.005 225.777 275.054 224.921 270.914 229.061L229.056 270.919C224.916 275.059 225.772 282.011 230.371 285.635C241.208 294.178 250.385 304.943 259.543 315.687Z" fill="#777777"/>
<path d="M482.69 491.429C484.284 492.801 486.533 492.861 487.856 491.538L491.535 487.858C492.858 486.535 492.799 484.287 491.427 482.693C468.871 456.488 452.153 426.052 442.621 393.8C442.244 392.525 441.205 391.485 439.93 391.109C407.678 381.577 377.241 364.858 351.037 342.303C349.443 340.931 347.194 340.871 345.871 342.194L342.192 345.874C340.869 347.197 340.928 349.445 342.3 351.039C364.856 377.244 381.574 407.68 391.106 439.932C391.483 441.207 392.522 442.247 393.797 442.623C426.049 452.155 456.486 468.874 482.69 491.429Z" fill="#777777"/>
<path fill-rule="evenodd" clip-rule="evenodd" d="M-30.2059 56.4198C-3.52265 77.8481 18.8208 104.177 35.6228 133.991L36.4389 135.439L37.8871 136.255C67.7008 153.057 94.0298 175.401 115.458 202.084L202.079 115.463C175.396 94.0349 153.052 67.7059 136.25 37.8922L135.434 36.444L133.986 35.6279C104.172 18.8258 77.843 -3.5176 56.4147 -30.2008L-30.2059 56.4198ZM38.9261 95.0696C44.7681 101.923 50.6028 108.767 56.8567 115.021C63.1106 121.275 69.9552 127.11 76.8083 132.952C87.552 142.11 98.3168 151.287 106.86 162.124C110.485 166.723 117.436 167.579 121.576 163.439L163.434 121.581C167.574 117.441 166.718 110.49 162.119 106.865C151.282 98.3218 142.105 87.557 132.947 76.8134C127.105 69.9602 121.27 63.1156 115.016 56.8617C108.762 50.6078 101.918 44.7732 95.0645 38.9312C84.3209 29.7727 73.5561 20.5963 65.013 9.75853C61.3883 5.16024 54.4371 4.30378 50.2968 8.44399L8.43893 50.3019C4.29872 54.4421 5.15519 61.3934 9.75348 65.0181C20.5913 73.5612 29.7677 84.3259 38.9261 95.0696Z" fill="#777777"/>
<path d="M262.073 270.812C263.667 272.184 265.915 272.244 267.239 270.921L270.918 267.241C272.241 265.918 272.181 263.67 270.809 262.076C248.254 235.871 231.535 205.435 222.004 173.182C221.627 171.907 220.588 170.868 219.313 170.491C187.06 160.96 156.624 144.241 130.419 121.686C128.825 120.314 126.577 120.254 125.254 121.577L121.575 125.257C120.251 126.58 120.311 128.828 121.683 130.422C144.238 156.627 160.957 187.063 170.489 219.315C170.866 220.59 171.905 221.629 173.18 222.006C205.432 231.538 235.869 248.257 262.073 270.812Z" fill="#777777"/>
<path d="M41.4559 50.1947C43.0501 51.5668 45.2983 51.6265 46.6214 50.3033L50.3008 46.6239C51.6239 45.3008 51.5643 43.0526 50.1922 41.4584C27.637 15.2539 10.9182 -15.1826 1.38657 -47.4347C1.00976 -48.7097 -0.0295385 -49.749 -1.30455 -50.1259C-33.5567 -59.6575 -63.9932 -76.3763 -90.1977 -98.9314C-91.7919 -100.304 -94.0401 -100.363 -95.3632 -99.0401L-99.0426 -95.3607C-100.366 -94.0375 -100.306 -91.7893 -98.934 -90.1952C-76.3788 -63.9906 -59.66 -33.5542 -50.1284 -1.30202C-49.7516 -0.0270147 -48.7123 1.01229 -47.4373 1.3891C-15.1851 10.9208 15.2514 27.6395 41.4559 50.1947Z" fill="#777777"/>
<path fill-rule="evenodd" clip-rule="evenodd" d="M1202.59 631.646C1181.16 658.329 1154.83 680.672 1125.02 697.474L1123.57 698.291L1122.75 699.739C1105.95 729.552 1083.61 755.881 1056.92 777.31L1143.54 863.93C1164.97 837.247 1191.3 814.904 1221.11 798.102L1222.56 797.285L1223.38 795.837C1240.18 766.024 1262.52 739.695 1289.21 718.266L1202.59 631.646ZM1163.94 700.778C1157.08 706.62 1150.24 712.454 1143.99 718.708C1137.73 724.962 1131.9 731.807 1126.05 738.66C1116.9 749.404 1107.72 760.168 1096.88 768.711C1092.28 772.336 1091.43 779.287 1095.57 783.428L1137.43 825.285C1141.57 829.426 1148.52 828.569 1152.14 823.971C1160.68 813.133 1171.45 803.957 1182.19 794.798C1189.05 788.956 1195.89 783.122 1202.15 776.868C1208.4 770.614 1214.23 763.769 1220.08 756.916C1229.23 746.172 1238.41 735.408 1249.25 726.865C1253.85 723.24 1254.7 716.289 1250.56 712.148L1208.7 670.291C1204.56 666.15 1197.61 667.007 1193.99 671.605C1185.45 682.443 1174.68 691.619 1163.94 700.778Z" fill="#777777"/>
<path fill-rule="evenodd" clip-rule="evenodd" d="M1423.2 411.029C1401.78 437.712 1375.45 460.055 1345.63 476.857L1344.18 477.673L1343.37 479.122C1326.57 508.935 1304.22 535.264 1277.54 556.693L1364.16 643.313C1385.59 616.63 1411.92 594.286 1441.73 577.484L1443.18 576.668L1444 575.22C1460.8 545.406 1483.14 519.077 1509.82 497.649L1423.2 411.029ZM1384.55 480.16C1377.7 486.002 1370.86 491.837 1364.6 498.091C1358.35 504.345 1352.51 511.19 1346.67 518.043C1337.51 528.786 1328.34 539.551 1317.5 548.094C1312.9 551.719 1312.04 558.67 1316.18 562.81L1358.04 604.668C1362.18 608.808 1369.13 607.952 1372.76 603.354C1381.3 592.516 1392.07 583.34 1402.81 574.181C1409.66 568.339 1416.51 562.504 1422.76 556.251C1429.02 549.997 1434.85 543.152 1440.69 536.299C1449.85 525.555 1459.03 514.79 1469.87 506.247C1474.46 502.623 1475.32 495.671 1471.18 491.531L1429.32 449.673C1425.18 445.533 1418.23 446.39 1414.61 450.988C1406.06 461.826 1395.3 471.002 1384.55 480.16Z" fill="#777777"/>
<path d="M1208.81 703.307C1207.44 704.902 1207.38 707.15 1208.7 708.473L1212.38 712.152C1213.71 713.476 1215.95 713.416 1217.55 712.044C1243.75 689.489 1274.19 672.77 1306.44 663.238C1307.72 662.861 1308.76 661.822 1309.13 660.547C1318.66 628.295 1335.38 597.858 1357.94 571.654C1359.31 570.06 1359.37 567.812 1358.05 566.488L1354.37 562.809C1353.04 561.486 1350.8 561.545 1349.2 562.918C1323 585.473 1292.56 602.192 1260.31 611.723C1259.03 612.1 1257.99 613.139 1257.62 614.414C1248.09 646.666 1231.37 677.103 1208.81 703.307Z" fill="#777777"/>
<path fill-rule="evenodd" clip-rule="evenodd" d="M1643.82 190.411C1622.39 217.095 1596.06 239.438 1566.25 256.24L1564.8 257.056L1563.99 258.504C1547.18 288.318 1524.84 314.647 1498.16 336.075L1584.78 422.696C1606.21 396.013 1632.54 373.669 1662.35 356.867L1663.8 356.051L1664.61 354.603C1681.42 324.789 1703.76 298.46 1730.44 277.032L1643.82 190.411ZM1605.17 259.543C1598.32 265.385 1591.47 271.22 1585.22 277.474C1578.97 283.728 1573.13 290.572 1567.29 297.426C1558.13 308.169 1548.95 318.934 1538.12 327.477C1533.52 331.102 1532.66 338.053 1536.8 342.193L1578.66 384.051C1582.8 388.191 1589.75 387.335 1593.38 382.737C1601.92 371.899 1612.68 362.722 1623.43 353.564C1630.28 347.722 1637.13 341.887 1643.38 335.633C1649.63 329.379 1655.47 322.535 1661.31 315.682C1670.47 304.938 1679.64 294.173 1690.48 285.63C1695.08 282.005 1695.94 275.054 1691.8 270.914L1649.94 229.056C1645.8 224.916 1638.85 225.772 1635.22 230.371C1626.68 241.208 1615.92 250.385 1605.17 259.543Z" fill="#777777"/>
<path d="M1429.43 482.69C1428.06 484.284 1428 486.533 1429.32 487.856L1433 491.535C1434.32 492.858 1436.57 492.799 1438.17 491.427C1464.37 468.871 1494.81 452.153 1527.06 442.621C1528.33 442.244 1529.37 441.205 1529.75 439.93C1539.28 407.678 1556 377.241 1578.56 351.037C1579.93 349.443 1579.99 347.194 1578.66 345.871L1574.98 342.192C1573.66 340.869 1571.41 340.928 1569.82 342.3C1543.61 364.856 1513.18 381.574 1480.93 391.106C1479.65 391.483 1478.61 392.522 1478.23 393.797C1468.7 426.049 1451.98 456.486 1429.43 482.69Z" fill="#777777"/>
<path fill-rule="evenodd" clip-rule="evenodd" d="M1864.44 -30.2059C1843.01 -3.52265 1816.68 18.8208 1786.87 35.6228L1785.42 36.4389L1784.6 37.8871C1767.8 67.7008 1745.46 94.0298 1718.77 115.458L1805.4 202.079C1826.82 175.396 1853.15 153.052 1882.97 136.25L1884.41 135.434L1885.23 133.986C1902.03 104.172 1924.38 77.843 1951.06 56.4147L1864.44 -30.2059ZM1825.79 38.9261C1818.94 44.7681 1812.09 50.6028 1805.84 56.8567C1799.58 63.1106 1793.75 69.9552 1787.91 76.8083C1778.75 87.552 1769.57 98.3168 1758.73 106.86C1754.14 110.485 1753.28 117.436 1757.42 121.576L1799.28 163.434C1803.42 167.574 1810.37 166.718 1813.99 162.119C1822.54 151.282 1833.3 142.105 1844.04 132.947C1850.9 127.105 1857.74 121.27 1864 115.016C1870.25 108.762 1876.09 101.918 1881.93 95.0645C1891.09 84.3209 1900.26 73.5561 1911.1 65.013C1915.7 61.3883 1916.55 54.4371 1912.41 50.2968L1870.56 8.43893C1866.42 4.29872 1859.46 5.15519 1855.84 9.75348C1847.3 20.5913 1836.53 29.7677 1825.79 38.9261Z" fill="#777777"/>
<path d="M1650.05 262.073C1648.67 263.667 1648.61 265.915 1649.94 267.239L1653.62 270.918C1654.94 272.241 1657.19 272.181 1658.78 270.809C1684.99 248.254 1715.42 231.535 1747.68 222.004C1748.95 221.627 1749.99 220.588 1750.37 219.313C1759.9 187.06 1776.62 156.624 1799.17 130.419C1800.54 128.825 1800.6 126.577 1799.28 125.254L1795.6 121.575C1794.28 120.251 1792.03 120.311 1790.44 121.683C1764.23 144.238 1733.8 160.957 1701.54 170.489C1700.27 170.866 1699.23 171.905 1698.85 173.18C1689.32 205.432 1672.6 235.869 1650.05 262.073Z" fill="#777777"/>
<path d="M1870.66 41.4559C1869.29 43.0501 1869.23 45.2983 1870.55 46.6214L1874.23 50.3008C1875.56 51.6239 1877.81 51.5643 1879.4 50.1922C1905.6 27.637 1936.04 10.9182 1968.29 1.38657C1969.57 1.00976 1970.61 -0.0295385 1970.98 -1.30455C1980.52 -33.5567 1997.23 -63.9932 2019.79 -90.1977C2021.16 -91.7919 2021.22 -94.0401 2019.9 -95.3632L2016.22 -99.0426C2014.9 -100.366 2012.65 -100.306 2011.05 -98.934C1984.85 -76.3788 1954.41 -59.66 1922.16 -50.1284C1920.89 -49.7516 1919.85 -48.7123 1919.47 -47.4373C1909.94 -15.1851 1893.22 15.2514 1870.66 41.4559Z" fill="#777777"/>
<path fill-rule="evenodd" clip-rule="evenodd" d="M631.646 718.271C658.329 739.7 680.672 766.029 697.474 795.842L698.291 797.291L699.739 798.107C729.552 814.909 755.881 837.252 777.31 863.935L863.93 777.315C837.247 755.886 814.904 729.557 798.102 699.744L797.285 698.296L795.837 697.479C766.024 680.677 739.695 658.334 718.266 631.651L631.646 718.271ZM700.778 756.921C706.62 763.774 712.454 770.619 718.708 776.873C724.962 783.127 731.807 788.961 738.66 794.803C749.404 803.962 760.168 813.138 768.711 823.976C772.336 828.574 779.287 829.431 783.428 825.291L825.285 783.433C829.426 779.292 828.569 772.341 823.971 768.716C813.133 760.173 803.957 749.409 794.798 738.665C788.956 731.812 783.122 724.967 776.868 718.713C770.614 712.459 763.769 706.625 756.916 700.783C746.172 691.624 735.408 682.448 726.865 671.61C723.24 667.012 716.289 666.155 712.148 670.296L670.291 712.153C666.15 716.294 667.007 723.245 671.605 726.87C682.443 735.413 691.619 746.177 700.778 756.921Z" fill="#777777"/>
<path fill-rule="evenodd" clip-rule="evenodd" d="M411.029 497.654C437.712 519.082 460.055 545.411 476.857 575.225L477.673 576.673L479.122 577.49C508.935 594.292 535.264 616.635 556.693 643.318L643.313 556.698C616.63 535.269 594.286 508.94 577.484 479.127L576.668 477.678L575.22 476.862C545.406 460.06 519.077 437.717 497.649 411.034L411.029 497.654ZM480.16 536.304C486.002 543.157 491.837 550.002 498.091 556.256C504.345 562.51 511.19 568.344 518.043 574.186C528.786 583.345 539.551 592.521 548.094 603.359C551.719 607.957 558.67 608.814 562.81 604.673L604.668 562.815C608.808 558.675 607.952 551.724 603.354 548.099C592.516 539.556 583.34 528.791 574.181 518.048C568.339 511.195 562.504 504.35 556.251 498.096C549.997 491.842 543.152 486.008 536.299 480.166C525.555 471.007 514.79 461.831 506.247 450.993C502.623 446.395 495.671 445.538 491.531 449.678L449.673 491.536C445.533 495.676 446.39 502.628 450.988 506.252C461.826 514.796 471.002 525.56 480.16 536.304Z" fill="#777777"/>
<path d="M703.307 712.046C704.902 713.418 707.15 713.478 708.473 712.155L712.152 708.475C713.476 707.152 713.416 704.904 712.044 703.31C689.489 677.105 672.77 646.669 663.238 614.417C662.861 613.142 661.822 612.103 660.547 611.726C628.295 602.194 597.858 585.475 571.654 562.92C570.06 561.548 567.812 561.488 566.488 562.811L562.809 566.491C561.486 567.814 561.545 570.062 562.918 571.656C585.473 597.861 602.192 628.297 611.723 660.55C612.1 661.825 613.139 662.864 614.414 663.241C646.666 672.772 677.103 689.491 703.307 712.046Z" fill="#777777"/>
<path fill-rule="evenodd" clip-rule="evenodd" d="M190.411 277.037C217.095 298.465 239.438 324.794 256.24 354.608L257.056 356.056L258.504 356.872C288.318 373.674 314.647 396.018 336.075 422.701L422.696 336.08C396.013 314.652 373.669 288.323 356.867 258.509L356.051 257.061L354.603 256.245C324.789 239.443 298.46 217.1 277.032 190.416L190.411 277.037ZM259.543 315.687C265.385 322.54 271.22 329.385 277.474 335.638C283.728 341.892 290.572 347.727 297.426 353.569C308.169 362.727 318.934 371.904 327.477 382.742C331.102 387.34 338.053 388.196 342.193 384.056L384.051 342.198C388.191 338.058 387.335 331.107 382.737 327.482C371.899 318.939 362.722 308.174 353.564 297.431C347.722 290.577 341.887 283.733 335.633 277.479C329.379 271.225 322.535 265.39 315.682 259.548C304.938 250.39 294.173 241.213 285.63 230.376C282.005 225.777 275.054 224.921 270.914 229.061L229.056 270.919C224.916 275.059 225.772 282.011 230.371 285.635C241.208 294.178 250.385 304.943 259.543 315.687Z" fill="#777777"/>
<path d="M482.69 491.429C484.284 492.801 486.533 492.861 487.856 491.538L491.535 487.858C492.858 486.535 492.799 484.287 491.427 482.693C468.871 456.488 452.153 426.052 442.621 393.8C442.244 392.525 441.205 391.485 439.93 391.109C407.678 381.577 377.241 364.858 351.037 342.303C349.443 340.931 347.194 340.871 345.871 342.194L342.192 345.874C340.869 347.197 340.928 349.445 342.3 351.039C364.856 377.244 381.574 407.68 391.106 439.932C391.483 441.207 392.522 442.247 393.797 442.623C426.049 452.155 456.486 468.874 482.69 491.429Z" fill="#777777"/>
<path fill-rule="evenodd" clip-rule="evenodd" d="M-30.2059 56.4198C-3.52265 77.8481 18.8208 104.177 35.6228 133.991L36.4389 135.439L37.8871 136.255C67.7008 153.057 94.0298 175.401 115.458 202.084L202.079 115.463C175.396 94.0349 153.052 67.7059 136.25 37.8922L135.434 36.444L133.986 35.6279C104.172 18.8258 77.843 -3.5176 56.4147 -30.2008L-30.2059 56.4198ZM38.9261 95.0696C44.7681 101.923 50.6028 108.767 56.8567 115.021C63.1106 121.275 69.9552 127.11 76.8083 132.952C87.552 142.11 98.3168 151.287 106.86 162.124C110.485 166.723 117.436 167.579 121.576 163.439L163.434 121.581C167.574 117.441 166.718 110.49 162.119 106.865C151.282 98.3218 142.105 87.557 132.947 76.8134C127.105 69.9602 121.27 63.1156 115.016 56.8617C108.762 50.6078 101.918 44.7732 95.0645 38.9312C84.3209 29.7727 73.5561 20.5963 65.013 9.75853C61.3883 5.16024 54.4371 4.30378 50.2968 8.44399L8.43893 50.3019C4.29872 54.4421 5.15519 61.3934 9.75348 65.0181C20.5913 73.5612 29.7677 84.3259 38.9261 95.0696Z" fill="#777777"/>
<path d="M262.073 270.812C263.667 272.184 265.915 272.244 267.239 270.921L270.918 267.241C272.241 265.918 272.181 263.67 270.809 262.076C248.254 235.871 231.535 205.435 222.004 173.182C221.627 171.907 220.588 170.868 219.313 170.491C187.06 160.96 156.624 144.241 130.419 121.686C128.825 120.314 126.577 120.254 125.254 121.577L121.575 125.257C120.251 126.58 120.311 128.828 121.683 130.422C144.238 156.627 160.957 187.063 170.489 219.315C170.866 220.59 171.905 221.629 173.18 222.006C205.432 231.538 235.869 248.257 262.073 270.812Z" fill="#777777"/>
<path d="M41.4559 50.1947C43.0501 51.5668 45.2983 51.6265 46.6214 50.3033L50.3008 46.6239C51.6239 45.3008 51.5643 43.0526 50.1922 41.4584C27.637 15.2539 10.9182 -15.1826 1.38657 -47.4347C1.00976 -48.7097 -0.0295385 -49.749 -1.30455 -50.1259C-33.5567 -59.6575 -63.9932 -76.3763 -90.1977 -98.9314C-91.7919 -100.304 -94.0401 -100.363 -95.3632 -99.0401L-99.0426 -95.3607C-100.366 -94.0375 -100.306 -91.7893 -98.934 -90.1952C-76.3788 -63.9906 -59.66 -33.5542 -50.1284 -1.30202C-49.7516 -0.0270147 -48.7123 1.01229 -47.4373 1.3891C-15.1851 10.9208 15.2514 27.6395 41.4559 50.1947Z" fill="#777777"/>
<path fill-rule="evenodd" clip-rule="evenodd" d="M1202.59 1288.22C1181.16 1261.54 1154.83 1239.19 1125.02 1222.39L1123.57 1221.58L1122.75 1220.13C1105.95 1190.31 1083.61 1163.98 1056.92 1142.56L1143.54 1055.94C1164.97 1082.62 1191.3 1104.96 1221.11 1121.76L1222.56 1122.58L1223.38 1124.03C1240.18 1153.84 1262.52 1180.17 1289.21 1201.6L1202.59 1288.22ZM1163.94 1219.09C1157.08 1213.25 1150.24 1207.41 1143.99 1201.16C1137.73 1194.9 1131.9 1188.06 1126.05 1181.21C1116.9 1170.46 1107.72 1159.7 1096.88 1151.15C1092.28 1147.53 1091.43 1140.58 1095.57 1136.44L1137.43 1094.58C1141.57 1090.44 1148.52 1091.3 1152.14 1095.9C1160.68 1106.73 1171.45 1115.91 1182.19 1125.07C1189.05 1130.91 1195.89 1136.74 1202.15 1143C1208.4 1149.25 1214.23 1156.1 1220.08 1162.95C1229.23 1173.69 1238.41 1184.46 1249.25 1193C1253.85 1196.63 1254.7 1203.58 1250.56 1207.72L1208.7 1249.58C1204.56 1253.72 1197.61 1252.86 1193.99 1248.26C1185.45 1237.42 1174.68 1228.25 1163.94 1219.09Z" fill="#777777"/>
<path fill-rule="evenodd" clip-rule="evenodd" d="M1423.2 1508.84C1401.78 1482.15 1375.45 1459.81 1345.63 1443.01L1344.18 1442.19L1343.37 1440.74C1326.57 1410.93 1304.22 1384.6 1277.54 1363.17L1364.16 1276.55C1385.59 1303.24 1411.92 1325.58 1441.73 1342.38L1443.18 1343.2L1444 1344.65C1460.8 1374.46 1483.14 1400.79 1509.82 1422.22L1423.2 1508.84ZM1384.55 1439.71C1377.7 1433.86 1370.86 1428.03 1364.6 1421.78C1358.35 1415.52 1352.51 1408.68 1346.67 1401.82C1337.51 1391.08 1328.34 1380.31 1317.5 1371.77C1312.9 1368.15 1312.04 1361.2 1316.18 1357.06L1358.04 1315.2C1362.18 1311.06 1369.13 1311.91 1372.76 1316.51C1381.3 1327.35 1392.07 1336.53 1402.81 1345.68C1409.66 1351.53 1416.51 1357.36 1422.76 1363.62C1429.02 1369.87 1434.85 1376.71 1440.69 1383.57C1449.85 1394.31 1459.03 1405.08 1469.87 1413.62C1474.46 1417.24 1475.32 1424.19 1471.18 1428.33L1429.32 1470.19C1425.18 1474.33 1418.23 1473.48 1414.61 1468.88C1406.06 1458.04 1395.3 1448.86 1384.55 1439.71Z" fill="#777777"/>
<path d="M1208.81 1216.56C1207.44 1214.96 1207.38 1212.72 1208.7 1211.39L1212.38 1207.71C1213.71 1206.39 1215.95 1206.45 1217.55 1207.82C1243.75 1230.38 1274.19 1247.1 1306.44 1256.63C1307.72 1257 1308.76 1258.04 1309.13 1259.32C1318.66 1291.57 1335.38 1322.01 1357.94 1348.21C1359.31 1349.81 1359.37 1352.05 1358.05 1353.38L1354.37 1357.06C1353.04 1358.38 1350.8 1358.32 1349.2 1356.95C1323 1334.39 1292.56 1317.67 1260.31 1308.14C1259.03 1307.77 1257.99 1306.73 1257.62 1305.45C1248.09 1273.2 1231.37 1242.76 1208.81 1216.56Z" fill="#777777"/>
<path fill-rule="evenodd" clip-rule="evenodd" d="M1643.82 1729.45C1622.39 1702.77 1596.06 1680.43 1566.25 1663.63L1564.8 1662.81L1563.99 1661.36C1547.18 1631.55 1524.84 1605.22 1498.16 1583.79L1584.78 1497.17C1606.21 1523.85 1632.54 1546.2 1662.35 1563L1663.8 1563.82L1664.61 1565.26C1681.42 1595.08 1703.76 1621.41 1730.44 1642.83L1643.82 1729.45ZM1605.17 1660.32C1598.32 1654.48 1591.47 1648.65 1585.22 1642.39C1578.97 1636.14 1573.13 1629.29 1567.29 1622.44C1558.13 1611.7 1548.95 1600.93 1538.12 1592.39C1533.52 1588.76 1532.66 1581.81 1536.8 1577.67L1578.66 1535.82C1582.8 1531.67 1589.75 1532.53 1593.38 1537.13C1601.92 1547.97 1612.68 1557.14 1623.43 1566.3C1630.28 1572.14 1637.13 1577.98 1643.38 1584.23C1649.63 1590.49 1655.47 1597.33 1661.31 1604.18C1670.47 1614.93 1679.64 1625.69 1690.48 1634.24C1695.08 1637.86 1695.94 1644.81 1691.8 1648.95L1649.94 1690.81C1645.8 1694.95 1638.85 1694.09 1635.22 1689.5C1626.68 1678.66 1615.92 1669.48 1605.17 1660.32Z" fill="#777777"/>
<path d="M1429.43 1437.18C1428.06 1435.58 1428 1433.33 1429.32 1432.01L1433 1428.33C1434.32 1427.01 1436.57 1427.07 1438.17 1428.44C1464.37 1450.99 1494.81 1467.71 1527.06 1477.25C1528.33 1477.62 1529.37 1478.66 1529.75 1479.94C1539.28 1512.19 1556 1542.62 1578.56 1568.83C1579.93 1570.42 1579.99 1572.67 1578.66 1573.99L1574.98 1577.67C1573.66 1579 1571.41 1578.94 1569.82 1577.57C1543.61 1555.01 1513.18 1538.29 1480.93 1528.76C1479.65 1528.38 1478.61 1527.34 1478.23 1526.07C1468.7 1493.82 1451.98 1463.38 1429.43 1437.18Z" fill="#777777"/>
<path fill-rule="evenodd" clip-rule="evenodd" d="M1864.44 1950.07C1843.01 1923.39 1816.68 1901.05 1786.87 1884.24L1785.42 1883.43L1784.6 1881.98C1767.8 1852.17 1745.46 1825.84 1718.77 1804.41L1805.4 1717.79C1826.82 1744.47 1853.15 1766.81 1882.97 1783.62L1884.41 1784.43L1885.23 1785.88C1902.03 1815.69 1924.38 1842.02 1951.06 1863.45L1864.44 1950.07ZM1825.79 1880.94C1818.94 1875.1 1812.09 1869.26 1805.84 1863.01C1799.58 1856.76 1793.75 1849.91 1787.91 1843.06C1778.75 1832.31 1769.57 1821.55 1758.73 1813.01C1754.14 1809.38 1753.28 1802.43 1757.42 1798.29L1799.28 1756.43C1803.42 1752.29 1810.37 1753.15 1813.99 1757.75C1822.54 1768.58 1833.3 1777.76 1844.04 1786.92C1850.9 1792.76 1857.74 1798.6 1864 1804.85C1870.25 1811.1 1876.09 1817.95 1881.93 1824.8C1891.09 1835.55 1900.26 1846.31 1911.1 1854.85C1915.7 1858.48 1916.55 1865.43 1912.41 1869.57L1870.56 1911.43C1866.42 1915.57 1859.46 1914.71 1855.84 1910.11C1847.3 1899.27 1836.53 1890.1 1825.79 1880.94Z" fill="#777777"/>
<path d="M1650.05 1657.79C1648.67 1656.2 1648.61 1653.95 1649.94 1652.63L1653.62 1648.95C1654.94 1647.62 1657.19 1647.68 1658.78 1649.06C1684.99 1671.61 1715.42 1688.33 1747.68 1697.86C1748.95 1698.24 1749.99 1699.28 1750.37 1700.55C1759.9 1732.81 1776.62 1763.24 1799.17 1789.45C1800.54 1791.04 1800.6 1793.29 1799.28 1794.61L1795.6 1798.29C1794.28 1799.61 1792.03 1799.56 1790.44 1798.18C1764.23 1775.63 1733.8 1758.91 1701.54 1749.38C1700.27 1749 1699.23 1747.96 1698.85 1746.69C1689.32 1714.43 1672.6 1684 1650.05 1657.79Z" fill="#777777"/>
<path d="M1870.66 1878.41C1869.29 1876.82 1869.23 1874.57 1870.55 1873.24L1874.23 1869.57C1875.56 1868.24 1877.81 1868.3 1879.4 1869.67C1905.6 1892.23 1936.04 1908.95 1968.29 1918.48C1969.57 1918.86 1970.61 1919.9 1970.98 1921.17C1980.52 1953.42 1997.23 1983.86 2019.79 2010.06C2021.16 2011.66 2021.22 2013.91 2019.9 2015.23L2016.22 2018.91C2014.9 2020.23 2012.65 2020.17 2011.05 2018.8C1984.85 1996.24 1954.41 1979.53 1922.16 1969.99C1920.89 1969.62 1919.85 1968.58 1919.47 1967.3C1909.94 1935.05 1893.22 1904.61 1870.66 1878.41Z" fill="#777777"/>
<path fill-rule="evenodd" clip-rule="evenodd" d="M631.646 1201.59C658.329 1180.17 680.672 1153.84 697.474 1124.02L698.291 1122.58L699.739 1121.76C729.552 1104.96 755.881 1082.61 777.31 1055.93L863.93 1142.55C837.247 1163.98 814.904 1190.31 798.102 1220.12L797.285 1221.57L795.837 1222.39C766.024 1239.19 739.695 1261.53 718.266 1288.22L631.646 1201.59ZM700.778 1162.94C706.62 1156.09 712.454 1149.25 718.708 1142.99C724.962 1136.74 731.807 1130.9 738.66 1125.06C749.404 1115.9 760.168 1106.73 768.711 1095.89C772.336 1091.29 779.287 1090.44 783.428 1094.58L825.285 1136.43C829.426 1140.57 828.569 1147.52 823.971 1151.15C813.133 1159.69 803.957 1170.46 794.798 1181.2C788.956 1188.05 783.122 1194.9 776.868 1201.15C770.614 1207.41 763.769 1213.24 756.916 1219.08C746.172 1228.24 735.408 1237.42 726.865 1248.26C723.24 1252.85 716.289 1253.71 712.148 1249.57L670.291 1207.71C666.15 1203.57 667.007 1196.62 671.605 1193C682.443 1184.45 691.619 1173.69 700.778 1162.94Z" fill="#777777"/>
<path fill-rule="evenodd" clip-rule="evenodd" d="M411.029 1422.21C437.712 1400.78 460.055 1374.45 476.857 1344.64L477.673 1343.19L479.122 1342.38C508.935 1325.57 535.264 1303.23 556.693 1276.55L643.313 1363.17C616.63 1384.6 594.286 1410.93 577.484 1440.74L576.668 1442.19L575.22 1443C545.406 1459.81 519.077 1482.15 497.649 1508.83L411.029 1422.21ZM480.16 1383.56C486.002 1376.71 491.837 1369.86 498.091 1363.61C504.345 1357.36 511.19 1351.52 518.043 1345.68C528.786 1336.52 539.551 1327.35 548.094 1316.51C551.719 1311.91 558.67 1311.05 562.81 1315.19L604.668 1357.05C608.808 1361.19 607.952 1368.14 603.354 1371.77C592.516 1380.31 583.34 1391.07 574.181 1401.82C568.339 1408.67 562.504 1415.52 556.251 1421.77C549.997 1428.02 543.152 1433.86 536.299 1439.7C525.555 1448.86 514.79 1458.04 506.247 1468.87C502.623 1473.47 495.671 1474.33 491.531 1470.19L449.673 1428.33C445.533 1424.19 446.39 1417.24 450.988 1413.61C461.826 1405.07 471.002 1394.31 480.16 1383.56Z" fill="#777777"/>
<path d="M703.307 1207.82C704.902 1206.45 707.15 1206.39 708.473 1207.71L712.152 1211.39C713.476 1212.71 713.416 1214.96 712.044 1216.56C689.489 1242.76 672.77 1273.2 663.238 1305.45C662.861 1306.72 661.822 1307.76 660.547 1308.14C628.295 1317.67 597.858 1334.39 571.654 1356.95C570.06 1358.32 567.812 1358.38 566.488 1357.05L562.809 1353.38C561.486 1352.05 561.545 1349.8 562.918 1348.21C585.473 1322.01 602.192 1291.57 611.723 1259.32C612.1 1258.04 613.139 1257 614.414 1256.63C646.666 1247.09 677.103 1230.37 703.307 1207.82Z" fill="#777777"/>
<path fill-rule="evenodd" clip-rule="evenodd" d="M190.411 1642.83C217.095 1621.4 239.438 1595.07 256.24 1565.26L257.056 1563.81L258.504 1562.99C288.318 1546.19 314.647 1523.85 336.075 1497.17L422.696 1583.79C396.013 1605.21 373.669 1631.54 356.867 1661.36L356.051 1662.8L354.603 1663.62C324.789 1680.42 298.46 1702.77 277.032 1729.45L190.411 1642.83ZM259.543 1604.18C265.385 1597.33 271.22 1590.48 277.474 1584.23C283.728 1577.97 290.572 1572.14 297.426 1566.3C308.169 1557.14 318.934 1547.96 327.477 1537.12C331.102 1532.53 338.053 1531.67 342.193 1535.81L384.051 1577.67C388.191 1581.81 387.335 1588.76 382.737 1592.38C371.899 1600.93 362.722 1611.69 353.564 1622.44C347.722 1629.29 341.887 1636.13 335.633 1642.39C329.379 1648.64 322.535 1654.48 315.682 1660.32C304.938 1669.48 294.173 1678.65 285.63 1689.49C282.005 1694.09 275.054 1694.95 270.914 1690.8L229.056 1648.95C224.916 1644.81 225.772 1637.86 230.371 1634.23C241.208 1625.69 250.385 1614.92 259.543 1604.18Z" fill="#777777"/>
<path d="M482.69 1428.44C484.284 1427.06 486.533 1427.01 487.856 1428.33L491.535 1432.01C492.858 1433.33 492.799 1435.58 491.427 1437.17C468.871 1463.38 452.153 1493.81 442.621 1526.07C442.244 1527.34 441.205 1528.38 439.93 1528.76C407.678 1538.29 377.241 1555.01 351.037 1577.56C349.443 1578.94 347.194 1579 345.871 1577.67L342.192 1573.99C340.869 1572.67 340.928 1570.42 342.3 1568.83C364.856 1542.62 381.574 1512.19 391.106 1479.93C391.483 1478.66 392.522 1477.62 393.797 1477.24C426.049 1467.71 456.486 1450.99 482.69 1428.44Z" fill="#777777"/>
<path fill-rule="evenodd" clip-rule="evenodd" d="M-30.2059 1863.45C-3.52265 1842.02 18.8208 1815.69 35.6228 1785.88L36.4389 1784.43L37.8871 1783.61C67.7008 1766.81 94.0298 1744.47 115.458 1717.78L202.079 1804.4C175.396 1825.83 153.052 1852.16 136.25 1881.97L135.434 1883.42L133.986 1884.24C104.172 1901.04 77.843 1923.38 56.4147 1950.07L-30.2059 1863.45ZM38.9261 1824.8C44.7681 1817.94 50.6028 1811.1 56.8567 1804.84C63.1106 1798.59 69.9552 1792.76 76.8083 1786.91C87.552 1777.76 98.3168 1768.58 106.86 1757.74C110.485 1753.14 117.436 1752.29 121.576 1756.43L163.434 1798.29C167.574 1802.43 166.718 1809.38 162.119 1813C151.282 1821.54 142.105 1832.31 132.947 1843.05C127.105 1849.91 121.27 1856.75 115.016 1863C108.762 1869.26 101.918 1875.09 95.0645 1880.93C84.3209 1890.09 73.5561 1899.27 65.013 1910.11C61.3883 1914.71 54.4371 1915.56 50.2968 1911.42L8.43893 1869.56C4.29872 1865.42 5.15519 1858.47 9.75348 1854.85C20.5913 1846.3 29.7677 1835.54 38.9261 1824.8Z" fill="#777777"/>
<path d="M262.073 1649.05C263.667 1647.68 265.915 1647.62 267.239 1648.95L270.918 1652.62C272.241 1653.95 272.181 1656.2 270.809 1657.79C248.254 1684 231.535 1714.43 222.004 1746.68C221.627 1747.96 220.588 1749 219.313 1749.37C187.06 1758.91 156.624 1775.63 130.419 1798.18C128.825 1799.55 126.577 1799.61 125.254 1798.29L121.575 1794.61C120.251 1793.29 120.311 1791.04 121.683 1789.44C144.238 1763.24 160.957 1732.8 170.489 1700.55C170.866 1699.28 171.905 1698.24 173.18 1697.86C205.432 1688.33 235.869 1671.61 262.073 1649.05Z" fill="#777777"/>
<path d="M41.4559 1869.67C43.0501 1868.3 45.2983 1868.24 46.6214 1869.56L50.3008 1873.24C51.6239 1874.57 51.5643 1876.81 50.1922 1878.41C27.637 1904.61 10.9182 1935.05 1.38657 1967.3C1.00976 1968.58 -0.0295385 1969.62 -1.30455 1969.99C-33.5567 1979.52 -63.9932 1996.24 -90.1977 2018.8C-91.7919 2020.17 -94.0401 2020.23 -95.3632 2018.91L-99.0426 2015.23C-100.366 2013.9 -100.306 2011.66 -98.934 2010.06C-76.3788 1983.86 -59.66 1953.42 -50.1284 1921.17C-49.7516 1919.89 -48.7123 1918.85 -47.4373 1918.48C-15.1851 1908.95 15.2514 1892.23 41.4559 1869.67Z" fill="#777777"/>
<path d="M1766.25 130.41C1759.78 134.939 1753.11 139.129 1746.28 142.962L1752.15 148.831C1758.94 144.94 1765.56 140.708 1772 136.152L1766.25 130.41Z" fill="#1E1E1E" fill-opacity="0.3"/>
<path d="M1784.76 148.917C1780.21 155.348 1775.97 161.974 1772.08 168.764L1777.95 174.633C1781.78 167.798 1785.97 161.129 1790.5 154.658L1784.76 148.917Z" fill="#1E1E1E" fill-opacity="0.3"/>
<path d="M1903.64 41.5211C1910.11 36.9922 1916.78 32.8025 1923.61 28.9691L1917.75 23.1003C1910.96 26.9917 1904.33 31.2237 1897.9 35.7796L1903.64 41.5211Z" fill="#1E1E1E" fill-opacity="0.3"/>
<path d="M1885.13 23.0148C1889.69 16.5835 1893.92 9.95786 1897.81 3.16721L1891.94 -2.70171C1888.11 4.13327 1883.92 10.8022 1879.39 17.2733L1885.13 23.0148Z" fill="#1E1E1E" fill-opacity="0.3"/>
<path d="M1703 249.586L1697.13 243.717C1690.34 247.609 1683.71 251.841 1677.28 256.397L1683.02 262.138C1689.49 257.609 1696.16 253.42 1703 249.586Z" fill="#1E1E1E" fill-opacity="0.3"/>
<path d="M1658.77 237.89L1664.52 243.632C1669.07 237.201 1673.3 230.575 1677.2 223.784L1671.33 217.915C1667.49 224.75 1663.3 231.419 1658.77 237.89Z" fill="#1E1E1E" fill-opacity="0.3"/>
<path d="M1525.66 363.58C1532.5 359.746 1539.17 355.556 1545.64 351.028L1551.38 356.769C1544.95 361.325 1538.32 365.557 1531.53 369.448L1525.66 363.58Z" fill="#1E1E1E" fill-opacity="0.3"/>
<path d="M1557.33 395.25C1561.17 388.415 1565.36 381.746 1569.89 375.275L1564.14 369.534C1559.59 375.965 1555.36 382.591 1551.46 389.382L1557.33 395.25Z" fill="#1E1E1E" fill-opacity="0.3"/>
<path d="M1476.51 464.335L1482.38 470.203C1475.55 474.037 1468.88 478.227 1462.41 482.755L1456.66 477.014C1463.09 472.458 1469.72 468.226 1476.51 464.335Z" fill="#1E1E1E" fill-opacity="0.3"/>
<path d="M1456.58 444.402L1450.71 438.533C1446.88 445.368 1442.69 452.037 1438.16 458.508L1443.9 464.249C1448.45 457.818 1452.69 451.192 1456.58 444.402Z" fill="#1E1E1E" fill-opacity="0.3"/>
<path d="M1325.02 571.645C1318.55 576.174 1311.88 580.363 1305.05 584.197L1310.91 590.066C1317.7 586.174 1324.33 581.942 1330.76 577.386L1325.02 571.645Z" fill="#1E1E1E" fill-opacity="0.3"/>
<path d="M1349.27 595.892C1344.74 602.364 1340.55 609.032 1336.72 615.867L1330.85 609.999C1334.74 603.208 1338.97 596.582 1343.53 590.151L1349.27 595.892Z" fill="#1E1E1E" fill-opacity="0.3"/>
<path d="M1255.89 684.952L1261.76 690.821C1254.93 694.654 1248.26 698.844 1241.79 703.373L1236.05 697.631C1242.48 693.075 1249.1 688.843 1255.89 684.952Z" fill="#1E1E1E" fill-opacity="0.3"/>
<path d="M1235.96 665.019L1230.09 659.15C1226.26 665.985 1222.07 672.654 1217.54 679.125L1223.28 684.866C1227.84 678.435 1232.07 671.809 1235.96 665.019Z" fill="#1E1E1E" fill-opacity="0.3"/>
<path d="M1104.4 792.262C1097.93 796.791 1091.26 800.981 1084.43 804.814L1090.3 810.683C1097.09 806.791 1103.71 802.559 1110.14 798.003L1104.4 792.262Z" fill="#1E1E1E" fill-opacity="0.3"/>
<path d="M1128.65 816.51C1124.12 822.981 1119.93 829.65 1116.1 836.485L1110.23 830.616C1114.12 823.825 1118.35 817.2 1122.91 810.768L1128.65 816.51Z" fill="#1E1E1E" fill-opacity="0.3"/>
<path d="M804.814 836.486L810.683 830.617C806.792 823.827 802.56 817.201 798.004 810.77L792.262 816.511C796.791 822.982 800.981 829.651 804.814 836.486Z" fill="#1E1E1E" fill-opacity="0.3"/>
<path d="M679.125 703.374C672.654 698.846 665.985 694.656 659.15 690.823L665.019 684.954C671.809 688.845 678.435 693.077 684.866 697.633L679.125 703.374Z" fill="#1E1E1E" fill-opacity="0.3"/>
<path d="M703.373 679.126C698.844 672.655 694.655 665.986 690.821 659.151L684.952 665.02C688.844 671.811 693.076 678.437 697.632 684.868L703.373 679.126Z" fill="#1E1E1E" fill-opacity="0.3"/>
<path d="M816.51 792.264C822.981 796.793 829.65 800.982 836.485 804.816L830.616 810.685C823.825 806.793 817.2 802.561 810.768 798.005L816.51 792.264Z" fill="#1E1E1E" fill-opacity="0.3"/>
<path d="M609.999 590.067L615.867 584.199C609.033 580.365 602.364 576.175 595.893 571.647L590.151 577.388C596.582 581.944 603.208 586.176 609.999 590.067Z" fill="#1E1E1E" fill-opacity="0.3"/>
<path d="M590.066 610L584.197 615.869C580.364 609.034 576.174 602.365 571.645 595.894L577.387 590.153C581.943 596.584 586.174 603.209 590.066 610Z" fill="#1E1E1E" fill-opacity="0.3"/>
<path d="M458.508 482.757C452.037 478.228 445.368 474.039 438.533 470.205L444.402 464.337C451.192 468.228 457.818 472.46 464.249 477.016L458.508 482.757Z" fill="#1E1E1E" fill-opacity="0.3"/>
<path d="M482.756 458.509C478.227 452.038 474.037 445.369 470.204 438.534L464.335 444.403C468.227 451.194 472.458 457.819 477.014 464.251L482.756 458.509Z" fill="#1E1E1E" fill-opacity="0.3"/>
<path d="M389.381 369.45L395.25 363.581C388.415 359.748 381.746 355.558 375.275 351.029L369.534 356.771C375.965 361.327 382.591 365.559 389.381 369.45Z" fill="#1E1E1E" fill-opacity="0.3"/>
<path d="M369.449 389.383L363.58 395.252C359.747 388.417 355.557 381.748 351.028 375.277L356.769 369.535C361.325 375.967 365.557 382.592 369.449 389.383Z" fill="#1E1E1E" fill-opacity="0.3"/>
<path d="M237.891 262.14C231.42 257.611 224.751 253.422 217.915 249.588L223.784 243.719C230.575 247.611 237.201 251.843 243.632 256.399L237.891 262.14Z" fill="#1E1E1E" fill-opacity="0.3"/>
<path d="M262.139 237.892C257.61 231.421 253.42 224.752 249.587 217.917L243.718 223.786C247.609 230.577 251.841 237.202 256.397 243.634L262.139 237.892Z" fill="#1E1E1E" fill-opacity="0.3"/>
<path d="M168.764 148.833L174.633 142.964C167.798 139.131 161.129 134.941 154.658 130.412L148.917 136.154C155.348 140.71 161.974 144.942 168.764 148.833Z" fill="#1E1E1E" fill-opacity="0.3"/>
<path d="M148.832 168.766L142.963 174.635C139.129 167.8 134.94 161.131 130.411 154.66L136.152 148.918C140.708 155.35 144.94 161.975 148.832 168.766Z" fill="#1E1E1E" fill-opacity="0.3"/>
<path d="M17.2734 41.5229C10.8023 36.9941 4.1333 32.8044 -2.70171 28.9711L3.16716 23.1022C9.95784 26.9937 16.5835 31.2255 23.0148 35.7815L17.2734 41.5229Z" fill="#1E1E1E" fill-opacity="0.3"/>
<path d="M41.5214 17.2749C36.9926 10.8038 32.8029 4.13482 28.9696 -2.70019L23.1007 3.16867C26.9921 9.95935 31.224 16.585 35.78 23.0163L41.5214 17.2749Z" fill="#1E1E1E" fill-opacity="0.3"/>
<path d="M1766.25 1790.37C1759.78 1785.84 1753.11 1781.66 1746.28 1777.82L1752.15 1771.95C1758.94 1775.84 1765.56 1780.08 1772 1784.63L1766.25 1790.37Z" fill="#1E1E1E" fill-opacity="0.3"/>
<path d="M1784.76 1771.87C1780.21 1765.44 1775.97 1758.81 1772.08 1752.02L1777.95 1746.15C1781.78 1752.99 1785.97 1759.65 1790.5 1766.13L1784.76 1771.87Z" fill="#1E1E1E" fill-opacity="0.3"/>
<path d="M1903.64 1879.26C1910.11 1883.79 1916.78 1887.98 1923.61 1891.81L1917.75 1897.68C1910.96 1893.79 1904.33 1889.56 1897.9 1885L1903.64 1879.26Z" fill="#1E1E1E" fill-opacity="0.3"/>
<path d="M1885.13 1897.77C1889.69 1904.2 1893.92 1910.83 1897.81 1917.62L1891.94 1923.49C1888.11 1916.65 1883.92 1909.98 1879.39 1903.51L1885.13 1897.77Z" fill="#1E1E1E" fill-opacity="0.3"/>
<path d="M1703 1671.2L1697.13 1677.07C1690.34 1673.18 1683.71 1668.94 1677.28 1664.39L1683.02 1658.65C1689.49 1663.17 1696.16 1667.36 1703 1671.2Z" fill="#1E1E1E" fill-opacity="0.3"/>
<path d="M1658.77 1682.89L1664.52 1677.15C1669.07 1683.58 1673.3 1690.21 1677.2 1697L1671.33 1702.87C1667.49 1696.03 1663.3 1689.36 1658.77 1682.89Z" fill="#1E1E1E" fill-opacity="0.3"/>
<path d="M1525.66 1557.2C1532.5 1561.04 1539.17 1565.23 1545.64 1569.76L1551.38 1564.02C1544.95 1559.46 1538.32 1555.23 1531.53 1551.34L1525.66 1557.2Z" fill="#1E1E1E" fill-opacity="0.3"/>
<path d="M1557.33 1525.53C1561.17 1532.37 1565.36 1539.04 1569.89 1545.51L1564.14 1551.25C1559.59 1544.82 1555.36 1538.19 1551.46 1531.4L1557.33 1525.53Z" fill="#1E1E1E" fill-opacity="0.3"/>
<path d="M1476.51 1456.45L1482.38 1450.58C1475.55 1446.75 1468.88 1442.56 1462.41 1438.03L1456.66 1443.77C1463.09 1448.33 1469.72 1452.56 1476.51 1456.45Z" fill="#1E1E1E" fill-opacity="0.3"/>
<path d="M1456.58 1476.38L1450.71 1482.25C1446.88 1475.42 1442.69 1468.75 1438.16 1462.28L1443.9 1456.53C1448.45 1462.97 1452.69 1469.59 1456.58 1476.38Z" fill="#1E1E1E" fill-opacity="0.3"/>
<path d="M1325.02 1349.14C1318.55 1344.61 1311.88 1340.42 1305.05 1336.59L1310.91 1330.72C1317.7 1334.61 1324.33 1338.84 1330.76 1343.4L1325.02 1349.14Z" fill="#1E1E1E" fill-opacity="0.3"/>
<path d="M1349.27 1324.89C1344.74 1318.42 1340.55 1311.75 1336.72 1304.92L1330.85 1310.79C1334.74 1317.58 1338.97 1324.2 1343.53 1330.63L1349.27 1324.89Z" fill="#1E1E1E" fill-opacity="0.3"/>
<path d="M1255.89 1235.83L1261.76 1229.96C1254.93 1226.13 1248.26 1221.94 1241.79 1217.41L1236.05 1223.15C1242.48 1227.71 1249.1 1231.94 1255.89 1235.83Z" fill="#1E1E1E" fill-opacity="0.3"/>
<path d="M1235.96 1255.77L1230.09 1261.63C1226.26 1254.8 1222.07 1248.13 1217.54 1241.66L1223.28 1235.92C1227.84 1242.35 1232.07 1248.97 1235.96 1255.77Z" fill="#1E1E1E" fill-opacity="0.3"/>
<path d="M1104.4 1128.52C1097.93 1123.99 1091.26 1119.8 1084.43 1115.97L1090.3 1110.1C1097.09 1113.99 1103.71 1118.22 1110.14 1122.78L1104.4 1128.52Z" fill="#1E1E1E" fill-opacity="0.3"/>
<path d="M1128.65 1104.27C1124.12 1097.8 1119.93 1091.13 1116.1 1084.3L1110.23 1090.17C1114.12 1096.96 1118.35 1103.58 1122.91 1110.02L1128.65 1104.27Z" fill="#1E1E1E" fill-opacity="0.3"/>
<path d="M804.814 1084.3L810.683 1090.17C806.792 1096.96 802.56 1103.58 798.004 1110.01L792.262 1104.27C796.791 1097.8 800.981 1091.13 804.814 1084.3Z" fill="#1E1E1E" fill-opacity="0.3"/>
<path d="M679.125 1217.41C672.654 1221.94 665.985 1226.13 659.15 1229.96L665.019 1235.83C671.809 1231.94 678.435 1227.71 684.866 1223.15L679.125 1217.41Z" fill="#1E1E1E" fill-opacity="0.3"/>
<path d="M703.373 1241.66C698.844 1248.13 694.655 1254.8 690.821 1261.63L684.952 1255.76C688.844 1248.97 693.076 1242.35 697.632 1235.92L703.373 1241.66Z" fill="#1E1E1E" fill-opacity="0.3"/>
<path d="M816.51 1128.52C822.981 1123.99 829.65 1119.8 836.485 1115.97L830.616 1110.1C823.825 1113.99 817.2 1118.22 810.768 1122.78L816.51 1128.52Z" fill="#1E1E1E" fill-opacity="0.3"/>
<path d="M609.999 1330.72L615.867 1336.59C609.033 1340.42 602.364 1344.61 595.893 1349.14L590.151 1343.4C596.582 1338.84 603.208 1334.61 609.999 1330.72Z" fill="#1E1E1E" fill-opacity="0.3"/>
<path d="M590.066 1310.78L584.197 1304.92C580.364 1311.75 576.174 1318.42 571.645 1324.89L577.387 1330.63C581.943 1324.2 586.174 1317.57 590.066 1310.78Z" fill="#1E1E1E" fill-opacity="0.3"/>
<path d="M458.508 1438.03C452.037 1442.56 445.368 1446.75 438.533 1450.58L444.402 1456.45C451.192 1452.56 457.818 1448.32 464.249 1443.77L458.508 1438.03Z" fill="#1E1E1E" fill-opacity="0.3"/>
<path d="M482.756 1462.27C478.227 1468.75 474.037 1475.41 470.204 1482.25L464.335 1476.38C468.227 1469.59 472.458 1462.96 477.014 1456.53L482.756 1462.27Z" fill="#1E1E1E" fill-opacity="0.3"/>
<path d="M389.381 1551.33L395.25 1557.2C388.415 1561.04 381.746 1565.23 375.275 1569.75L369.534 1564.01C375.965 1559.46 382.591 1555.23 389.381 1551.33Z" fill="#1E1E1E" fill-opacity="0.3"/>
<path d="M369.449 1531.4L363.58 1525.53C359.747 1532.37 355.557 1539.04 351.028 1545.51L356.769 1551.25C361.325 1544.82 365.557 1538.19 369.449 1531.4Z" fill="#1E1E1E" fill-opacity="0.3"/>
<path d="M237.891 1658.64C231.42 1663.17 224.751 1667.36 217.915 1671.2L223.784 1677.06C230.575 1673.17 237.201 1668.94 243.632 1664.39L237.891 1658.64Z" fill="#1E1E1E" fill-opacity="0.3"/>
<path d="M262.139 1682.89C257.61 1689.36 253.42 1696.03 249.587 1702.87L243.718 1697C247.609 1690.21 251.841 1683.58 256.397 1677.15L262.139 1682.89Z" fill="#1E1E1E" fill-opacity="0.3"/>
<path d="M168.764 1771.95L174.633 1777.82C167.798 1781.65 161.129 1785.84 154.658 1790.37L148.917 1784.63C155.348 1780.07 161.974 1775.84 168.764 1771.95Z" fill="#1E1E1E" fill-opacity="0.3"/>
<path d="M148.832 1752.02L142.963 1746.15C139.129 1752.98 134.94 1759.65 130.411 1766.12L136.152 1771.87C140.708 1765.43 144.94 1758.81 148.832 1752.02Z" fill="#1E1E1E" fill-opacity="0.3"/>
<path d="M17.2734 1879.26C10.8023 1883.79 4.1333 1887.98 -2.70171 1891.81L3.16716 1897.68C9.95784 1893.79 16.5835 1889.56 23.0148 1885L17.2734 1879.26Z" fill="#1E1E1E" fill-opacity="0.3"/>
<path d="M41.5214 1903.51C36.9926 1909.98 32.8029 1916.65 28.9696 1923.48L23.1007 1917.62C26.9921 1910.82 31.224 1904.2 35.78 1897.77L41.5214 1903.51Z" fill="#1E1E1E" fill-opacity="0.3"/>
<path d="M988.195 923.925C986.823 925.519 986.763 927.767 988.086 929.09L991.766 932.77C993.089 934.093 995.337 934.033 996.931 932.661C1023.14 910.106 1053.57 893.387 1085.82 883.855C1087.1 883.479 1088.14 882.439 1088.52 881.164C1098.05 848.912 1114.77 818.476 1137.32 792.271C1138.69 790.677 1138.75 788.429 1137.43 787.106L1133.75 783.426C1132.43 782.103 1130.18 782.163 1128.58 783.535C1102.38 806.09 1071.94 822.809 1039.69 832.34C1038.42 832.717 1037.38 833.756 1037 835.031C1027.47 867.284 1010.75 897.72 988.195 923.925Z" fill="#777777"/>
<path d="M923.925 932.663C925.519 934.036 927.767 934.095 929.09 932.772L932.77 929.093C934.093 927.77 934.033 925.521 932.661 923.927C910.106 897.723 893.387 867.286 883.855 835.034C883.479 833.759 882.439 832.72 881.164 832.343C848.912 822.811 818.476 806.092 792.271 783.537C790.677 782.165 788.429 782.106 787.106 783.429L783.426 787.108C782.103 788.431 782.163 790.679 783.535 792.274C806.09 818.478 822.809 848.915 832.34 881.167C832.717 882.442 833.756 883.481 835.031 883.858C867.284 893.39 897.72 910.108 923.925 932.663Z" fill="#777777"/>
<path d="M988.195 995.942C986.823 994.347 986.763 992.099 988.086 990.776L991.766 987.097C993.089 985.773 995.337 985.833 996.931 987.205C1023.14 1009.76 1053.57 1026.48 1085.82 1036.01C1087.1 1036.39 1088.14 1037.43 1088.52 1038.7C1098.05 1070.95 1114.77 1101.39 1137.32 1127.6C1138.69 1129.19 1138.75 1131.44 1137.43 1132.76L1133.75 1136.44C1132.43 1137.76 1130.18 1137.7 1128.58 1136.33C1102.38 1113.78 1071.94 1097.06 1039.69 1087.53C1038.42 1087.15 1037.38 1086.11 1037 1084.83C1027.47 1052.58 1010.75 1022.15 988.195 995.942Z" fill="#777777"/>
<path d="M923.925 987.203C925.519 985.83 927.767 985.771 929.09 987.094L932.77 990.773C934.093 992.097 934.033 994.345 932.661 995.939C910.106 1022.14 893.387 1052.58 883.855 1084.83C883.479 1086.11 882.439 1087.15 881.164 1087.52C848.912 1097.05 818.476 1113.77 792.271 1136.33C790.677 1137.7 788.429 1137.76 787.106 1136.44L783.426 1132.76C782.103 1131.43 782.163 1129.19 783.535 1127.59C806.09 1101.39 822.809 1070.95 832.34 1038.7C832.717 1037.42 833.756 1036.39 835.031 1036.01C867.284 1026.48 897.72 1009.76 923.925 987.203Z" fill="#777777"/>
<path d="M920.113 939.767C919.614 939.451 919.143 939.104 918.707 938.728C912.117 933.056 905.254 927.767 898.157 922.884C898.564 919.913 898.92 916.935 899.227 913.953C906.698 918.909 913.928 924.293 920.874 930.08C920.785 931.224 920.694 932.368 920.602 933.511C920.436 935.598 920.27 937.683 920.113 939.767Z" fill="#1E1E1E" fill-opacity="0.3"/>
<path d="M921.99 910.636C922.097 905.861 922.031 901.109 921.68 896.397C913.302 883.985 906.157 870.879 900.362 857.298H899.048C899.737 863.602 900.201 869.92 900.442 876.24C906.617 888.207 913.828 899.723 921.99 910.636Z" fill="#1E1E1E" fill-opacity="0.3"/>
<path d="M1020.49 857.298C1014.63 871.036 1007.39 884.288 998.885 896.827C998.554 901.508 998.5 906.228 998.614 910.972C1006.76 900.124 1013.96 888.677 1020.13 876.781C1020.37 870.281 1020.84 863.782 1021.55 857.298H1020.49Z" fill="#1E1E1E" fill-opacity="0.3"/>
<path d="M1021.39 914.113C1013.91 919.082 1006.68 924.48 999.738 930.283C999.823 931.359 999.908 932.435 999.994 933.511C1000.16 935.648 1000.33 937.785 1000.49 939.919C1001.09 939.563 1001.64 939.163 1002.15 938.725C1008.67 933.117 1015.45 927.884 1022.46 923.046C1022.05 920.074 1021.69 917.096 1021.39 914.113Z" fill="#1E1E1E" fill-opacity="0.3"/>
<path d="M1022.55 996.885C1015.51 992.03 1008.7 986.776 1002.15 981.143C1001.66 980.718 1001.12 980.328 1000.55 979.981C1000.37 982.347 1000.18 984.716 999.994 987.085C999.927 987.934 999.859 988.782 999.792 989.631C1006.74 995.434 1013.98 1000.83 1021.46 1005.8C1021.77 1002.83 1022.14 999.852 1022.55 996.885Z" fill="#1E1E1E" fill-opacity="0.3"/>
<path d="M1020.8 1063.3C1014.88 1049.27 1007.51 1035.75 998.831 1022.96C998.534 1018.31 998.503 1013.63 998.632 1008.92C1006.76 1019.75 1013.94 1031.17 1020.11 1043.04C1020.33 1049.8 1020.81 1056.55 1021.55 1063.3H1020.8Z" fill="#1E1E1E" fill-opacity="0.3"/>
<path d="M900.053 1063.3C905.915 1049.43 913.185 1036.04 921.738 1023.39C922.053 1018.71 922.096 1013.99 921.973 1009.26C913.83 1020.14 906.635 1031.63 900.471 1043.57C900.239 1050.15 899.765 1056.73 899.048 1063.3H900.053Z" fill="#1E1E1E" fill-opacity="0.3"/>
<path d="M898.065 997.047C905.194 992.147 912.089 986.837 918.707 981.141C919.128 980.778 919.581 980.441 920.061 980.134C920.233 982.449 920.418 984.767 920.602 987.085C920.675 988.001 920.748 988.917 920.821 989.833C913.869 995.622 906.633 1001.01 899.156 1005.96C898.842 1002.99 898.479 1000.01 898.065 997.047Z" fill="#1E1E1E" fill-opacity="0.3"/>
</g>
<defs>
<clipPath id="clip0_1828_2927">
<rect width="1920" height="1920" fill="white"/>
</clipPath>
</defs>
</svg>
