<svg width="791" height="189" viewBox="0 0 791 189" fill="none" xmlns="http://www.w3.org/2000/svg">
<path d="M760.085 78.704C769.575 76.3846 784.376 84.5024 790.59 88.8512V83.5358C783.811 68.5565 760.085 66.6237 755.001 66.1404C749.917 65.6572 728.733 72.9053 722.801 84.9854C718.056 94.6495 701.052 100.931 693.143 102.864C646.538 114.461 594.002 89.8175 580.444 79.187C552.481 59.8588 532.144 21.6858 508.418 6.22317C484.692 -9.23943 434.697 8.15599 426.224 14.9209C417.75 21.6858 411.819 14.9209 404.192 13.4712C398.091 12.3115 396.566 15.8872 396.566 17.8201C403.345 13.9543 407.582 21.6858 415.208 26.5177C422.834 31.3497 425.376 23.6186 445.713 14.9209C457.576 12.5048 470.569 16.5316 472.829 21.6858C471.981 27.9674 449.103 17.8201 434.697 31.3499C430.63 37.1483 420.01 36.6651 415.208 35.6987C404.192 33.7659 383.642 35.6987 379.619 64.6909C372.162 118.423 356.175 124.769 349.114 121.226C346.289 121.226 339.454 113.108 334.709 80.6367C328.777 40.0475 293.188 41.0139 277.088 40.5307C260.988 40.0475 255.904 59.8589 249.125 65.6574C242.346 71.4558 227.093 55.0269 201.673 59.8589C176.252 64.691 158.457 92.7168 149.983 101.898C141.51 111.079 144.899 95.616 133.036 96.5824C123.546 97.3556 122.303 101.737 122.868 103.831C124.845 100.609 129.647 95.7127 133.036 101.898C137.273 109.629 150.831 114.944 158.457 109.629C164.558 105.377 168.343 106.569 169.473 107.696C151.17 127.411 111.57 119.454 94.0574 113.011C101.684 123.159 136.426 126.541 158.457 121.226C180.488 115.911 180.488 94.1664 189.809 80.6367C199.13 67.107 222.009 74.8382 237.262 78.7039C252.514 82.5695 260.988 70.0062 273.698 59.8589C286.409 49.7116 306.746 62.7581 316.067 70.0062C325.388 77.2543 328.777 111.079 330.472 117.36C332.166 123.642 338.098 131.373 364.366 143.453C385.381 153.117 420.01 142.648 434.697 136.205C440.064 122.998 434.697 111.079 418.598 114.461C392.838 128.764 393.177 94.0053 396.566 74.8382C380.975 43.14 435.262 40.0475 464.355 42.4636C473.168 23.1354 486.104 25.3904 491.471 28.9339C552.481 100.448 620.27 113.494 633.828 116.877C650.622 121.067 700.77 115.911 720.259 109.629C735.85 104.604 743.138 93.039 744.832 87.8848C745.962 85.7909 750.595 81.0233 760.085 78.704Z" fill="url(#paint0_linear_670_614)"/>
<path d="M740.595 95.4798V96.0992C739.466 109.951 732.8 137.945 715.175 139.104C704.049 139.836 694.003 138.843 686.021 138.054C679.417 137.401 674.225 136.888 671 137.606C670.422 137.794 669.891 137.973 669.417 138.138C669.875 137.914 670.404 137.739 671 137.606C676.631 135.778 686.763 133.088 692.296 133.789C699.922 134.755 700.769 126.058 689.754 126.541C678.738 127.024 567.733 118.81 525.365 73.3886C495.792 41.6839 493.054 45.9999 489.774 51.1692C488.355 53.4057 486.835 55.8019 482.997 55.51C481.408 55.3892 479.184 55.1627 476.496 54.889C457.682 52.9732 416.161 48.7451 410.971 62.2748C410.124 61.9527 408.429 60.7286 408.429 58.4092C402.78 61.4695 392.668 69.1363 397.413 75.3214C397.021 74.9664 396.622 74.5684 396.228 74.1319C392.021 65.0905 393.595 58.4259 398.654 53.5798C399.544 52.9242 400.539 52.2779 401.65 51.6443V51.178C415.68 41.6555 445.378 40.8876 464.355 42.4636C473.168 23.1354 486.104 25.3904 491.471 28.9339C549.383 96.8167 613.403 112.019 631.351 116.281C632.311 116.509 633.139 116.705 633.828 116.877C650.622 121.067 700.77 115.911 720.259 109.629C730.147 106.442 736.696 100.624 740.595 95.4798Z" fill="#989898"/>
<path d="M434.697 136.205C435.545 145.547 430.461 165.004 403.345 168.097C369.451 171.962 333.861 165.681 325.388 146.836C321.58 138.366 322.564 128.921 323.494 119.991C324.634 109.051 325.693 98.8845 317.762 92.2335C309.288 77.7374 285.562 60.342 269.462 72.4221C280.76 71.7779 304.034 75.1281 306.746 93.6832C300.532 86.7572 285.053 73.8718 272.851 77.7374C260.649 81.6031 244.041 94.1664 237.262 99.9648C237.341 99.5841 237.425 99.1979 237.509 98.8089C238.642 93.6022 239.886 87.8847 229.636 87.8847C228.928 87.9856 228.203 88.0653 227.454 88.1477C221.024 88.8546 212.88 89.75 199.978 105.763C195.459 113.495 183.709 129.923 172.862 133.789C176.252 130.89 181.844 124.512 177.099 122.192C174.32 120.834 167.446 122.87 159.183 125.319C149.812 128.096 138.652 131.403 129.647 130.89C117.784 128.957 88.1261 123.642 80.4998 109.629C67.5069 86.113 39.6568 42.1736 32.2 54.5436C33.0026 56.5271 36.0019 58.7996 39.7039 61.6046C47.7261 67.683 59.0481 76.2617 58.4683 89.8175C53.6665 80.7977 40.1651 61.7917 24.5736 57.926C15.597 55.7005 11.6537 54.0899 9.10074 53.0472C6.11087 51.8261 5.02785 51.3837 0 51.6444C5.08418 48.9062 15.2526 46.3291 24.5736 46.3292C24.7819 46.3566 24.9929 46.3842 25.2066 46.4121C36.2928 47.8612 54.5037 50.2416 68.6364 77.7374C74.2855 88.0458 86.7701 109.242 91.5153 111.562C92.6153 112.099 93.7668 112.699 94.9151 113.322C94.6237 113.218 94.3377 113.115 94.0574 113.011C101.684 123.159 136.426 126.541 158.457 121.226C173.747 117.537 178.426 105.935 182.973 94.6569C184.978 89.6851 186.957 84.7764 189.809 80.6367C198.249 68.3865 217.803 73.5661 232.748 77.5247C234.309 77.9382 235.819 78.3383 237.262 78.7039C249.206 81.731 256.993 74.6836 265.913 66.611C268.383 64.3749 270.941 62.06 273.698 59.8589C286.409 49.7116 306.746 62.7581 316.067 70.0062C323.341 75.6627 327.003 97.5057 329.065 109.811C329.646 113.274 330.1 115.981 330.472 117.36C332.166 123.642 338.098 131.373 364.366 143.453C385.381 153.117 420.01 142.648 434.697 136.205Z" fill="#989898"/>
<path d="M405.402 182.931C366.863 186.74 327.404 180.881 309.776 163.447C310.11 164.527 310.509 165.595 310.983 166.647C319.456 185.492 355.046 191.774 388.94 187.908C395.722 187.134 401.125 185.338 405.402 182.931Z" fill="url(#paint1_linear_670_614)"/>
<path fill-rule="evenodd" clip-rule="evenodd" d="M720.097 138.009L720.259 138.138C711.503 141.198 692.635 146.836 687.212 144.903C682.182 143.11 671.553 145.042 664.326 146.356C661.814 146.812 659.713 147.194 658.401 147.319C653.317 147.802 640.607 146.352 632.133 138.138C625.354 131.566 616.881 131.212 613.491 131.856C620.758 127.367 634.515 134.229 644.868 139.393C649.002 141.455 652.594 143.247 655.012 143.936C661.791 145.869 666.875 140.554 668.57 137.655L672.225 137.217C671.798 137.35 671.388 137.48 671 137.606C674.225 136.888 679.417 137.401 686.021 138.054C694.003 138.843 704.049 139.836 715.175 139.104C716.921 138.989 718.56 138.611 720.097 138.009ZM671 137.606C670.404 137.739 669.875 137.914 669.417 138.138C669.891 137.973 670.422 137.794 671 137.606Z" fill="#989898"/>
<path d="M725.343 57.926C742.29 48.6484 775.902 59.8588 790.59 66.6236C773.643 50.1947 736.359 47.7787 718.564 50.6779C700.77 53.5772 687.212 69.0397 671.112 76.771C655.012 84.5022 635.523 74.3549 627.896 66.6236C620.27 58.8924 603.323 63.2412 597.391 64.6908C592.646 65.8505 576.772 55.8321 569.428 50.6779C569.993 51.3222 572.818 54.2536 579.597 60.8252C588.07 69.0397 602.475 68.5565 610.949 66.6236C619.423 64.6908 622.812 69.0397 627.896 76.771C632.98 84.5022 648.233 87.4014 671.112 86.9182C693.991 86.435 704.159 69.5229 725.343 57.926Z" fill="url(#paint2_linear_670_614)"/>
<defs>
<linearGradient id="paint0_linear_670_614" x1="790.59" y1="94.4981" x2="0" y2="94.4981" gradientUnits="userSpaceOnUse">
<stop stop-color="#989898"/>
<stop offset="0.405" stop-color="white"/>
</linearGradient>
<linearGradient id="paint1_linear_670_614" x1="790.59" y1="94.4981" x2="0" y2="94.4981" gradientUnits="userSpaceOnUse">
<stop stop-color="#989898"/>
<stop offset="0.405" stop-color="white"/>
</linearGradient>
<linearGradient id="paint2_linear_670_614" x1="790.59" y1="94.4981" x2="0" y2="94.4981" gradientUnits="userSpaceOnUse">
<stop stop-color="#989898"/>
<stop offset="0.405" stop-color="white"/>
</linearGradient>
</defs>
</svg>
