<svg width="44" height="246" viewBox="0 0 44 246" fill="none" xmlns="http://www.w3.org/2000/svg">
<path d="M43.0021 245.489H0.882065L0.882065 237.793H37.6981V227.601H43.0021V245.489Z" fill="#E2E2E2"/>
<path d="M43.5741 212.67C43.5741 215.651 43.0194 218.026 41.9101 219.794C40.8007 221.562 39.2061 222.827 37.1261 223.59C35.0461 224.353 32.5847 224.734 29.7421 224.734H13.9861C11.1434 224.734 8.71673 224.353 6.70607 223.59C4.66073 222.827 3.10073 221.562 2.02606 219.794C0.951398 218.026 0.414064 215.651 0.414064 212.67C0.414064 209.619 0.951397 207.227 2.02606 205.494C3.10073 203.726 4.66073 202.461 6.70607 201.698C8.71673 200.901 11.1434 200.502 13.9861 200.502H29.7941C32.6021 200.502 35.0461 200.901 37.1261 201.698C39.1714 202.461 40.7661 203.726 41.9101 205.494C43.0194 207.227 43.5741 209.619 43.5741 212.67ZM37.9061 212.67C37.9061 211.387 37.6287 210.451 37.0741 209.862C36.5194 209.238 35.7567 208.822 34.7861 208.614C33.8154 208.406 32.7581 208.302 31.6141 208.302H12.2181C11.0394 208.302 9.98206 208.406 9.04606 208.614C8.11007 208.822 7.38207 209.238 6.86206 209.862C6.3074 210.451 6.03007 211.387 6.03007 212.67C6.03007 213.883 6.3074 214.802 6.86206 215.426C7.38207 216.05 8.11007 216.466 9.04606 216.674C9.98206 216.882 11.0394 216.986 12.2181 216.986H31.6141C32.7581 216.986 33.8154 216.899 34.7861 216.726C35.7567 216.518 36.5194 216.102 37.0741 215.478C37.6287 214.854 37.9061 213.918 37.9061 212.67Z" fill="#E2E2E2"/>
<path d="M43.5741 184.253C43.5741 187.026 42.9847 189.228 41.8061 190.857C40.6274 192.486 38.9634 193.665 36.8141 194.393C34.6301 195.086 32.0647 195.433 29.1181 195.433H14.9741C11.9581 195.433 9.35806 195.086 7.17407 194.393C4.99007 193.7 3.32606 192.486 2.18206 190.753C1.0034 188.985 0.414063 186.558 0.414062 183.473C0.414062 180.596 0.899397 178.308 1.87007 176.609C2.84073 174.91 4.24473 173.697 6.08206 172.969C7.88473 172.206 10.0861 171.825 12.6861 171.825H14.8701L14.8701 179.157H12.4781C11.1261 179.157 9.96473 179.261 8.99406 179.469C8.0234 179.642 7.2954 180.024 6.81006 180.613C6.29006 181.168 6.03006 182.086 6.03006 183.369C6.03006 184.721 6.3594 185.709 7.01806 186.333C7.67673 186.922 8.5434 187.304 9.61806 187.477C10.6927 187.616 11.8714 187.685 13.1541 187.685H30.7821C32.2381 187.685 33.5034 187.564 34.5781 187.321C35.6527 187.078 36.4847 186.628 37.0741 185.969C37.6287 185.31 37.9061 184.374 37.9061 183.161C37.9061 181.913 37.5941 180.96 36.9701 180.301C36.3461 179.642 35.4794 179.192 34.3701 178.949C33.2607 178.672 31.9434 178.533 30.4181 178.533H26.4661V183.057H21.6301L21.6301 171.617H43.0021V176.557L38.8421 177.129C40.2287 177.684 41.3727 178.533 42.2741 179.677C43.1407 180.786 43.5741 182.312 43.5741 184.253Z" fill="#E2E2E2"/>
<path d="M43.0021 152.91H0.882061L0.882061 145.318H43.0021V152.91Z" fill="#E2E2E2"/>
<path d="M43.0021 138.797H0.882061L0.88206 133.441L24.9061 123.197L0.88206 123.197L0.88206 116.853H43.0021V121.949L17.8341 132.245H43.0021V138.797Z" fill="#E2E2E2"/>
<path d="M43.0021 93.397L0.882059 99.377L0.882059 92.929L28.1821 89.445L0.98606 85.077L0.98606 79.825L28.1821 75.353L0.882058 71.921L0.882058 65.577L43.0021 71.453V77.693L14.7661 82.373L43.0021 87.001L43.0021 93.397Z" fill="#E2E2E2"/>
<path d="M43.0021 60.5894L0.882057 60.5894L0.882057 52.9974L43.0021 52.9974V60.5894Z" fill="#E2E2E2"/>
<path d="M43.0021 42.2651H6.55006L6.55006 48.9731H0.882057L0.882056 27.9651H6.55006V34.5691L43.0021 34.5691V42.2651Z" fill="#E2E2E2"/>
<path d="M43.0021 24.0294L0.882056 24.0294L0.882055 16.3854H18.5101V7.75338L0.882055 7.75338L0.882055 0.109377L43.0021 0.109375L43.0021 7.75337L23.9701 7.75338V16.3854L43.0021 16.3854V24.0294Z" fill="#E2E2E2"/>
</svg>
