<svg width="1920" height="915" viewBox="0 0 1920 915" preserveAspectRatio="none" fill="none" xmlns="http://www.w3.org/2000/svg">
<g clip-path="url(#clip0_1253_8286)">
<path fill-rule="evenodd" clip-rule="evenodd" d="M1920 -164.75H0V915.25H1920V-164.75ZM446 30.25C444.895 30.25 444 31.145 444 32.25V697.25C444 698.355 444.895 699.25 446 699.25H1474C1475.1 699.25 1476 698.355 1476 697.25V32.25C1476 31.145 1475.1 30.25 1474 30.25H446Z" fill="#1E1E1E"/>
<path d="M264 81.77C264 80.872 264.599 80.084 265.465 79.843L444 30.25H445V699.25H444L265.465 649.657C264.599 649.416 264 648.628 264 647.73V81.77Z" fill="url(#paint0_linear_1253_8286)"/>
<path d="M1653.77 81.77C1653.77 80.872 1653.17 80.084 1652.31 79.843L1473.77 30.25H1472.77V699.25H1474L1652.31 649.657C1653.17 649.417 1653.77 648.629 1653.77 647.73V81.77Z" fill="url(#paint1_linear_1253_8286)"/>
<path d="M514.696 760.464C515.544 769.806 510.46 789.263 483.344 792.356C449.45 796.222 413.861 789.94 405.387 771.095C401.579 762.625 402.563 753.179 403.493 744.249C404.633 733.309 405.692 723.143 397.761 716.492C389.287 701.995 365.561 684.6 349.461 696.68C360.759 696.036 384.034 699.386 386.745 717.941C380.531 711.015 365.053 698.13 352.851 701.995C340.649 705.861 324.04 718.425 317.261 724.223C317.34 723.842 317.424 723.456 317.509 723.067C318.641 717.86 319.885 712.143 309.635 712.143C308.928 712.244 308.202 712.323 307.453 712.406C301.024 713.113 292.88 714.008 279.978 730.021C275.458 737.753 263.708 754.182 252.862 758.048C256.251 755.149 261.844 748.77 257.099 746.451C254.319 745.092 247.446 747.129 239.182 749.578C229.811 752.355 218.652 755.662 209.646 755.149C197.783 753.216 168.126 747.9 160.5 733.887C147.507 710.371 119.657 666.431 112.2 678.801C113.003 680.785 116.002 683.057 119.704 685.862C127.726 691.941 139.048 700.52 138.468 714.076C133.666 705.056 120.165 686.049 104.573 682.184C95.597 679.958 91.6537 678.347 89.1007 677.305C86.1109 676.083 85.0278 675.641 80 675.902C85.0842 673.164 95.2526 670.586 104.573 670.586C104.782 670.614 104.993 670.641 105.207 670.669C116.293 672.119 134.503 674.499 148.636 701.995C154.285 712.304 166.77 733.5 171.515 735.82C172.615 736.358 173.767 736.957 174.915 737.58C174.623 737.476 174.337 737.373 174.057 737.27C181.683 747.417 216.425 750.8 238.457 745.484C253.747 741.795 258.425 730.193 262.973 718.915C264.978 713.943 266.957 709.034 269.809 704.895C278.248 692.644 297.803 697.824 312.747 701.783C314.308 702.196 315.819 702.596 317.261 702.962C329.205 705.989 336.992 698.941 345.912 690.869C348.383 688.633 350.941 686.318 353.698 684.116C366.408 673.969 386.745 687.016 396.066 694.264C403.34 699.921 407.002 721.764 409.065 734.069C409.645 737.532 410.099 740.239 410.471 741.619C412.166 747.9 418.097 755.632 444.365 767.712C465.38 777.376 500.009 766.907 514.696 760.464Z" fill="#545454"/>
<path d="M485.399 807.187C446.86 810.995 407.401 805.137 389.773 787.703C390.107 788.782 390.507 789.85 390.98 790.902C399.454 809.748 435.043 816.029 468.937 812.164C475.719 811.39 481.122 809.593 485.399 807.187Z" fill="url(#paint2_linear_1253_8286)"/>
<path fill-rule="evenodd" clip-rule="evenodd" d="M800.093 762.263L800.255 762.393C791.499 765.453 772.631 771.09 767.208 769.158C762.178 767.365 751.549 769.297 744.323 770.61C741.81 771.067 739.709 771.449 738.398 771.574C733.314 772.057 720.603 770.607 712.13 762.393C705.351 755.821 696.877 755.467 693.488 756.111C700.754 751.622 714.512 758.484 724.865 763.648C728.999 765.71 732.59 767.502 735.008 768.191C741.787 770.124 746.871 764.809 748.566 761.909L752.222 761.472C751.794 761.605 751.385 761.735 750.997 761.861C754.221 761.143 759.413 761.656 766.017 762.309C774 763.098 784.045 764.091 795.171 763.359C796.918 763.244 798.557 762.866 800.093 762.263ZM750.997 761.861C750.4 761.994 749.871 762.169 749.413 762.393C749.887 762.228 750.418 762.049 750.997 761.861Z" fill="#545454"/>
<path d="M706.715 699.258C707.1 699.827 707.493 700.419 707.896 701.032C712.98 708.763 728.232 711.663 751.111 711.18C763.587 710.916 772.283 705.767 781.048 699.258H754.535C753.405 699.884 752.264 700.478 751.111 701.032C740.831 705.968 729.171 703.616 720.098 699.258H706.715Z" fill="url(#paint3_linear_1253_8286)"/>
<path d="M606.91 699.258C650.368 743.265 758.868 751.279 769.752 750.802C780.768 750.318 779.92 759.016 772.294 758.05C766.761 757.349 756.63 760.038 750.999 761.867C750.402 762 749.873 762.175 749.415 762.399C749.889 762.234 750.42 762.055 750.999 761.867C754.223 761.149 759.415 761.662 766.019 762.315H766.022C774.004 763.104 784.048 764.097 795.173 763.365C812.798 762.205 819.464 734.211 820.594 720.359V719.74C816.694 724.884 810.146 730.702 800.257 733.889C780.768 740.171 730.62 745.328 713.826 741.137C713.138 740.966 712.31 740.769 711.349 740.541C698.501 737.489 662.045 728.832 621.122 699.258H606.91Z" fill="url(#paint4_linear_1253_8286)"/>
<path d="M457.987 699.258C450.031 743.501 435.696 748.79 429.115 745.486C426.29 745.486 419.455 737.368 414.71 704.897C409.037 666.08 376.242 665.268 359.307 664.849C358.533 664.829 357.792 664.811 357.089 664.79C345.91 664.454 340.042 673.903 335.23 681.652C333.111 685.063 331.198 688.145 329.126 689.917C326.187 692.43 321.658 690.768 315.398 688.471C307.216 685.468 296.077 681.381 281.674 684.118C260.89 688.069 245.204 707.524 235.542 719.508C233.386 722.182 231.53 724.484 229.985 726.158C225.594 730.915 224.389 729.057 222.596 726.296C220.929 723.727 218.755 720.377 213.038 720.843C203.547 721.616 202.305 725.997 202.869 728.091C204.847 724.869 209.648 719.973 213.038 726.158C217.275 733.889 230.832 739.205 238.459 733.889C244.56 729.637 248.344 730.829 249.474 731.956C231.171 751.671 191.571 743.715 174.059 737.272C181.685 747.419 216.427 750.802 238.459 745.486C253.749 741.798 258.427 730.195 262.974 718.917C264.979 713.945 266.959 709.036 269.811 704.897C278.25 692.646 297.805 697.827 312.749 701.786C314.31 702.199 315.82 702.598 317.263 702.964C329.207 705.991 336.993 698.944 345.913 690.871C348.384 688.635 350.942 686.32 353.7 684.118C366.41 673.971 386.747 687.018 396.068 694.266C403.342 699.922 407.003 721.764 409.066 734.071C409.646 737.534 410.1 740.242 410.473 741.621C412.168 747.902 418.099 755.634 444.367 767.714C465.382 777.378 500.011 766.909 514.698 760.466C520.065 747.258 514.698 735.339 498.599 738.721C472.91 752.985 473.176 718.459 476.538 699.258H457.987Z" fill="url(#paint5_linear_1253_8286)"/>
<path d="M621.121 699.258C662.048 728.835 698.506 737.491 711.351 740.541C712.311 740.769 713.139 740.966 713.827 741.137C730.621 745.328 780.769 740.171 800.258 733.889C815.85 728.864 823.137 717.299 824.832 712.145C825.961 710.051 830.594 705.283 840.084 702.964C849.575 700.644 864.375 708.762 870.589 713.111V707.796C868.998 704.282 866.476 701.486 863.48 699.258H812.108C808.133 702.034 804.691 705.394 802.8 709.245C798.055 718.91 781.051 725.191 773.143 727.124C726.538 738.721 674.001 714.078 660.444 703.447C658.543 702.133 656.678 700.733 654.845 699.258H621.121Z" fill="url(#paint6_linear_1253_8286)"/>
<path d="M1405.3 760.468C1404.46 769.81 1409.54 789.267 1436.66 792.36C1470.55 796.226 1506.14 789.944 1514.61 771.099C1518.42 762.629 1517.44 753.183 1516.51 744.253C1515.37 733.313 1514.31 723.147 1522.24 716.496C1530.71 701.999 1554.44 684.604 1570.54 696.684C1559.24 696.04 1535.97 699.39 1533.26 717.945C1539.47 711.019 1554.95 698.134 1567.15 701.999C1579.35 705.865 1595.96 718.429 1602.74 724.227C1602.66 723.846 1602.58 723.46 1602.49 723.071C1601.36 717.864 1600.12 712.147 1610.37 712.147C1611.07 712.248 1611.8 712.327 1612.55 712.41C1618.98 713.117 1627.12 714.012 1640.02 730.025C1644.54 737.757 1656.29 754.186 1667.14 758.052C1663.75 755.153 1658.16 748.774 1662.9 746.455C1665.68 745.096 1672.55 747.133 1680.82 749.582C1690.19 752.359 1701.35 755.666 1710.35 755.153C1722.22 753.22 1751.87 747.904 1759.5 733.891C1772.49 710.375 1800.34 666.435 1807.8 678.805C1807 680.789 1804 683.061 1800.3 685.866C1792.27 691.945 1780.95 700.524 1781.53 714.08C1786.33 705.06 1799.84 686.053 1815.43 682.188C1824.4 679.962 1828.35 678.351 1830.9 677.309C1833.89 676.087 1834.97 675.645 1840 675.906C1834.92 673.168 1824.75 670.59 1815.43 670.59C1815.22 670.618 1815.01 670.645 1814.79 670.673C1803.71 672.123 1785.5 674.503 1771.36 701.999C1765.71 712.308 1753.23 733.504 1748.48 735.824C1747.39 736.362 1746.23 736.961 1745.09 737.584C1745.38 737.48 1745.66 737.377 1745.94 737.274C1738.32 747.421 1703.57 750.804 1681.54 745.488C1666.25 741.799 1661.57 730.197 1657.03 718.919C1655.02 713.947 1653.04 709.038 1650.19 704.899C1641.75 692.648 1622.2 697.828 1607.25 701.787C1605.69 702.2 1604.18 702.6 1602.74 702.966C1590.79 705.993 1583.01 698.945 1574.09 690.873C1571.62 688.637 1569.06 686.322 1566.3 684.12C1553.59 673.973 1533.25 687.02 1523.93 694.268C1516.66 699.925 1513 721.768 1510.93 734.073C1510.35 737.536 1509.9 740.243 1509.53 741.623C1507.83 747.904 1501.9 755.636 1475.64 767.716C1454.62 777.38 1419.99 766.911 1405.3 760.468Z" fill="#545454"/>
<path d="M1434.6 807.191C1473.14 810.999 1512.6 805.141 1530.22 787.707C1529.89 788.786 1529.49 789.854 1529.02 790.906C1520.54 809.752 1484.95 816.033 1451.06 812.168C1444.28 811.394 1438.88 809.597 1434.6 807.191Z" fill="url(#paint7_linear_1253_8286)"/>
<path fill-rule="evenodd" clip-rule="evenodd" d="M1119.9 762.267L1119.74 762.397C1128.5 765.457 1147.37 771.094 1152.79 769.162C1157.82 767.369 1168.45 769.301 1175.67 770.614C1178.19 771.071 1180.29 771.453 1181.6 771.578C1186.68 772.061 1199.39 770.611 1207.87 762.397C1214.65 755.825 1223.12 755.471 1226.51 756.115C1219.24 751.626 1205.49 758.488 1195.13 763.652C1191 765.714 1187.41 767.506 1184.99 768.195C1178.21 770.128 1173.13 764.813 1171.43 761.913L1167.78 761.476C1168.2 761.609 1168.61 761.739 1169 761.865C1165.78 761.147 1160.58 761.66 1153.98 762.313C1146 763.102 1135.95 764.095 1124.83 763.363C1123.08 763.248 1121.44 762.87 1119.9 762.267ZM1169 761.865C1169.6 761.998 1170.13 762.173 1170.58 762.397C1170.11 762.232 1169.58 762.053 1169 761.865Z" fill="#545454"/>
<path d="M1213.28 699.258C1212.9 699.827 1212.51 700.419 1212.1 701.032C1207.02 708.763 1191.77 711.663 1168.89 711.18C1156.41 710.916 1147.72 705.767 1138.95 699.258H1165.47C1166.6 699.884 1167.74 700.478 1168.89 701.032C1179.17 705.968 1190.83 703.616 1199.9 699.258H1213.28Z" fill="url(#paint8_linear_1253_8286)"/>
<path d="M1313.09 699.258C1269.63 743.265 1161.13 751.279 1150.25 750.802C1139.23 750.318 1140.08 759.016 1147.71 758.05C1153.24 757.349 1163.37 760.038 1169 761.867C1169.6 762 1170.13 762.175 1170.58 762.399C1170.11 762.234 1169.58 762.055 1169 761.867C1165.78 761.149 1160.58 761.662 1153.98 762.315C1146 763.104 1135.95 764.097 1124.83 763.365C1107.2 762.205 1100.54 734.211 1099.41 720.359V719.74C1103.31 724.884 1109.85 730.702 1119.74 733.889C1139.23 740.171 1189.38 745.328 1206.17 741.137C1206.86 740.966 1207.69 740.769 1208.65 740.541C1221.5 737.489 1257.96 728.832 1298.88 699.258H1313.09Z" fill="url(#paint9_linear_1253_8286)"/>
<path d="M1462.02 699.258C1469.97 743.501 1484.31 748.79 1490.89 745.486C1493.71 745.486 1500.55 737.368 1505.29 704.897C1510.97 666.08 1543.76 665.268 1560.7 664.849C1561.47 664.829 1562.21 664.811 1562.91 664.79C1574.09 664.454 1579.96 673.903 1584.77 681.652C1586.89 685.063 1588.8 688.145 1590.88 689.917C1593.81 692.43 1598.34 690.768 1604.6 688.471C1612.79 685.468 1623.93 681.381 1638.33 684.118C1659.11 688.069 1674.8 707.524 1684.46 719.508C1686.62 722.182 1688.47 724.484 1690.02 726.158C1694.41 730.915 1695.61 729.057 1697.41 726.296C1699.07 723.727 1701.25 720.377 1706.96 720.843C1716.46 721.616 1717.7 725.997 1717.13 728.091C1715.16 724.869 1710.35 719.973 1706.96 726.158C1702.73 733.889 1689.17 739.205 1681.54 733.889C1675.44 729.637 1671.66 730.829 1670.53 731.956C1688.83 751.671 1728.43 743.715 1745.94 737.272C1738.32 747.419 1703.58 750.802 1681.54 745.486C1666.25 741.798 1661.57 730.195 1657.03 718.917C1655.02 713.945 1653.04 709.036 1650.19 704.897C1641.75 692.646 1622.2 697.827 1607.25 701.786C1605.69 702.199 1604.18 702.598 1602.74 702.964C1590.8 705.991 1583.01 698.944 1574.09 690.871C1571.62 688.635 1569.06 686.32 1566.3 684.118C1553.59 673.971 1533.26 687.018 1523.93 694.266C1516.66 699.922 1513 721.764 1510.94 734.071C1510.36 737.534 1509.9 740.242 1509.53 741.621C1507.83 747.902 1501.9 755.634 1475.64 767.714C1454.62 777.378 1419.99 766.909 1405.3 760.466C1399.94 747.258 1405.3 735.339 1421.4 738.721C1447.09 752.985 1446.83 718.459 1443.46 699.258H1462.02Z" fill="url(#paint10_linear_1253_8286)"/>
<path d="M1298.88 699.258C1257.95 728.835 1221.5 737.491 1208.65 740.541C1207.69 740.769 1206.86 740.966 1206.17 741.137C1189.38 745.328 1139.23 740.171 1119.74 733.889C1104.15 728.864 1096.86 717.299 1095.17 712.145C1094.04 710.051 1089.41 705.283 1079.92 702.964C1070.43 700.644 1055.63 708.762 1049.41 713.111V707.796C1051 704.282 1053.53 701.486 1056.52 699.258H1107.89C1111.87 702.034 1115.31 705.394 1117.2 709.245C1121.95 718.91 1138.95 725.191 1146.86 727.124C1193.46 738.721 1246 714.078 1259.56 703.447C1261.46 702.133 1263.32 700.733 1265.16 699.258H1298.88Z" fill="url(#paint11_linear_1253_8286)"/>
</g>
<defs>
<linearGradient id="paint0_linear_1253_8286" x1="264" y1="364.75" x2="443.772" y2="364.75" gradientUnits="userSpaceOnUse">
<stop stop-color="#1E1E1E"/>
<stop offset="1" stop-color="#363636"/>
</linearGradient>
<linearGradient id="paint1_linear_1253_8286" x1="1654" y1="364.75" x2="1474.23" y2="364.75" gradientUnits="userSpaceOnUse">
<stop stop-color="#1E1E1E"/>
<stop offset="1" stop-color="#363636"/>
</linearGradient>
<linearGradient id="paint2_linear_1253_8286" x1="4055.12" y1="264.078" x2="-2481.07" y2="264.078" gradientUnits="userSpaceOnUse">
<stop stop-color="#545454"/>
<stop offset="0.405" stop-color="#868686"/>
</linearGradient>
<linearGradient id="paint3_linear_1253_8286" x1="870.588" y1="718.759" x2="79.9995" y2="718.759" gradientUnits="userSpaceOnUse">
<stop stop-color="#545454"/>
<stop offset="0.405" stop-color="#868686"/>
</linearGradient>
<linearGradient id="paint4_linear_1253_8286" x1="870.588" y1="718.759" x2="79.9993" y2="718.759" gradientUnits="userSpaceOnUse">
<stop stop-color="#545454"/>
<stop offset="0.405" stop-color="#868686"/>
</linearGradient>
<linearGradient id="paint5_linear_1253_8286" x1="870.59" y1="718.758" x2="80.0008" y2="718.758" gradientUnits="userSpaceOnUse">
<stop stop-color="#545454"/>
<stop offset="0.405" stop-color="#868686"/>
</linearGradient>
<linearGradient id="paint6_linear_1253_8286" x1="870.589" y1="718.758" x2="80.0003" y2="718.758" gradientUnits="userSpaceOnUse">
<stop stop-color="#545454"/>
<stop offset="0.405" stop-color="#868686"/>
</linearGradient>
<linearGradient id="paint7_linear_1253_8286" x1="-2135.12" y1="264.082" x2="4401.07" y2="264.082" gradientUnits="userSpaceOnUse">
<stop stop-color="#545454"/>
<stop offset="0.405" stop-color="#868686"/>
</linearGradient>
<linearGradient id="paint8_linear_1253_8286" x1="1049.41" y1="718.759" x2="1840" y2="718.759" gradientUnits="userSpaceOnUse">
<stop stop-color="#545454"/>
<stop offset="0.405" stop-color="#868686"/>
</linearGradient>
<linearGradient id="paint9_linear_1253_8286" x1="1049.41" y1="718.759" x2="1840" y2="718.759" gradientUnits="userSpaceOnUse">
<stop stop-color="#545454"/>
<stop offset="0.405" stop-color="#868686"/>
</linearGradient>
<linearGradient id="paint10_linear_1253_8286" x1="1049.41" y1="718.758" x2="1840" y2="718.758" gradientUnits="userSpaceOnUse">
<stop stop-color="#545454"/>
<stop offset="0.405" stop-color="#868686"/>
</linearGradient>
<linearGradient id="paint11_linear_1253_8286" x1="1049.41" y1="718.758" x2="1840" y2="718.758" gradientUnits="userSpaceOnUse">
<stop stop-color="#545454"/>
<stop offset="0.405" stop-color="#868686"/>
</linearGradient>
<clipPath id="clip0_1253_8286">
<rect width="1920" height="915" fill="white"/>
</clipPath>
</defs>
</svg>
