<svg width="37" height="80" viewBox="0 0 37 80" fill="none" xmlns="http://www.w3.org/2000/svg">
<g id="Vector">
<path d="M30.6201 34.5272C30.4989 36.1 31.3273 37.4049 31.7567 37.8607C32.2619 37.2909 33.3025 35.8264 33.4238 34.5272C33.545 33.228 32.1609 31.5356 31.4536 30.8518C31.1505 31.3646 30.7717 32.5613 30.6201 34.5272Z" fill="#E2E2E2"/>
<path d="M26.9072 21.4495C28.362 22.9539 28.6752 25.5523 28.65 26.6635C29.4077 25.8087 29.9381 23.33 30.0139 22.1333C30.0897 20.9367 28.4226 16.8339 27.1345 15.6372C26.1039 14.6799 24.7349 12.0472 24.1793 10.8506C23.8004 15.1243 25.0886 19.5691 26.9072 21.4495Z" fill="#E2E2E2"/>
<path d="M7.96352 71.6234C8.32723 73.4697 9.58004 74.9 10.161 75.3843H7.96352C7.38258 75.3843 5.81152 75.0766 4.17479 73.8458C2.12887 72.3072 -0.144362 70.4268 0.00718695 62.905C0.128426 56.8875 2.38146 53.3887 3.49282 52.3915C3.24024 54.215 1.82578 58.9731 3.79592 64.358C5.69028 70.2558 7.50887 69.3156 7.96352 71.6234Z" fill="#E2E2E2"/>
<path d="M5.61449 41.0233C4.58396 43.0747 5.1851 46.1518 5.61449 47.434C6.37224 43.2457 9.02435 41.0233 9.479 38.63C9.93364 36.2367 9.78209 32.9887 9.479 34.5272C9.23652 35.7581 8.11505 36.9775 7.58463 37.4334C7.35731 37.7753 6.52379 38.4591 5.61449 41.0233Z" fill="#E2E2E2"/>
<path d="M5.69029 54.8703C4.23541 58.8363 6.29648 64.1586 7.50887 66.324C7.50887 60.8536 8.41815 59.6569 8.79702 57.6055C9.1759 55.5541 14.7074 47.6049 16.3745 45.3826C18.0415 43.1602 18.4962 38.801 17.89 34.0998C17.405 30.3389 13.6971 26.3216 11.9038 24.783C14.177 28.0311 14.859 33.416 14.2528 37.1769C13.7678 40.1857 10.9692 44.6988 9.63054 46.5792C8.92332 47.6904 7.05421 49.8273 5.69029 54.8703Z" fill="#E2E2E2"/>
<path d="M28.1195 60.939C28.4226 61.6912 28.5994 63.6458 28.65 64.529C29.8118 62.5631 32.272 58.3406 32.8176 57.1781C33.4995 55.7251 33.4995 52.1351 33.2722 48.6306C33.0904 45.827 31.1758 42.9608 30.2412 41.8781C30.999 49.8273 28.4226 53.2463 27.5133 54.6994C26.6041 56.1524 27.7407 59.9988 28.1195 60.939Z" fill="#E2E2E2"/>
<path d="M13.9497 70.6832C13.8285 73.0081 15.2126 76.5525 15.9198 78.0341C15.2631 77.6067 13.5102 76.0852 11.7522 73.4184C9.55478 70.0849 9.40323 65.4692 10.161 60.5117C10.9187 55.5541 16.6776 48.9725 18.5719 45.7245C20.4663 42.4764 21.3756 40.7669 21.2998 34.6982C21.2241 28.6294 19.8601 31.1082 17.2838 21.2786C14.7074 11.4489 17.5869 3.9271 18.5719 1.70474C19.36 -0.0731396 20.2137 -0.118726 20.5421 0.0807157C20.1127 0.992451 19.1781 3.39715 18.875 5.72208C18.5719 8.047 19.0013 11.1355 19.2539 12.3891C19.7086 15.5517 24.3308 25.0395 26.0736 28.202C27.6738 31.1058 28.1195 37.3479 27.7407 41.8781C27.4376 45.5022 24.6339 50.1122 23.27 51.9641C21.2998 54.9558 17.0716 61.3664 15.9198 63.0759C14.4801 65.2128 14.1012 67.7771 13.9497 70.6832Z" fill="#E2E2E2"/>
<path d="M29.1804 70.8542L27.3618 75.5553L28.9877 75.4302C30.1168 75.3434 31.2221 75.0228 32.2483 74.4843L32.5937 74.3032C33.4914 73.8322 34.2956 73.1615 34.9579 72.3313C35.6451 71.4701 36.1646 70.456 36.4831 69.3544L36.5715 69.0486C36.9442 67.7591 37.0759 66.3963 36.9582 65.0464L36.941 64.8494C36.7716 62.906 36.1363 61.0513 35.1033 59.4843L34.4846 58.5457L34.5588 60.3032C34.7445 64.7027 32.6446 68.8222 29.1804 70.8542Z" fill="#E2E2E2"/>
<path d="M23.7246 54.3574L23.3745 57.2347C23.2551 58.2161 22.9938 59.1687 22.6011 60.0546L22.1818 61.0007C21.848 61.7537 21.4228 62.4505 20.9185 63.0711L19.1781 65.2128L18.48 66.3427C17.7923 67.4557 17.335 68.7286 17.1418 70.0676L17.0968 70.3794C16.9695 71.2609 16.9586 72.1588 17.0642 73.0439L17.2921 74.9536C17.3872 75.7501 17.5757 76.5287 17.8528 77.2691L18.875 80C19.3231 79.27 19.9204 78.6724 20.6166 78.258L21.5281 77.7154C22.0312 77.4158 22.5047 77.0569 22.9405 76.6445L23.3567 76.2507C24.1992 75.4537 24.8876 74.47 25.3793 73.3607L25.796 72.4206C26.2792 71.3305 26.5625 70.1417 26.6288 68.9252L26.7622 66.4806C26.8081 65.6395 26.7497 64.7953 26.5888 63.9724L25.6947 59.4005L25.1437 57.4792C24.956 56.8248 24.7028 56.1965 24.3891 55.6067L23.7246 54.3574Z" fill="#E2E2E2"/>
<path d="M0.219539 60.1823L0.234501 60.1698C0.38605 62.8195 1.53782 68.9053 4.93252 72.0508C7.45195 74.3853 8.9029 75.2006 9.60753 75.3843L7.96352 75.3843C7.38258 75.3843 5.81152 75.0766 4.17479 73.8458C2.12887 72.3072 -0.144362 70.4268 0.00718695 62.905C0.0268002 61.9315 0.102204 61.024 0.219539 60.1823Z" fill="#1E1E1E" fill-opacity="0.15"/>
<path d="M21.2555 37.3987C21.2977 36.6016 21.3125 35.7105 21.2998 34.6982C21.2596 31.4778 20.8567 30.6643 20.1023 29.1414C19.4351 27.7943 18.493 25.8922 17.2838 21.2786C16.9568 20.0311 16.7177 18.8208 16.5515 17.6539C16.711 17.6618 17.0658 17.816 17.7384 18.3724C18.875 19.3126 21.6029 27.0054 22.3607 30.7663C22.9669 33.775 21.9565 36.4077 21.3756 37.3479L21.2555 37.3987Z" fill="#1E1E1E" fill-opacity="0.15"/>
<path d="M17.532 42.9216L17.5111 42.7328C13.3435 44.3569 8.41813 53.2463 7.35731 56.6653C6.55845 59.24 6.88019 63.7249 7.40235 66.1296C7.43848 66.1969 7.47404 66.2618 7.50887 66.324C7.50887 62.3126 7.99778 60.5993 8.40797 59.1618C8.55717 58.639 8.69597 58.1526 8.79702 57.6055C9.1759 55.5541 14.7074 47.6049 16.3745 45.3826C16.8633 44.7309 17.2479 43.8955 17.532 42.9216Z" fill="#1E1E1E" fill-opacity="0.15"/>
</g>
</svg>
