<svg width="50" height="51" viewBox="0 0 50 51" fill="none" xmlns="http://www.w3.org/2000/svg">
<path id="Subtract" fill-rule="evenodd" clip-rule="evenodd" d="M25 50.25C38.8071 50.25 50 39.0571 50 25.25C50 11.4429 38.8071 0.25 25 0.25C11.1929 0.25 0 11.4429 0 25.25C0 39.0571 11.1929 50.25 25 50.25ZM25.0177 13.9133C25.0322 10.8532 27.093 8.15577 30.2423 7.08258C30.7648 6.90855 31.3743 6.74902 31.6065 6.74902H32.0274L31.9403 7.73519C31.6356 11.3463 29.0668 14.2323 25.7579 14.6674L25.0177 14.7689V13.9133ZM27.2674 16.0305C27.9059 15.7694 28.8928 15.4359 29.4443 15.2908C30.228 15.0733 30.765 15.0298 31.7663 15.0878C33.3337 15.1603 34.3496 15.4504 35.5832 16.132C36.541 16.6541 38.0794 18.0608 38.0794 18.4089C38.0794 18.5249 37.7601 18.8584 37.3683 19.1485C35.9896 20.2072 34.9011 22.0635 34.5818 23.9053C34.2335 26.0082 34.9737 28.4881 36.4249 30.0834C37.0345 30.7505 38.4713 31.8527 38.9647 32.0122C39.1388 32.0702 38.6309 33.506 37.9343 34.8837C36.7007 37.3491 34.4512 40.0901 33.0725 40.8007C32.4775 41.1053 32.1437 41.1778 31.2584 41.1778C30.3441 41.1778 29.9522 41.0908 28.8202 40.6412C26.4982 39.713 25.0179 39.6985 22.6813 40.6122C20.7946 41.3518 19.5756 41.4388 18.4581 40.9167C17.4277 40.4237 16.3973 39.394 15.0476 37.4942C13.2625 34.9852 11.9128 31.9252 11.2742 28.9377C10.8824 27.0379 10.9114 23.5863 11.3468 22.0635C12.3482 18.5974 14.6557 16.1755 17.7034 15.3923C19.4595 14.9428 20.664 15.0878 23.3489 16.103C25.0614 16.7411 25.4968 16.7266 27.2674 16.0305Z" fill="#E2E2E2"/>
</svg>
