<svg width="100" height="100" viewBox="0 0 100 100" fill="none" xmlns="http://www.w3.org/2000/svg">
<path fill-rule="evenodd" clip-rule="evenodd" d="M50 100C77.6142 100 100 77.6142 100 50C100 22.3858 77.6142 0 50 0C22.3858 0 0 22.3858 0 50C0 77.6142 22.3858 100 50 100ZM74.1461 35.7624C75.1763 34.7103 75.1763 33.0276 74.1461 31.9754C73.0847 30.8912 71.3395 30.8912 70.2781 31.9754L43.4836 59.3429C41.915 60.9451 39.3359 60.9451 37.7672 59.3429L29.7219 51.1255C28.6605 50.0414 26.9153 50.0414 25.8539 51.1255C24.8237 52.1777 24.8237 53.8604 25.8539 54.9126L37.7672 67.0807C39.3359 68.6829 41.915 68.6829 43.4836 67.0807L74.1461 35.7624Z" fill="#E2E2E2"/>
<path d="M74.1461 35.7624C75.1763 34.7103 75.1763 33.0276 74.1461 31.9754C73.0847 30.8912 71.3395 30.8912 70.2781 31.9754L43.4836 59.3429C41.915 60.9451 39.3359 60.9451 37.7672 59.3429L29.7219 51.1255C28.6605 50.0414 26.9153 50.0414 25.8539 51.1255C24.8237 52.1777 24.8237 53.8604 25.8539 54.9126L37.7672 67.0807C39.3359 68.6829 41.915 68.6829 43.4836 67.0807L74.1461 35.7624Z" fill="#1E1E1E"/>
</svg>
