<svg width="100" height="100" viewBox="0 0 100 100" fill="none" xmlns="http://www.w3.org/2000/svg">
<path fill-rule="evenodd" clip-rule="evenodd" d="M50 100C77.6142 100 100 77.6142 100 50C100 22.3858 77.6142 0 50 0C22.3858 0 0 22.3858 0 50C0 77.6142 22.3858 100 50 100ZM69.1683 34.8477L58.032 45.984C55.814 48.202 55.814 51.798 58.032 54.016L69.1683 65.1523C70.2772 66.2612 70.2773 68.0593 69.1683 69.1683C68.0593 70.2773 66.2612 70.2772 65.1523 69.1683L54.016 58.032C51.798 55.814 48.202 55.814 45.984 58.032L34.8477 69.1683C33.7388 70.2772 31.9407 70.2773 30.8317 69.1683C29.7228 68.0593 29.7228 66.2612 30.8317 65.1523L41.968 54.016C44.186 51.798 44.186 48.202 41.968 45.984L30.8317 34.8477C29.7228 33.7388 29.7228 31.9407 30.8317 30.8317C31.9407 29.7228 33.7388 29.7228 34.8477 30.8317L45.984 41.968C48.202 44.186 51.798 44.186 54.016 41.968L65.1523 30.8317C66.2612 29.7228 68.0593 29.7228 69.1683 30.8317C70.2773 31.9407 70.2772 33.7388 69.1683 34.8477Z" fill="#E2E2E2"/>
<path d="M69.1683 34.8477L58.032 45.984C55.814 48.202 55.814 51.798 58.032 54.016L69.1683 65.1523C70.2772 66.2612 70.2773 68.0593 69.1683 69.1683C68.0593 70.2773 66.2612 70.2772 65.1523 69.1683L54.016 58.032C51.798 55.814 48.202 55.814 45.984 58.032L34.8477 69.1683C33.7388 70.2772 31.9407 70.2773 30.8317 69.1683C29.7228 68.0593 29.7228 66.2612 30.8317 65.1523L41.968 54.016C44.186 51.798 44.186 48.202 41.968 45.984L30.8317 34.8477C29.7228 33.7388 29.7228 31.9407 30.8317 30.8317C31.9407 29.7228 33.7388 29.7228 34.8477 30.8317L45.984 41.968C48.202 44.186 51.798 44.186 54.016 41.968L65.1523 30.8317C66.2612 29.7228 68.0593 29.7228 69.1683 30.8317C70.2773 31.9407 70.2772 33.7388 69.1683 34.8477Z" fill="#1E1E1E"/>
</svg>
