<svg width="100" height="100" viewBox="0 0 100 100" fill="none" xmlns="http://www.w3.org/2000/svg">
<path d="M31.0484 31.341H36.4641V55.7095H31.0484C30.3302 55.7095 29.6414 55.4242 29.1336 54.9165C28.6258 54.4087 28.3405 53.72 28.3405 53.0019V34.0486C28.3405 33.3305 28.6258 32.6418 29.1336 32.134C29.6414 31.6263 30.3302 31.341 31.0484 31.341Z" fill="#E2E2E2"/>
<path d="M68.2272 33.5612L71.6662 52.5145C71.7322 52.9076 71.7106 53.3105 71.6029 53.6943C71.4953 54.078 71.3042 54.4333 71.0434 54.7348C70.7887 55.0404 70.4699 55.2862 70.1096 55.4547C69.7492 55.6231 69.3561 55.7101 68.9583 55.7095H56.6105C55.7368 55.711 54.8764 55.9239 54.1028 56.33C53.3292 56.736 52.6653 57.3232 52.1678 58.0415C51.6703 58.7597 51.354 59.5876 51.2459 60.4545C51.1378 61.3214 51.241 62.2017 51.5468 63.02L52.982 66.8919C53.2643 67.6294 53.3907 68.4174 53.3531 69.2061C53.3155 69.9949 53.1148 70.7673 52.7637 71.4746C52.4126 72.1819 51.9186 72.8087 51.313 73.3155C50.7074 73.8223 50.0033 74.1981 49.2451 74.4191L41.8798 57.8485V31.341H65.5193C66.1605 31.3305 66.7846 31.548 67.2805 31.9545C67.7764 32.3611 68.1118 32.9305 68.2272 33.5612Z" fill="#E2E2E2"/>
<path fill-rule="evenodd" clip-rule="evenodd" d="M50 0C77.6142 0 100 22.3858 100 50C100 77.6142 77.6142 100 50 100C22.3858 100 0 77.6142 0 50C0 22.3858 22.3858 0 50 0ZM72.3972 60.3545C73.4734 59.8492 74.4255 59.1139 75.1864 58.2005C75.95 57.2871 76.5035 56.217 76.8076 55.066C77.1118 53.915 77.1592 52.7111 76.9465 51.5398L73.5075 32.5865C73.1654 30.7173 72.1788 29.0272 70.7193 27.8102C69.2598 26.5932 67.4197 25.9264 65.5193 25.9258H31.0484C28.8939 25.9258 26.8276 26.7816 25.3041 28.3049C23.7807 29.8282 22.9248 31.8943 22.9248 34.0486V53.0019C22.9248 55.1562 23.7807 57.2223 25.3041 58.7456C26.8276 60.2689 28.8939 61.1247 31.0484 61.1247H37.4118L45.1292 78.4805C45.3428 78.9556 45.6888 79.3589 46.1259 79.6423C46.5629 79.9256 47.0725 80.0769 47.5933 80.078C49.4023 80.0864 51.1863 79.6559 52.7923 78.8234C54.3983 77.991 55.7783 76.7814 56.8141 75.2984C57.8498 73.8155 58.5104 72.1034 58.739 70.3092C58.9677 68.5149 58.7576 66.6919 58.1269 64.9966L56.6105 61.1247H68.9583C70.1472 61.1227 71.3211 60.8598 72.3972 60.3545Z" fill="#E2E2E2"/>
<path fill-rule="evenodd" clip-rule="evenodd" d="M75.1864 58.2005C74.4255 59.1139 73.4734 59.8492 72.3972 60.3545C71.3211 60.8598 70.1472 61.1227 68.9583 61.1247H56.6105L58.1269 64.9966C58.7576 66.6919 58.9677 68.5149 58.739 70.3092C58.5104 72.1034 57.8498 73.8155 56.8141 75.2984C55.7783 76.7814 54.3983 77.991 52.7923 78.8234C51.1863 79.6559 49.4023 80.0864 47.5933 80.078C47.0725 80.0769 46.5629 79.9256 46.1259 79.6423C45.6888 79.3589 45.3428 78.9556 45.1292 78.4805L37.4118 61.1247H31.0484C28.8939 61.1247 26.8276 60.2689 25.3041 58.7456C23.7807 57.2223 22.9248 55.1562 22.9248 53.0019V34.0486C22.9248 31.8943 23.7807 29.8282 25.3041 28.3049C26.8276 26.7816 28.8939 25.9258 31.0484 25.9258H65.5193C67.4197 25.9264 69.2598 26.5932 70.7193 27.8102C72.1788 29.0272 73.1654 30.7173 73.5075 32.5865L76.9465 51.5398C77.1592 52.7111 77.1118 53.915 76.8076 55.066C76.5035 56.217 75.95 57.2871 75.1864 58.2005ZM31.0484 31.341H36.4641V55.7095H31.0484C30.3302 55.7095 29.6414 55.4242 29.1336 54.9165C28.6258 54.4087 28.3405 53.72 28.3405 53.0019V34.0486C28.3405 33.3305 28.6258 32.6418 29.1336 32.134C29.6414 31.6263 30.3302 31.341 31.0484 31.341ZM68.2272 33.5612L71.6662 52.5145C71.7322 52.9076 71.7106 53.3105 71.6029 53.6943C71.4953 54.078 71.3042 54.4333 71.0434 54.7348C70.7887 55.0404 70.4699 55.2862 70.1096 55.4547C69.7492 55.6231 69.3561 55.7101 68.9583 55.7095H56.6105C55.7368 55.711 54.8764 55.9239 54.1028 56.33C53.3292 56.736 52.6653 57.3232 52.1678 58.0415C51.6703 58.7597 51.354 59.5876 51.2459 60.4545C51.1378 61.3214 51.241 62.2017 51.5468 63.02L52.982 66.8919C53.2643 67.6294 53.3907 68.4174 53.3531 69.2061C53.3155 69.9949 53.1148 70.7673 52.7637 71.4746C52.4126 72.1819 51.9186 72.8087 51.313 73.3155C50.7074 73.8223 50.0033 74.1981 49.2451 74.4191L41.8798 57.8485V31.341H65.5193C66.1605 31.3305 66.7846 31.548 67.2805 31.9545C67.7764 32.3611 68.1118 32.9305 68.2272 33.5612Z" fill="#1E1E1E"/>
</svg>
