<svg width="100" height="100" viewBox="0 0 100 100" fill="none" xmlns="http://www.w3.org/2000/svg">
<path fill-rule="evenodd" clip-rule="evenodd" d="M40 32C37.7909 32 36 33.7909 36 36V64C36 66.2091 37.7909 68 40 68H61C63.2091 68 65 66.2091 65 64V48.0905C65 47.2013 64.7037 46.3374 64.1579 45.6354L54.7583 33.5449C54.0005 32.5702 52.835 32 51.6004 32H40ZM56 48C56.5523 48 57 47.5523 57 47C57 46.4477 56.5523 46 56 46H43C42.4477 46 42 46.4477 42 47C42 47.5523 42.4477 48 43 48H56ZM56 53C56.5523 53 57 52.5523 57 52C57 51.4477 56.5523 51 56 51H43C42.4477 51 42 51.4477 42 52C42 52.5523 42.4477 53 43 53H56ZM43 58C42.4477 58 42 57.5523 42 57C42 56.4477 42.4477 56 43 56H56C56.5523 56 57 56.4477 57 57C57 57.5523 56.5523 58 56 58H43Z" fill="#E2E2E2"/>
<path fill-rule="evenodd" clip-rule="evenodd" d="M50 100C77.6142 100 100 77.6142 100 50C100 22.3858 77.6142 0 50 0C22.3858 0 0 22.3858 0 50C0 77.6142 22.3858 100 50 100ZM32 32C32 29.7909 33.7909 28 36 28H53.4968C54.7253 28 55.8856 28.5645 56.6439 29.5311L68.1471 44.1943C68.6997 44.8987 69 45.768 69 46.6632V68C69 70.2091 67.2091 72 65 72H36C33.7909 72 32 70.2091 32 68V32Z" fill="#E2E2E2"/>
<path fill-rule="evenodd" clip-rule="evenodd" d="M36 28C33.7909 28 32 29.7909 32 32V68C32 70.2091 33.7909 72 36 72H65C67.2091 72 69 70.2091 69 68V46.6632C69 45.768 68.6997 44.8987 68.1471 44.1943L56.6439 29.5311C55.8856 28.5645 54.7253 28 53.4968 28H36ZM40 32C37.7909 32 36 33.7909 36 36V64C36 66.2091 37.7909 68 40 68H61C63.2091 68 65 66.2091 65 64V48.0905C65 47.2013 64.7037 46.3374 64.1579 45.6354L54.7583 33.5449C54.0005 32.5702 52.835 32 51.6004 32H40Z" fill="#1E1E1E"/>
<path d="M57 47C57 47.5523 56.5523 48 56 48H43C42.4477 48 42 47.5523 42 47C42 46.4477 42.4477 46 43 46H56C56.5523 46 57 46.4477 57 47Z" fill="#1E1E1E"/>
<path d="M57 52C57 52.5523 56.5523 53 56 53H43C42.4477 53 42 52.5523 42 52C42 51.4477 42.4477 51 43 51H56C56.5523 51 57 51.4477 57 52Z" fill="#1E1E1E"/>
<path d="M42 57C42 57.5523 42.4477 58 43 58H56C56.5523 58 57 57.5523 57 57C57 56.4477 56.5523 56 56 56H43C42.4477 56 42 56.4477 42 57Z" fill="#1E1E1E"/>
</svg>
