<svg width="86" height="100" viewBox="0 0 86 100" fill="none" xmlns="http://www.w3.org/2000/svg">
<path fill-rule="evenodd" clip-rule="evenodd" d="M7.80985 0H78.19C83.8945 0 86 2.1096 86 7.82855V76.8365C86 77.4836 85.9738 78.0848 85.9166 78.6417C85.9058 78.7459 85.8958 78.8496 85.8857 78.9532C85.7748 80.093 85.6657 81.2144 84.6037 82.4769C84.4908 82.6119 83.3078 83.494 83.3078 83.494C83.1929 83.5505 83.0845 83.6042 82.98 83.6561C82.5053 83.8917 82.1076 84.0892 81.5194 84.3263L46.8633 98.8758C45.0641 99.7023 44.3117 100.024 43.005 99.9983L42.9998 99.9985H42.9948C41.6881 100.025 40.9357 99.7023 39.1367 98.8758L4.48042 84.3263C3.89163 84.0888 3.49347 83.8911 3.01805 83.655C2.91403 83.6036 2.80632 83.55 2.69212 83.494C2.69212 83.494 1.50923 82.6119 1.39603 82.4769C0.334001 81.2144 0.224934 80.093 0.114099 78.9532C0.104015 78.8496 0.0939319 78.7459 0.0831 78.6417C0.0260505 78.0848 0 77.4836 0 76.8365V7.82855C0 2.1096 2.10528 0 7.80985 0ZM67.6005 35.9103V44.5647C67.6005 46.0984 66.893 46.8101 65.425 46.8101H64.3364C62.8137 46.8101 62.1062 46.0984 62.1062 44.5647V20.3542C62.1062 18.8205 62.8137 18.1089 64.3364 18.1089H65.3158C66.7847 18.1089 67.492 18.8205 67.492 20.3542V27.8589H73.2032V20.0255C73.2032 15.2607 70.9185 12.9601 66.1867 12.9601H63.3573C58.6256 12.9601 56.2856 15.3151 56.2856 20.0808V44.8382C56.2856 49.6041 58.6256 51.9588 63.3573 51.9588H66.2408C70.9738 51.9588 73.3123 49.6041 73.3123 44.8382V35.9103H67.6005ZM18.508 34.7599H25.3619V29.4474H18.508V18.6018H25.6348V13.2892H12.6877V51.6305H25.7432V46.3178H18.508V34.7599ZM53.2094 51.6305H47.3881V13.2892H53.2094V51.6305ZM38.9423 30.3235C38.9423 31.8572 38.236 32.5697 36.7672 32.5697H34.3731V18.4378H36.7672C38.236 18.4378 38.9423 19.1495 38.9423 20.683V30.3235ZM37.6913 13.2889H28.5528V51.6303H34.3731V37.7174H37.6913C42.4241 37.7174 44.7628 35.3626 44.7628 30.5979V20.4096C44.7628 15.6439 42.4241 13.2889 37.6913 13.2889ZM73.4601 69.5378L73.4761 69.3784L73.4919 69.2034V68.8213L73.4761 68.6463L73.4601 68.4872L73.3967 68.1686L73.3649 68.0255L73.3181 67.8821L73.2705 67.739L73.2071 67.6117L73.1275 67.4682L73.0491 67.3409L72.9537 67.1978L72.8593 67.0705L72.7483 66.959L72.6381 66.8315L72.511 66.7203L72.3848 66.6088L72.2584 66.5292L72.1314 66.4336L72.0054 66.3542L71.8634 66.2747L71.7204 66.1949L71.5624 66.1153L71.4046 66.0517L71.2466 65.9722L71.0719 65.9095L70.7879 65.8138L70.6289 65.7661L70.4871 65.7184L70.3291 65.6707L70.1711 65.6228L70.0122 65.5911L69.8384 65.5434L69.6804 65.4955L69.5068 65.4638L69.333 65.4159L69.1592 65.3682L68.9843 65.3205L68.8265 65.2886L68.6845 65.2407L68.5415 65.209L68.4155 65.1613L68.2893 65.1294L68.0995 65.0659L67.9248 65.0022L67.7668 64.9384L67.6408 64.8588L67.4978 64.7792L67.3876 64.6678L67.324 64.5724L67.2456 64.3972L67.2296 64.1905V64.1584L67.2456 63.9995L67.308 63.8561L67.4034 63.7128L67.5454 63.5853L67.6566 63.5217L67.7828 63.458L67.9248 63.4263L68.0837 63.3942L68.2575 63.3626H68.6051L68.7471 63.3784L68.906 63.3942L69.064 63.4103L69.5386 63.5059L69.6964 63.5536L69.8542 63.6015L70.0282 63.649L70.1553 63.7128L70.2973 63.7605L70.4235 63.824L70.5665 63.8878L70.6925 63.9515L70.8345 64.0151L70.9617 64.0949L71.1037 64.1584L71.2308 64.254L71.357 64.3334L71.499 64.4132L71.626 64.5086L71.7204 64.3813L71.7998 64.254L71.894 64.1267L71.9896 63.9995L72.0838 63.8561L72.1634 63.7288L72.2584 63.6015L72.353 63.474L72.4323 63.3467L72.5268 63.2195L72.6221 63.092L72.7017 62.9647L72.7959 62.8215L72.8913 62.694L72.9857 62.5667L73.0651 62.4395L73.1593 62.312L73.0333 62.2165L72.9071 62.1211L72.7801 62.0255L72.6539 61.9461L72.511 61.8505L72.3848 61.7709L72.2426 61.6913L72.0998 61.6117L71.9736 61.548L71.8314 61.4684L71.6728 61.4047L71.3888 61.2774L71.2466 61.2297L71.0879 61.1661L70.9457 61.134L70.8037 61.0863L70.6449 61.0386L70.5029 61.0068L70.1871 60.943L70.044 60.9113L69.886 60.8795L69.7122 60.8636L69.5544 60.8318L69.3796 60.8157H69.2218L68.8741 60.784H68.1939L67.8783 60.8157L67.7192 60.8318L67.5614 60.8476L67.4192 60.8795L67.2614 60.9113L67.1186 60.943L66.9764 60.9749L66.8502 61.0068L66.7071 61.0547L66.5493 61.1182L66.3915 61.1661L66.2485 61.2297L66.1065 61.3092L65.9645 61.373L65.8214 61.4524L65.6955 61.532L65.5691 61.6276L65.442 61.723L65.3318 61.8026L65.2048 61.914L65.0944 62.0415L64.9834 62.153L64.8732 62.2803L64.7778 62.4076L64.6832 62.5349L64.604 62.678L64.5254 62.8215L64.462 62.9647L64.3983 63.108L64.3358 63.2511L64.3042 63.3942L64.2563 63.5378L64.1927 63.824L64.1769 63.9834L64.1611 64.1267L64.1451 64.2857V64.652L64.1611 64.8269L64.1927 65.1453L64.2245 65.2886L64.2563 65.4478L64.3042 65.5751L64.3507 65.7184L64.3983 65.8459L64.462 65.9563L64.5414 66.0994L64.6198 66.2269L64.6994 66.3382L64.7936 66.4494L64.889 66.5611L64.9994 66.6726L65.1104 66.7838L65.2206 66.8794L65.3476 66.959L65.4738 67.0547L65.6158 67.134L65.7431 67.2136L65.9011 67.2932L66.0429 67.3728L66.2017 67.4365L66.5175 67.5638L66.6913 67.6276L66.8344 67.6753L67.1186 67.7709L67.2764 67.8028L67.4192 67.8503L67.5774 67.8982L67.735 67.9301L67.8939 67.9778L68.0519 68.0097L68.2257 68.0574L68.3837 68.0892L68.5573 68.1369L68.7163 68.1686L68.8741 68.2165L69.0161 68.2482L69.1592 68.2961L69.2852 68.328L69.3956 68.3599L69.5852 68.4392L69.744 68.503L69.886 68.5667L70.0122 68.6303L70.1395 68.7259L70.2496 68.8213L70.3291 68.9328L70.3927 69.0919L70.4083 69.283V69.3146L70.3927 69.474L70.3449 69.6172L70.2812 69.7446L70.1871 69.8561L70.06 69.9515L69.9496 70.0153L69.8226 70.063L69.6804 70.0946L69.5386 70.1267L69.3796 70.1584L69.2057 70.1742H68.8581L68.6845 70.1584H68.5265L68.3677 70.1267L68.1939 70.1107L68.0361 70.0788L67.7192 70.0153L67.5774 69.9674L67.2614 69.8719L67.1186 69.8084L66.9764 69.7605L66.8344 69.6967L66.6913 69.6332L66.5493 69.5694L66.4233 69.4899L66.2801 69.4263L66.1543 69.3465L66.0121 69.2511L65.8851 69.1717L65.7431 69.0761L65.6158 68.9807L65.4738 68.8851L65.3476 68.7896L65.2524 68.9169L65.1422 69.0282L65.0468 69.1557L64.9366 69.283L64.8414 69.3942L64.7468 69.5217L64.6358 69.649L64.5414 69.7605L64.4302 69.8878L64.3358 69.9992L64.2245 70.1267L64.1303 70.254L64.0349 70.3653L63.9245 70.4926L63.8293 70.6201L63.7191 70.7315L63.6237 70.8588L63.7499 70.9703L63.8609 71.0657L63.9873 71.1613L64.1143 71.2567L64.3665 71.4478L64.4936 71.5274L64.6198 71.6069L64.7628 71.6865L64.889 71.7659L65.031 71.8457L65.1738 71.9094L65.316 71.988L65.458 72.0517L65.6009 72.1153L65.7589 72.179L65.9011 72.2267L66.0589 72.2744L66.2017 72.3382L66.5175 72.4336L66.6597 72.4657L66.8184 72.5132L67.2922 72.6088L67.4512 72.6405L67.609 72.6565L67.7668 72.6884L67.9408 72.7042L68.2575 72.7363H68.4311L68.5893 72.7521H69.2536L69.4116 72.7363L69.5852 72.7203L69.744 72.7042L69.886 72.6884L70.044 72.6726L70.2031 72.6405L70.4871 72.5769L70.6449 72.5451L70.7879 72.4973L70.9457 72.4494L71.1037 72.4019L71.2615 72.3382L71.4204 72.2744L71.5624 72.1948L71.7044 72.1311L71.8474 72.0517L71.9736 71.9561L72.0998 71.8776L72.2268 71.7821L72.3372 71.6865L72.4641 71.5751L72.5584 71.4796L72.6697 71.368L72.7641 71.2567L72.8435 71.1294L72.9381 71.0021L73.0173 70.8746L73.0967 70.7474L73.1593 70.6042L73.2229 70.4767L73.2863 70.3336L73.3342 70.1742L73.3649 70.0309L73.4125 69.8719L73.4443 69.7126L73.4601 69.5378ZM62.5436 72.5611V69.9355H56.3438V67.9619H61.8475V65.4955H56.3438V63.6015H62.4642V60.9749H53.3238V72.5611H62.5436ZM50.9886 72.5611V60.9749H47.7473L47.6679 61.1024L47.5893 61.2455L47.4941 61.372L47.4145 61.5151L47.3361 61.6424L47.2567 61.7859L47.1623 61.9122L47.0829 62.0555L47.0037 62.183L46.9249 62.3103L46.8298 62.4524L46.751 62.5799L46.6718 62.723L46.5924 62.8505L46.498 62.9928L46.4184 63.1201L46.34 63.2474L46.2606 63.3899L46.1812 63.5169L46.0868 63.6603L46.0076 63.7878L45.9279 63.9299L45.8494 64.0574L45.7541 64.2005L45.6758 64.3269L45.5963 64.4542L45.5169 64.5976L45.4225 64.7251L45.3431 64.8682L45.2643 64.9947L45.1851 65.138L45.0907 65.2653L45.0113 65.4076L44.9321 65.5351L44.8535 65.4076L44.7741 65.2653L44.6786 65.138L44.6 64.9947L44.5208 64.8682L44.4422 64.7251L44.3628 64.5976L44.2676 64.4542L44.189 64.3269L44.1096 64.2005L44.0312 64.0574L43.9518 63.9299L43.8566 63.7878L43.7778 63.6603L43.6984 63.5169L43.6202 63.3899L43.5406 63.2474L43.4453 63.1201L43.3667 62.9928L43.2873 62.8505L43.2079 62.723L43.1135 62.5799L43.0341 62.4524L42.9557 62.3103L42.8761 62.183L42.7969 62.0555L42.7023 61.9122L42.6229 61.7859L42.5445 61.6424L42.4651 61.5151L42.3854 61.372L42.2912 61.2455L42.2118 61.1024L42.1334 60.9749H38.8909V72.5611H41.896V65.7417L41.9902 65.869L42.07 66.0134L42.1642 66.1405L42.2436 66.2838L42.3389 66.4113L42.4174 66.5544L42.5127 66.6828L42.5913 66.8261L42.6865 66.9534L42.7659 67.0967L42.8603 67.224L42.9397 67.3684L43.0341 67.4957L43.1135 67.6388L43.2079 67.7661L43.2873 67.9103L43.3828 68.0376L43.4769 68.1809L43.5566 68.3082L43.6507 68.4524L43.7304 68.5796L43.8256 68.723L43.904 68.8503L43.9994 68.9946L44.0778 69.1219L44.1732 69.2651L44.2526 69.3926L44.347 69.5359L44.4262 69.6642L44.5208 69.8074L44.6 69.9346L44.6946 70.0778L44.7741 70.2063L44.8693 70.3494H44.9321L45.0113 70.2221L45.1059 70.0778L45.1851 69.9505L45.2805 69.8232L45.3589 69.6801L45.4541 69.5526L45.5327 69.4242L45.6121 69.2811L45.7076 69.1538L45.7859 69.0265L45.8814 68.8982L45.9598 68.7549L46.055 68.6276L46.1346 68.5001L46.213 68.3561L46.3084 68.2286L46.3866 68.1013L46.482 67.9582L46.5604 67.8307L46.6558 67.7024L46.7355 67.5592L46.8138 67.4319L46.9093 67.3047L46.9876 67.1605L47.0829 67.033L47.1623 66.9057L47.2567 66.7784L47.3361 66.6342L47.4145 66.5069L47.5099 66.3794L47.5893 66.2363L47.6837 66.1088L47.7631 65.9815L47.8577 65.8372L47.9367 65.7099V72.5611H50.9886ZM32.4342 67.6426L32.4818 67.7867L32.5454 67.9301H29.873L29.9356 67.7867L29.9832 67.6426L30.0468 67.4834L30.1104 67.3401L30.157 67.1959L30.2206 67.0526L30.284 66.8934L30.3468 66.7492L30.3944 66.6059L30.4581 66.4628L30.5215 66.3186L30.5682 66.1594L30.6319 66.0161L30.6953 65.872L30.7431 65.7286L30.8057 65.5855L30.8693 65.4255L30.9327 65.2819L30.9795 65.1388L31.0431 64.9947L31.1067 64.8355L31.1541 64.6913L31.2167 64.548L31.2803 64.6913L31.3279 64.8355L31.3905 64.9947L31.4541 65.1388L31.5017 65.2819L31.5652 65.4255L31.6279 65.5855L31.6753 65.7286L31.739 65.872L31.8026 66.0161L31.8492 66.1594L31.9128 66.3186L31.9606 66.4628L32.023 66.6059L32.0866 66.7492L32.1344 66.8934L32.1978 67.0526L32.2604 67.1959L32.308 67.3401L32.3716 67.4834L32.4342 67.6426ZM37.6061 72.5611L37.5427 72.4178L37.479 72.2744L37.4167 72.1311L37.3689 71.9721L37.3052 71.8296L37.2418 71.6865L37.179 71.5434L37.0522 71.2567L36.9896 71.0976L36.926 70.9542L36.8782 70.8111L36.8156 70.6678L36.6886 70.3813L36.6252 70.2221L36.5626 70.0788L36.4354 69.7924L36.3888 69.649L36.3252 69.5057L36.2616 69.3465L36.1979 69.2034L36.1354 69.0601L36.0717 68.9169L36.0083 68.7736L35.9457 68.6303L35.8981 68.4711L35.8345 68.328L35.7719 68.1846L35.6447 67.8982L35.5813 67.7549L35.5187 67.5957L35.4553 67.4526L35.4075 67.3092L35.3451 67.1659L35.2179 66.8794L35.1545 66.7203L35.0917 66.5769L35.028 66.4336L34.9646 66.2905L34.9179 66.1474L34.8544 66.0038L34.7908 65.8617L34.7282 65.7024L34.601 65.4159L34.5376 65.2726L34.475 65.1294L34.4272 64.9861L34.3638 64.8269L34.3012 64.6838L34.2376 64.5405L34.1742 64.3972L34.1106 64.254L34.0478 64.1107L33.9844 63.9515L33.9367 63.8084L33.8742 63.6651L33.8105 63.5217L33.7471 63.3784L33.6846 63.2353L33.6209 63.0761L33.4939 62.7897L33.4471 62.6463L33.3835 62.5032L33.3199 62.3597L33.2575 62.2007L33.1939 62.0574L33.1305 61.914L33.0669 61.7709L33.0043 61.6276L32.9567 61.4845L32.8931 61.3251L32.8305 61.182L32.7034 60.8953H29.7778L29.7152 61.0386L29.5882 61.3251L29.5404 61.4845L29.4778 61.6276L29.4144 61.7709L29.3507 61.914L29.2882 62.0574L29.2246 62.2007L29.1609 62.3597L29.0973 62.5032L29.0507 62.6463L28.9235 62.9328L28.8609 63.0761L28.7973 63.2353L28.7339 63.3784L28.6713 63.5217L28.6079 63.6651L28.5601 63.8084L28.4967 63.9515L28.4341 64.1107L28.3071 64.3972L28.2443 64.5405L28.1809 64.6838L28.1172 64.8269L28.0696 64.9861L28.0071 65.1294L27.9434 65.2726L27.88 65.4159L27.8172 65.5592L27.7538 65.7024L27.6904 65.8617L27.6276 66.0038L27.58 66.1474L27.5164 66.2905L27.453 66.4336L27.3904 66.5769L27.3268 66.7203L27.2632 66.8794L27.2006 67.0228L27.137 67.1659L27.0894 67.3092L27.0259 67.4526L26.9632 67.5957L26.8997 67.7549L26.8363 67.8982L26.7735 68.0413L26.6465 68.328L26.5989 68.4711L26.5363 68.6303L26.4091 68.9169L26.3467 69.0601L26.2195 69.3465L26.1569 69.5057L26.1093 69.649L25.9823 69.9355L25.9195 70.0788L25.8561 70.2221L25.7924 70.3813L25.7299 70.5246L25.6662 70.6678L25.6188 70.8111L25.5552 70.9542L25.4926 71.0976L25.429 71.2567L25.3654 71.4001L25.3028 71.5434L25.2394 71.6865L25.1758 71.8296L25.1282 71.9721L25.0654 72.1311L24.9384 72.4178L24.8758 72.5611H28.0696L28.1332 72.4178L28.1809 72.2744L28.2443 72.1311L28.3071 71.9721L28.3547 71.8296L28.4183 71.6865L28.4809 71.5434L28.5285 71.4001L28.6555 71.1134L28.7023 70.9703L28.7657 70.8111L28.8293 70.6678L28.8769 70.5246L28.9395 70.3813H33.4779L33.5415 70.5246L33.5891 70.6678L33.6527 70.8111L33.7155 70.9703L33.7629 71.1134L33.8266 71.2567L33.89 71.4001L33.9367 71.5434L34.0004 71.6865L34.0638 71.8296L34.1106 71.9721L34.1742 72.1311L34.2376 72.2744L34.2852 72.4178L34.348 72.5611H37.6061ZM23.4668 71.1769L23.5938 71.0815L23.704 70.9861V65.8138H18.4854V68.1369H20.7944V69.5853L20.6682 69.6651L20.5569 69.7286L20.4151 69.7924L20.2881 69.8561L20.1457 69.9196L20.0039 69.9515L19.8459 69.9992L19.6871 70.0309L19.5293 70.063L19.3712 70.0788L19.1974 70.0946L19.0226 70.1107H18.6592L18.4854 70.0946L18.3276 70.0788L18.0107 70.0153L17.8529 69.9674L17.6947 69.9196L17.5521 69.8561L17.2679 69.7286L17.1408 69.649L17.0148 69.5694L16.8886 69.474L16.7614 69.3784L16.6514 69.283L16.5558 69.1717L16.4456 69.0601L16.3504 68.9488L16.256 68.8213L16.0971 68.5667L16.0186 68.4234L15.9551 68.2801L15.8915 68.1209L15.8447 67.9936L15.7971 67.8503L15.7655 67.7072L15.7335 67.5638L15.7019 67.4207L15.6859 67.2615L15.6701 67.1182L15.6553 66.959V66.5928L15.6701 66.4336L15.6859 66.2747L15.7177 66.0994L15.7495 65.9563L15.7811 65.798L15.8289 65.6388L15.8915 65.4955L15.9393 65.3524L16.0028 65.209L16.0822 65.0817L16.1606 64.9384L16.24 64.8111L16.3186 64.6997L16.414 64.5724L16.5242 64.4609L16.6194 64.3494L16.7296 64.254L16.841 64.1584L16.9512 64.0632L17.0785 63.9834L17.2044 63.9036L17.3315 63.824L17.4735 63.7605L17.6157 63.6967L17.7575 63.649L17.9005 63.6015L18.0425 63.5695L18.2005 63.5378L18.3434 63.5217L18.5014 63.5059H18.833L19.0076 63.5217L19.1814 63.5378L19.3396 63.5536L19.4974 63.5853L19.6552 63.6174L19.7983 63.649L19.9403 63.6967L20.0823 63.7447L20.2093 63.7924L20.3355 63.8561L20.4625 63.9197L20.6045 63.9995L20.7307 64.0788L20.8578 64.1584L20.984 64.238L21.1102 64.3334L21.2372 64.4132L21.3634 64.5245L21.4904 64.6201L21.5848 64.4928L21.6958 64.3813L21.7904 64.254L21.9017 64.1267L21.9959 63.9995L22.0913 63.8878L22.2017 63.7605L22.2967 63.6332L22.4071 63.5059L22.5025 63.3942L22.5967 63.267L22.7079 63.1397L22.8023 63.0284L22.8978 62.9009L23.0079 62.7736L23.1034 62.6463L23.2136 62.5349L23.3088 62.4076L23.1826 62.312L23.0556 62.2007L22.9296 62.1051L22.8023 62.0097L22.6763 61.9299L22.5501 61.8345L22.4071 61.7549L22.2809 61.6753L22.1391 61.5957L22.0119 61.5161L21.8699 61.4524L21.7279 61.373L21.5848 61.3092L21.4428 61.2455L21.3008 61.182L21.1578 61.134L21.0316 61.0863L20.8898 61.0547L20.7468 61.0068L20.4625 60.943L20.3197 60.9113L20.0039 60.8476L19.8609 60.8318L19.6871 60.7999L19.5293 60.784H19.3712L19.0226 60.752H18.3434L17.7107 60.8157L17.5521 60.8476L17.3939 60.8636L17.2361 60.8953L17.0941 60.943L16.9352 60.9749L16.7932 61.0226L16.6514 61.0547L16.5082 61.1182L16.3504 61.1661L16.2242 61.2136L16.0662 61.2934L15.9233 61.357L15.7811 61.4207L15.6393 61.5003L15.4963 61.5799L15.3543 61.6595L15.2283 61.739L15.1011 61.8186L14.9749 61.914L14.8478 61.9936L14.7216 62.0892L14.6112 62.1847L14.4842 62.2961L14.374 62.3915L14.1526 62.6142L14.0572 62.7259L13.947 62.8372L13.8517 62.9488L13.7573 63.0761L13.6619 63.2034L13.5677 63.3307L13.4881 63.458L13.4089 63.5853L13.3303 63.7128L13.2509 63.8401L13.1715 63.9834L13.1089 64.1267L13.0453 64.2699L12.9819 64.4132L12.9192 64.5563L12.8556 64.7155L12.8079 64.8588L12.7602 65.018L12.7137 65.1613L12.6818 65.3205L12.6341 65.4797L12.6024 65.6228L12.5866 65.7822L12.5549 65.9403L12.5388 66.1153L12.5239 66.2747V66.4336L12.5081 66.6088V67.134L12.5239 67.2932L12.5388 67.4526L12.5549 67.6117L12.5705 67.7549L12.6024 67.914L12.6183 68.0574L12.6501 68.2165L12.6977 68.3599L12.7294 68.519L12.7762 68.6622L12.8079 68.8053L12.8715 68.9488L12.9192 69.0761L12.9819 69.2192L13.0453 69.3626L13.1089 69.5057L13.1715 69.649L13.2509 69.7763L13.3303 69.9196L13.4089 70.0471L13.4881 70.1742L13.5826 70.3017L13.6619 70.429L13.7573 70.5405L13.8517 70.6678L13.947 70.7792L14.0572 70.8907L14.1685 71.0021L14.2787 71.0976L14.39 71.209L14.5002 71.3044L14.6112 71.4001L14.8638 71.5909L14.9909 71.6865L15.1169 71.7659L15.2441 71.8457L15.3861 71.9253L15.5121 72.004L15.6553 72.0836L15.7971 72.1473L15.9393 72.2109L16.0822 72.2744L16.24 72.3382L16.382 72.3859L16.5242 72.4494L16.6672 72.4973L16.825 72.5292L16.967 72.5769L17.1259 72.6088L17.2679 72.6405L17.4259 72.6726L17.5837 72.7042L17.9005 72.7363L18.0583 72.7521L18.2321 72.768L18.3901 72.7838H19.0704L19.244 72.768L19.4031 72.7521L19.5769 72.7363L19.7347 72.7203L19.9085 72.7042L20.0665 72.6884L20.3831 72.6249L20.5253 72.593L20.6842 72.5611L20.8262 72.5132L20.984 72.4657L21.1262 72.4178L21.269 72.3701L21.4112 72.3221L21.553 72.2584L21.7121 72.1948L21.8541 72.1311L22.0119 72.0676L22.1539 71.988L22.2967 71.9253L22.4389 71.8457L22.5809 71.7659L22.7239 71.6865L22.8501 71.6069L22.9772 71.5274L23.1034 71.4317L23.2294 71.3523L23.3564 71.2567L23.4668 71.1769ZM26.4191 86.2988H59.7389L42.7318 91.9188L26.4191 86.2988Z" fill="#E2E2E2"/>
<path d="M18.508 34.7599H25.3619V29.4474H18.508V18.6018H25.6348V13.2892H12.6877V51.6305H25.7432V46.3178H18.508V34.7599Z" fill="#1E1E1E"/>
<path fill-rule="evenodd" clip-rule="evenodd" d="M37.6913 13.2889H28.5528V51.6303H34.3731V37.7174H37.6913C42.4241 37.7174 44.7628 35.3626 44.7628 30.5979V20.4096C44.7628 15.6439 42.4241 13.2889 37.6913 13.2889ZM36.7672 32.5697C38.236 32.5697 38.9423 31.8572 38.9423 30.3235V20.683C38.9423 19.1495 38.236 18.4378 36.7672 18.4378H34.3731V32.5697H36.7672Z" fill="#1E1E1E"/>
<path d="M53.2094 51.6305H47.3881V13.2892H53.2094V51.6305Z" fill="#1E1E1E"/>
<path d="M67.6005 35.9103V44.5647C67.6005 46.0984 66.893 46.8101 65.425 46.8101H64.3364C62.8137 46.8101 62.1062 46.0984 62.1062 44.5647V20.3542C62.1062 18.8205 62.8137 18.1089 64.3364 18.1089H65.3158C66.7847 18.1089 67.492 18.8205 67.492 20.3542V27.8589H73.2032V20.0255C73.2032 15.2607 70.9185 12.9601 66.1867 12.9601H63.3573C58.6256 12.9601 56.2856 15.3151 56.2856 20.0808V44.8382C56.2856 49.6041 58.6256 51.9588 63.3573 51.9588H66.2408C70.9738 51.9588 73.3123 49.6041 73.3123 44.8382V35.9103H67.6005Z" fill="#1E1E1E"/>
<path d="M23.4668 71.1769L23.5938 71.0815L23.704 70.9861V65.8138H18.4854V68.1369H20.7944V69.5853L20.6682 69.6651L20.5569 69.7286L20.4151 69.7924L20.2881 69.8561L20.1457 69.9196L20.0039 69.9515L19.8459 69.9992L19.6871 70.0309L19.5293 70.063L19.3712 70.0788L19.1974 70.0946L19.0226 70.1107H18.6592L18.4854 70.0946L18.3276 70.0788L18.0107 70.0153L17.8529 69.9674L17.6947 69.9196L17.5521 69.8561L17.2679 69.7286L17.1408 69.649L17.0148 69.5694L16.8886 69.474L16.7614 69.3784L16.6514 69.283L16.5558 69.1717L16.4456 69.0601L16.3504 68.9488L16.256 68.8213L16.0971 68.5667L16.0186 68.4234L15.9551 68.2801L15.8915 68.1209L15.8447 67.9936L15.7971 67.8503L15.7655 67.7072L15.7335 67.5638L15.7019 67.4207L15.6859 67.2615L15.6701 67.1182L15.6553 66.959V66.5928L15.6701 66.4336L15.6859 66.2747L15.7177 66.0994L15.7495 65.9563L15.7811 65.798L15.8289 65.6388L15.8915 65.4955L15.9393 65.3524L16.0028 65.209L16.0822 65.0817L16.1606 64.9384L16.24 64.8111L16.3186 64.6997L16.414 64.5724L16.5242 64.4609L16.6194 64.3494L16.7296 64.254L16.841 64.1584L16.9512 64.0632L17.0785 63.9834L17.2044 63.9036L17.3315 63.824L17.4735 63.7605L17.6157 63.6967L17.7575 63.649L17.9005 63.6015L18.0425 63.5695L18.2005 63.5378L18.3434 63.5217L18.5014 63.5059H18.833L19.0076 63.5217L19.1814 63.5378L19.3396 63.5536L19.4974 63.5853L19.6552 63.6174L19.7983 63.649L19.9403 63.6967L20.0823 63.7447L20.2093 63.7924L20.3355 63.8561L20.4625 63.9197L20.6045 63.9995L20.7307 64.0788L20.8578 64.1584L20.984 64.238L21.1102 64.3334L21.2372 64.4132L21.3634 64.5245L21.4904 64.6201L21.5848 64.4928L21.6958 64.3813L21.7904 64.254L21.9017 64.1267L21.9959 63.9995L22.0913 63.8878L22.2017 63.7605L22.2967 63.6332L22.4071 63.5059L22.5025 63.3942L22.5967 63.267L22.7079 63.1397L22.8023 63.0284L22.8978 62.9009L23.0079 62.7736L23.1034 62.6463L23.2136 62.5349L23.3088 62.4076L23.1826 62.312L23.0556 62.2007L22.9296 62.1051L22.8023 62.0097L22.6763 61.9299L22.5501 61.8345L22.4071 61.7549L22.2809 61.6753L22.1391 61.5957L22.0119 61.5161L21.8699 61.4524L21.7279 61.373L21.5848 61.3092L21.4428 61.2455L21.3008 61.182L21.1578 61.134L21.0316 61.0863L20.8898 61.0547L20.7468 61.0068L20.4625 60.943L20.3197 60.9113L20.0039 60.8476L19.8609 60.8318L19.6871 60.7999L19.5293 60.784H19.3712L19.0226 60.752H18.3434L17.7107 60.8157L17.5521 60.8476L17.3939 60.8636L17.2361 60.8953L17.0941 60.943L16.9352 60.9749L16.7932 61.0226L16.6514 61.0547L16.5082 61.1182L16.3504 61.1661L16.2242 61.2136L16.0662 61.2934L15.9233 61.357L15.7811 61.4207L15.6393 61.5003L15.4963 61.5799L15.3543 61.6595L15.2283 61.739L15.1011 61.8186L14.9749 61.914L14.8478 61.9936L14.7216 62.0892L14.6112 62.1847L14.4842 62.2961L14.374 62.3915L14.1526 62.6142L14.0572 62.7259L13.947 62.8372L13.8517 62.9488L13.7573 63.0761L13.6619 63.2034L13.5677 63.3307L13.4881 63.458L13.4089 63.5853L13.3303 63.7128L13.2509 63.8401L13.1715 63.9834L13.1089 64.1267L13.0453 64.2699L12.9819 64.4132L12.9192 64.5563L12.8556 64.7155L12.8079 64.8588L12.7602 65.018L12.7137 65.1613L12.6818 65.3205L12.6341 65.4797L12.6024 65.6228L12.5866 65.7822L12.5549 65.9403L12.5388 66.1153L12.5239 66.2747V66.4336L12.5081 66.6088V67.134L12.5239 67.2932L12.5388 67.4526L12.5549 67.6117L12.5705 67.7549L12.6024 67.914L12.6183 68.0574L12.6501 68.2165L12.6977 68.3599L12.7294 68.519L12.7762 68.6622L12.8079 68.8053L12.8715 68.9488L12.9192 69.0761L12.9819 69.2192L13.0453 69.3626L13.1089 69.5057L13.1715 69.649L13.2509 69.7763L13.3303 69.9196L13.4089 70.0471L13.4881 70.1742L13.5826 70.3017L13.6619 70.429L13.7573 70.5405L13.8517 70.6678L13.947 70.7792L14.0572 70.8907L14.1685 71.0021L14.2787 71.0976L14.39 71.209L14.5002 71.3044L14.6112 71.4001L14.8638 71.5909L14.9909 71.6865L15.1169 71.7659L15.2441 71.8457L15.3861 71.9253L15.5121 72.004L15.6553 72.0836L15.7971 72.1473L15.9393 72.2109L16.0822 72.2744L16.24 72.3382L16.382 72.3859L16.5242 72.4494L16.6672 72.4973L16.825 72.5292L16.967 72.5769L17.1259 72.6088L17.2679 72.6405L17.4259 72.6726L17.5837 72.7042L17.9005 72.7363L18.0583 72.7521L18.2321 72.768L18.3901 72.7838H19.0704L19.244 72.768L19.4031 72.7521L19.5769 72.7363L19.7347 72.7203L19.9085 72.7042L20.0665 72.6884L20.3831 72.6249L20.5253 72.593L20.6842 72.5611L20.8262 72.5132L20.984 72.4657L21.1262 72.4178L21.269 72.3701L21.4112 72.3221L21.553 72.2584L21.7121 72.1948L21.8541 72.1311L22.0119 72.0676L22.1539 71.988L22.2967 71.9253L22.4389 71.8457L22.5809 71.7659L22.7239 71.6865L22.8501 71.6069L22.9772 71.5274L23.1034 71.4317L23.2294 71.3523L23.3564 71.2567L23.4668 71.1769Z" fill="#1E1E1E"/>
<path fill-rule="evenodd" clip-rule="evenodd" d="M37.6061 72.5611L37.5427 72.4178L37.479 72.2744L37.4167 72.1311L37.3689 71.9721L37.3052 71.8296L37.2418 71.6865L37.179 71.5434L37.0522 71.2567L36.9896 71.0976L36.926 70.9542L36.8782 70.8111L36.8156 70.6678L36.6886 70.3813L36.6252 70.2221L36.5626 70.0788L36.4354 69.7924L36.3888 69.649L36.3252 69.5057L36.2616 69.3465L36.1979 69.2034L36.1354 69.0601L36.0717 68.9169L36.0083 68.7736L35.9457 68.6303L35.8981 68.4711L35.8345 68.328L35.7719 68.1846L35.6447 67.8982L35.5813 67.7549L35.5187 67.5957L35.4553 67.4526L35.4075 67.3092L35.3451 67.1659L35.2179 66.8794L35.1545 66.7203L35.0917 66.5769L35.028 66.4336L34.9646 66.2905L34.9179 66.1474L34.8544 66.0038L34.7908 65.8617L34.7282 65.7024L34.601 65.4159L34.5376 65.2726L34.475 65.1294L34.4272 64.9861L34.3638 64.8269L34.3012 64.6838L34.2376 64.5405L34.1742 64.3972L34.1106 64.254L34.0478 64.1107L33.9844 63.9515L33.9367 63.8084L33.8742 63.6651L33.8105 63.5217L33.7471 63.3784L33.6846 63.2353L33.6209 63.0761L33.4939 62.7897L33.4471 62.6463L33.3835 62.5032L33.3199 62.3597L33.2575 62.2007L33.1939 62.0574L33.1305 61.914L33.0669 61.7709L33.0043 61.6276L32.9567 61.4845L32.8931 61.3251L32.8305 61.182L32.7034 60.8953H29.7778L29.7152 61.0386L29.5882 61.3251L29.5404 61.4845L29.4778 61.6276L29.4144 61.7709L29.3507 61.914L29.2882 62.0574L29.2246 62.2007L29.1609 62.3597L29.0973 62.5032L29.0507 62.6463L28.9235 62.9328L28.8609 63.0761L28.7973 63.2353L28.7339 63.3784L28.6713 63.5217L28.6079 63.6651L28.5601 63.8084L28.4967 63.9515L28.4341 64.1107L28.3071 64.3972L28.2443 64.5405L28.1809 64.6838L28.1172 64.8269L28.0696 64.9861L28.0071 65.1294L27.9434 65.2726L27.88 65.4159L27.8172 65.5592L27.7538 65.7024L27.6904 65.8617L27.6276 66.0038L27.58 66.1474L27.5164 66.2905L27.453 66.4336L27.3904 66.5769L27.3268 66.7203L27.2632 66.8794L27.2006 67.0228L27.137 67.1659L27.0894 67.3092L27.0259 67.4526L26.9632 67.5957L26.8997 67.7549L26.8363 67.8982L26.7735 68.0413L26.6465 68.328L26.5989 68.4711L26.5363 68.6303L26.4091 68.9169L26.3467 69.0601L26.2195 69.3465L26.1569 69.5057L26.1093 69.649L25.9823 69.9355L25.9195 70.0788L25.8561 70.2221L25.7924 70.3813L25.7299 70.5246L25.6662 70.6678L25.6188 70.8111L25.5552 70.9542L25.4926 71.0976L25.429 71.2567L25.3654 71.4001L25.3028 71.5434L25.2394 71.6865L25.1758 71.8296L25.1282 71.9721L25.0654 72.1311L24.9384 72.4178L24.8758 72.5611H28.0696L28.1332 72.4178L28.1809 72.2744L28.2443 72.1311L28.3071 71.9721L28.3547 71.8296L28.4183 71.6865L28.4809 71.5434L28.5285 71.4001L28.6555 71.1134L28.7023 70.9703L28.7657 70.8111L28.8293 70.6678L28.8769 70.5246L28.9395 70.3813H33.4779L33.5415 70.5246L33.5891 70.6678L33.6527 70.8111L33.7155 70.9703L33.7629 71.1134L33.8266 71.2567L33.89 71.4001L33.9367 71.5434L34.0004 71.6865L34.0638 71.8296L34.1106 71.9721L34.1742 72.1311L34.2376 72.2744L34.2852 72.4178L34.348 72.5611H37.6061ZM32.4818 67.7867L32.4342 67.6426L32.3716 67.4834L32.308 67.3401L32.2604 67.1959L32.1978 67.0526L32.1344 66.8934L32.0866 66.7492L32.023 66.6059L31.9606 66.4628L31.9128 66.3186L31.8492 66.1594L31.8026 66.0161L31.739 65.872L31.6753 65.7286L31.6279 65.5855L31.5652 65.4255L31.5017 65.2819L31.4541 65.1388L31.3905 64.9947L31.3279 64.8355L31.2803 64.6913L31.2167 64.548L31.1541 64.6913L31.1067 64.8355L31.0431 64.9947L30.9795 65.1388L30.9327 65.2819L30.8693 65.4255L30.8057 65.5855L30.7431 65.7286L30.6953 65.872L30.6319 66.0161L30.5682 66.1594L30.5215 66.3186L30.4581 66.4628L30.3944 66.6059L30.3468 66.7492L30.284 66.8934L30.2206 67.0526L30.157 67.1959L30.1104 67.3401L30.0468 67.4834L29.9832 67.6426L29.9356 67.7867L29.873 67.9301H32.5454L32.4818 67.7867Z" fill="#1E1E1E"/>
<path d="M50.9886 72.5611V60.9749H47.7473L47.6679 61.1024L47.5893 61.2455L47.4941 61.372L47.4145 61.5151L47.3361 61.6424L47.2567 61.7859L47.1623 61.9122L47.0829 62.0555L47.0037 62.183L46.9249 62.3103L46.8298 62.4524L46.751 62.5799L46.6718 62.723L46.5924 62.8505L46.498 62.9928L46.4184 63.1201L46.34 63.2474L46.2606 63.3899L46.1812 63.5169L46.0868 63.6603L46.0076 63.7878L45.9279 63.9299L45.8494 64.0574L45.7541 64.2005L45.6758 64.3269L45.5963 64.4542L45.5169 64.5976L45.4225 64.7251L45.3431 64.8682L45.2643 64.9947L45.1851 65.138L45.0907 65.2653L45.0113 65.4076L44.9321 65.5351L44.8535 65.4076L44.7741 65.2653L44.6786 65.138L44.6 64.9947L44.5208 64.8682L44.4422 64.7251L44.3628 64.5976L44.2676 64.4542L44.189 64.3269L44.1096 64.2005L44.0312 64.0574L43.9518 63.9299L43.8566 63.7878L43.7778 63.6603L43.6984 63.5169L43.6202 63.3899L43.5406 63.2474L43.4453 63.1201L43.3667 62.9928L43.2873 62.8505L43.2079 62.723L43.1135 62.5799L43.0341 62.4524L42.9557 62.3103L42.8761 62.183L42.7969 62.0555L42.7023 61.9122L42.6229 61.7859L42.5445 61.6424L42.4651 61.5151L42.3854 61.372L42.2912 61.2455L42.2118 61.1024L42.1334 60.9749H38.8909V72.5611H41.896V65.7417L41.9902 65.869L42.07 66.0134L42.1642 66.1405L42.2436 66.2838L42.3389 66.4113L42.4174 66.5544L42.5127 66.6828L42.5913 66.8261L42.6865 66.9534L42.7659 67.0967L42.8603 67.224L42.9397 67.3684L43.0341 67.4957L43.1135 67.6388L43.2079 67.7661L43.2873 67.9103L43.3828 68.0376L43.4769 68.1809L43.5566 68.3082L43.6507 68.4524L43.7304 68.5796L43.8256 68.723L43.904 68.8503L43.9994 68.9946L44.0778 69.1219L44.1732 69.2651L44.2526 69.3926L44.347 69.5359L44.4262 69.6642L44.5208 69.8074L44.6 69.9346L44.6946 70.0778L44.7741 70.2063L44.8693 70.3494H44.9321L45.0113 70.2221L45.1059 70.0778L45.1851 69.9505L45.2805 69.8232L45.3589 69.6801L45.4541 69.5526L45.5327 69.4242L45.6121 69.2811L45.7076 69.1538L45.7859 69.0265L45.8814 68.8982L45.9598 68.7549L46.055 68.6276L46.1346 68.5001L46.213 68.3561L46.3084 68.2286L46.3866 68.1013L46.482 67.9582L46.5604 67.8307L46.6558 67.7024L46.7355 67.5592L46.8138 67.4319L46.9093 67.3047L46.9876 67.1605L47.0829 67.033L47.1623 66.9057L47.2567 66.7784L47.3361 66.6342L47.4145 66.5069L47.5099 66.3794L47.5893 66.2363L47.6837 66.1088L47.7631 65.9815L47.8577 65.8372L47.9367 65.7099V72.5611H50.9886Z" fill="#1E1E1E"/>
<path d="M62.5436 72.5611V69.9355H56.3438V67.9619H61.8475V65.4955H56.3438V63.6015H62.4642V60.9749H53.3238V72.5611H62.5436Z" fill="#1E1E1E"/>
<path d="M73.4601 69.5378L73.4761 69.3784L73.4919 69.2034V68.8213L73.4761 68.6463L73.4601 68.4872L73.3967 68.1686L73.3649 68.0255L73.3181 67.8821L73.2705 67.739L73.2071 67.6117L73.1275 67.4682L73.0491 67.3409L72.9537 67.1978L72.8593 67.0705L72.7483 66.959L72.6381 66.8315L72.511 66.7203L72.3848 66.6088L72.2584 66.5292L72.1314 66.4336L72.0054 66.3542L71.8634 66.2747L71.7204 66.1949L71.5624 66.1153L71.4046 66.0517L71.2466 65.9722L71.0719 65.9095L70.7879 65.8138L70.6289 65.7661L70.4871 65.7184L70.3291 65.6707L70.1711 65.6228L70.0122 65.5911L69.8384 65.5434L69.6804 65.4955L69.5068 65.4638L69.333 65.4159L69.1592 65.3682L68.9843 65.3205L68.8265 65.2886L68.6845 65.2407L68.5415 65.209L68.4155 65.1613L68.2893 65.1294L68.0995 65.0659L67.9248 65.0022L67.7668 64.9384L67.6408 64.8588L67.4978 64.7792L67.3876 64.6678L67.324 64.5724L67.2456 64.3972L67.2296 64.1905V64.1584L67.2456 63.9995L67.308 63.8561L67.4034 63.7128L67.5454 63.5853L67.6566 63.5217L67.7828 63.458L67.9248 63.4263L68.0837 63.3942L68.2575 63.3626H68.6051L68.7471 63.3784L68.906 63.3942L69.064 63.4103L69.5386 63.5059L69.6964 63.5536L69.8542 63.6015L70.0282 63.649L70.1553 63.7128L70.2973 63.7605L70.4235 63.824L70.5665 63.8878L70.6925 63.9515L70.8345 64.0151L70.9617 64.0949L71.1037 64.1584L71.2308 64.254L71.357 64.3334L71.499 64.4132L71.626 64.5086L71.7204 64.3813L71.7998 64.254L71.894 64.1267L71.9896 63.9995L72.0838 63.8561L72.1634 63.7288L72.2584 63.6015L72.353 63.474L72.4323 63.3467L72.5268 63.2195L72.6221 63.092L72.7017 62.9647L72.7959 62.8215L72.8913 62.694L72.9857 62.5667L73.0651 62.4395L73.1593 62.312L73.0333 62.2165L72.9071 62.1211L72.7801 62.0255L72.6539 61.9461L72.511 61.8505L72.3848 61.7709L72.2426 61.6913L72.0998 61.6117L71.9736 61.548L71.8314 61.4684L71.6728 61.4047L71.3888 61.2774L71.2466 61.2297L71.0879 61.1661L70.9457 61.134L70.8037 61.0863L70.6449 61.0386L70.5029 61.0068L70.1871 60.943L70.044 60.9113L69.886 60.8795L69.7122 60.8636L69.5544 60.8318L69.3796 60.8157H69.2218L68.8741 60.784H68.1939L67.8783 60.8157L67.7192 60.8318L67.5614 60.8476L67.4192 60.8795L67.2614 60.9113L67.1186 60.943L66.9764 60.9749L66.8502 61.0068L66.7071 61.0547L66.5493 61.1182L66.3915 61.1661L66.2485 61.2297L66.1065 61.3092L65.9645 61.373L65.8214 61.4524L65.6955 61.532L65.5691 61.6276L65.442 61.723L65.3318 61.8026L65.2048 61.914L65.0944 62.0415L64.9834 62.153L64.8732 62.2803L64.7778 62.4076L64.6832 62.5349L64.604 62.678L64.5254 62.8215L64.462 62.9647L64.3983 63.108L64.3358 63.2511L64.3042 63.3942L64.2563 63.5378L64.1927 63.824L64.1769 63.9834L64.1611 64.1267L64.1451 64.2857V64.652L64.1611 64.8269L64.1927 65.1453L64.2245 65.2886L64.2563 65.4478L64.3042 65.5751L64.3507 65.7184L64.3983 65.8459L64.462 65.9563L64.5414 66.0994L64.6198 66.2269L64.6994 66.3382L64.7936 66.4494L64.889 66.5611L64.9994 66.6726L65.1104 66.7838L65.2206 66.8794L65.3476 66.959L65.4738 67.0547L65.6158 67.134L65.7431 67.2136L65.9011 67.2932L66.0429 67.3728L66.2017 67.4365L66.5175 67.5638L66.6913 67.6276L66.8344 67.6753L67.1186 67.7709L67.2764 67.8028L67.4192 67.8503L67.5774 67.8982L67.735 67.9301L67.8939 67.9778L68.0519 68.0097L68.2257 68.0574L68.3837 68.0892L68.5573 68.1369L68.7163 68.1686L68.8741 68.2165L69.0161 68.2482L69.1592 68.2961L69.2852 68.328L69.3956 68.3599L69.5852 68.4392L69.744 68.503L69.886 68.5667L70.0122 68.6303L70.1395 68.7259L70.2496 68.8213L70.3291 68.9328L70.3927 69.0919L70.4083 69.283V69.3146L70.3927 69.474L70.3449 69.6172L70.2812 69.7446L70.1871 69.8561L70.06 69.9515L69.9496 70.0153L69.8226 70.063L69.6804 70.0946L69.5386 70.1267L69.3796 70.1584L69.2057 70.1742H68.8581L68.6845 70.1584H68.5265L68.3677 70.1267L68.1939 70.1107L68.0361 70.0788L67.7192 70.0153L67.5774 69.9674L67.2614 69.8719L67.1186 69.8084L66.9764 69.7605L66.8344 69.6967L66.6913 69.6332L66.5493 69.5694L66.4233 69.4899L66.2801 69.4263L66.1543 69.3465L66.0121 69.2511L65.8851 69.1717L65.7431 69.0761L65.6158 68.9807L65.4738 68.8851L65.3476 68.7896L65.2524 68.9169L65.1422 69.0282L65.0468 69.1557L64.9366 69.283L64.8414 69.3942L64.7468 69.5217L64.6358 69.649L64.5414 69.7605L64.4302 69.8878L64.3358 69.9992L64.2245 70.1267L64.1303 70.254L64.0349 70.3653L63.9245 70.4926L63.8293 70.6201L63.7191 70.7315L63.6237 70.8588L63.7499 70.9703L63.8609 71.0657L63.9873 71.1613L64.1143 71.2567L64.3665 71.4478L64.4936 71.5274L64.6198 71.6069L64.7628 71.6865L64.889 71.7659L65.031 71.8457L65.1738 71.9094L65.316 71.988L65.458 72.0517L65.6009 72.1153L65.7589 72.179L65.9011 72.2267L66.0589 72.2744L66.2017 72.3382L66.5175 72.4336L66.6597 72.4657L66.8184 72.5132L67.2922 72.6088L67.4512 72.6405L67.609 72.6565L67.7668 72.6884L67.9408 72.7042L68.2575 72.7363H68.4311L68.5893 72.7521H69.2536L69.4116 72.7363L69.5852 72.7203L69.744 72.7042L69.886 72.6884L70.044 72.6726L70.2031 72.6405L70.4871 72.5769L70.6449 72.5451L70.7879 72.4973L70.9457 72.4494L71.1037 72.4019L71.2615 72.3382L71.4204 72.2744L71.5624 72.1948L71.7044 72.1311L71.8474 72.0517L71.9736 71.9561L72.0998 71.8776L72.2268 71.7821L72.3372 71.6865L72.4641 71.5751L72.5584 71.4796L72.6697 71.368L72.7641 71.2567L72.8435 71.1294L72.9381 71.0021L73.0173 70.8746L73.0967 70.7474L73.1593 70.6042L73.2229 70.4767L73.2863 70.3336L73.3342 70.1742L73.3649 70.0309L73.4125 69.8719L73.4443 69.7126L73.4601 69.5378Z" fill="#1E1E1E"/>
<path d="M26.4191 86.2988H59.7389L42.7318 91.9188L26.4191 86.2988Z" fill="#1E1E1E"/>
</svg>
