<svg width="124" height="100" viewBox="0 0 124 100" fill="none" xmlns="http://www.w3.org/2000/svg">
<path d="M59.1723 40.1128L120.845 65.9899C105.843 70.1637 70.1734 78.1772 47.5046 76.8416C24.8358 75.506 6.38963 65.1552 0.000139167 60.1467C3.05598 56.2512 12.668 46.7907 26.6693 40.1128C40.6706 33.4348 54.1719 37.3303 59.1723 40.1128Z" fill="#E2E2E2"/>
<path fill-rule="evenodd" clip-rule="evenodd" d="M60.6842 39.099L123.971 67.4953C107.668 71.8061 68.8339 78.0937 47.5045 76.837C26.3745 75.5921 8.91327 66.5143 1.46542 61.2314C0.923026 60.8466 0.433727 60.4821 0 60.1421C0.320401 59.7336 0.712863 59.264 1.17491 58.7429C5.11968 54.2933 14.1359 46.0859 26.6692 40.1081C40.6705 33.4301 55.6838 36.3166 60.6842 39.099ZM2.649 59.832C6.48776 55.5378 15.2607 47.5731 27.4534 41.7577C40.7981 35.3929 55.0544 37.6246 59.6726 40.1943L115.198 65.5969C107.733 67.504 97.5386 69.8078 86.7392 71.6767C73.1494 74.0285 58.7315 75.6683 47.6116 75.0131C26.9918 73.7982 9.92616 64.9569 2.649 59.832Z" fill="#1E1E1E"/>
<path d="M26.8348 27.7318C41.0003 20.9755 54.6592 24.9092 59.7553 27.7449L124 67.538L59.5461 32.7544C54.4489 29.9188 40.7912 25.9865 26.6271 32.7421C19.5312 36.1265 13.5751 42.3143 9.02559 48.1063C6.74743 51.0065 5.07945 53.4768 3.52716 55.8025C3.10603 56.4333 3.05905 56.459 0.0212177 60.1203C2.21066 56.9057 4.36691 53.6639 6.33697 50.3099C7.22156 48.8039 8.17995 47.2284 9.20873 45.6346C13.7493 38.6004 19.7108 31.1296 26.8348 27.7318Z" fill="#1E1E1E"/>
<path d="M59.7508 32.3117C54.6535 29.4761 40.9957 25.5439 26.8316 32.2995C19.7358 35.6839 13.7798 41.8715 9.23017 47.6635C6.95203 50.5639 5.01903 53.3749 3.46673 55.7005C3.46673 55.7005 2.07354 57.3797 0.0102431 60.1378C3.10671 56.1905 12.7635 47.3563 26.8322 40.6462C40.9772 33.8997 54.6373 36.4056 59.7508 39.2404L123.935 67.4857L59.7508 32.3117Z" fill="#E2E2E2"/>
<path d="M55.619 67.0466C43.6517 67.0466 33.9503 57.3296 33.9503 45.3432C33.9503 42.6748 34.431 40.119 35.3105 37.7577C46.5438 34.9761 56.4878 38.0372 60.6218 40.3376L77.2012 47.2942C76.2164 58.3665 66.9297 67.0466 55.619 67.0466Z" fill="url(#paint0_linear_1190_13216)"/>
<path d="M55.5417 63.6047C44.7499 63.6047 36.0015 54.8599 36.0015 44.0726C36.0015 41.6713 36.435 39.3711 37.2281 37.2461C47.3579 34.7428 56.3252 37.4976 60.0531 39.5678L75.0039 45.8284C74.1158 55.7931 65.7414 63.6047 55.5417 63.6047Z" fill="#1E1E1E"/>
<path d="M63.9974 48.7282L77.4057 53.6548C77.4844 53.6836 77.5367 53.7586 77.5367 53.8424V56.9386C77.5367 57.0939 77.3673 57.19 77.2339 57.1102L63.8257 49.0874C63.6173 48.9628 63.7695 48.6445 63.9974 48.7282Z" fill="#E2E2E2"/>
<path d="M43.9469 41.4663L34.8823 39.0565L35.0582 37.748L37.2865 37.2976L43.9469 41.4663Z" fill="#1E1E1E"/>
<path d="M43.9469 41.4663L34.8823 39.0565L37.6167 38.6998L43.9469 41.4663Z" fill="#E2E2E2"/>
<defs>
<linearGradient id="paint0_linear_1190_13216" x1="80.4093" y1="-41.6179" x2="80.4093" y2="132.745" gradientUnits="userSpaceOnUse">
<stop stop-color="#006568"/>
<stop offset="1" stop-color="#00C8CE"/>
</linearGradient>
</defs>
</svg>
