<svg width="124" height="100" viewBox="0 0 124 100" fill="none" xmlns="http://www.w3.org/2000/svg">
<path d="M59.1631 40.254L120.833 66.1406C105.832 70.3158 70.1636 78.3323 47.4959 76.9962C24.8283 75.6602 6.38308 65.3055 -0.00608642 60.2952C3.0496 56.3983 12.6611 46.9344 26.6617 40.254C40.6623 33.5736 54.1629 37.4705 59.1631 40.254Z" fill="#E2E2E2"/>
<path fill-rule="evenodd" clip-rule="evenodd" d="M60.6749 39.2399L123.959 67.6465C107.657 71.9588 68.8242 78.2487 47.4958 76.9916C26.3669 75.7462 8.9066 66.6651 1.45912 61.3803C0.916754 60.9954 0.42748 60.6307 -0.00622559 60.2906C0.314159 59.882 0.706602 59.4122 1.16863 58.8909C5.1132 54.4397 14.1289 46.2293 26.6616 40.2494C40.6622 33.569 55.6747 36.4564 60.6749 39.2399ZM2.64264 59.9804C6.48121 55.6846 15.2537 47.717 27.4458 41.8995C40.7898 35.5324 55.0454 37.7649 59.6633 40.3356L115.186 65.7474C107.722 67.6552 97.5274 69.9599 86.7286 71.8295C73.1395 74.1822 58.7223 75.8224 47.6029 75.167C26.9842 73.9517 9.91943 65.1072 2.64264 59.9804Z" fill="#1E1E1E"/>
<path d="M26.8272 27.8686C40.992 21.1098 54.6502 25.045 59.746 27.8817L123.988 67.6892L59.5368 32.893C54.4399 30.0563 40.7829 26.1227 26.6195 32.8807C19.524 36.2664 13.5682 42.4563 9.01891 48.2504C6.74087 51.1518 5.07297 53.6229 3.52076 55.9494C3.09965 56.5805 3.05267 56.6062 0.0149911 60.2688C2.20432 57.053 4.36046 53.8101 6.33043 50.4549C7.21497 48.9483 8.17331 47.3722 9.20204 45.7778C13.7423 38.7412 19.7035 31.2676 26.8272 27.8686Z" fill="#1E1E1E"/>
<path d="M59.7415 32.4502C54.6445 29.6135 40.9874 25.6798 26.824 32.4379C19.7285 35.8235 13.7728 42.0135 9.22348 47.8076C6.94545 50.7089 5.01255 53.521 3.46033 55.8474C3.46033 55.8474 2.06721 57.5272 0.00401695 60.2864C3.10033 56.3377 12.7566 47.5002 26.8246 40.7876C40.9689 34.0387 54.6283 36.5455 59.7415 39.3813L123.923 67.6369L59.7415 32.4502Z" fill="#E2E2E2"/>
<path d="M55.6099 67.1977C43.6432 67.1977 33.9423 57.4772 33.9423 45.4863C33.9423 42.817 34.423 40.2602 35.3025 37.8981C46.5352 35.1156 56.4787 38.1777 60.6125 40.4789L77.1911 47.438C76.2063 58.5144 66.9201 67.1977 55.6099 67.1977Z" fill="#1E1E1E"/>
<path fill-rule="evenodd" clip-rule="evenodd" d="M6.33616 1.36727C8.15551 -0.45575 11.1052 -0.455764 12.9246 1.36727L53.5811 42.1059C54.2935 42.8196 55.4484 42.8196 56.1607 42.1059L96.8173 1.36728C98.6367 -0.455747 101.587 -0.455747 103.406 1.36728C105.226 3.1903 105.226 6.14602 103.406 7.96904L62.7492 48.7076C62.0369 49.4214 62.0369 50.5787 62.7492 51.2924L103.406 92.031C105.226 93.854 105.226 96.8097 103.406 98.6328C101.587 100.456 98.6367 100.456 96.8173 98.6328L56.1607 57.8942C55.4484 57.1804 54.2935 57.1804 53.5812 57.8942L12.9246 98.6328C11.1052 100.456 8.1555 100.456 6.33615 98.6328C4.51679 96.8097 4.51678 93.854 6.33614 92.031L46.9927 51.2924C47.705 50.5787 47.705 49.4214 46.9927 48.7076L6.33615 7.96903C4.5168 6.14601 4.5168 3.1903 6.33616 1.36727ZM10.345 3.95207C9.95035 3.5566 9.31044 3.55659 8.91576 3.95208C8.52108 4.34755 8.52108 4.98875 8.91576 5.38423L49.5723 46.1228C51.7093 48.2642 51.7093 51.7359 49.5723 53.8772L8.91575 94.6158C8.52107 95.0113 8.52106 95.6525 8.91575 96.048C9.31043 96.4434 9.95034 96.4434 10.345 96.048L51.0015 55.3094C53.1386 53.1681 56.6033 53.1681 58.7404 55.3094L99.3969 96.048C99.7916 96.4434 100.432 96.4434 100.827 96.048C101.221 95.6525 101.221 95.0113 100.827 94.6158L60.1696 53.8772C58.0326 51.7359 58.0326 48.2641 60.1696 46.1228L100.827 5.38424C101.221 4.98876 101.221 4.34756 100.827 3.95208C100.432 3.5566 99.7916 3.5566 99.3969 3.95208L58.7403 44.6907C56.6033 46.832 53.1386 46.832 51.0015 44.6907L10.345 3.95207Z" fill="#FF6568"/>
<path d="M52.2904 56.6071C53.7151 55.1796 56.0249 55.1796 57.4496 56.6071L98.2022 97.4419C99.3117 98.5537 101.111 98.5537 102.221 97.4419C103.33 96.3302 103.33 94.5278 102.221 93.4161L61.4674 52.5812C60.0427 51.1537 60.0427 48.8392 61.4674 47.4116L102.221 6.57675C103.33 5.46503 103.33 3.66258 102.221 2.55086C101.111 1.43914 99.3117 1.43914 98.2022 2.55086L57.4496 43.3857C56.0249 44.8133 53.7151 44.8133 52.2904 43.3857L11.5378 2.55086C10.4283 1.43914 8.62951 1.43914 7.52003 2.55085C6.41055 3.66257 6.41055 5.46502 7.52003 6.57674L48.2726 47.4116C49.6973 48.8392 49.6973 51.1537 48.2726 52.5812L7.52002 93.4161C6.41054 94.5278 6.41054 96.3302 7.52002 97.4419C8.6295 98.5537 10.4283 98.5537 11.5378 97.4419L52.2904 56.6071Z" fill="#1E1E1E"/>
</svg>
