<svg width="100" height="100" viewBox="0 0 100 100" fill="none" xmlns="http://www.w3.org/2000/svg">
<path d="M99.9998 50C99.9998 77.6144 77.614 100 49.9998 100C22.3855 100 -0.000244141 77.6144 -0.000244141 50C-0.000244141 22.3858 22.3855 0 49.9998 0C77.614 0 99.9998 22.3858 99.9998 50Z" fill="#E2E2E2"/>
<path d="M41.4997 99.2805V65.5201H29.2197V51.2801H41.4997V40.8001C41.4997 28.6401 48.9397 22.0002 59.8197 22.0002C63.4803 21.9946 67.1387 22.1815 70.7797 22.5602V35.2801H63.2597C57.3397 35.2801 56.2197 38.0001 56.2197 42.2001V51.2801H70.2997L68.4597 65.5201H56.2197V99.6169C54.1819 99.8699 52.106 100 49.9998 100C47.1022 100 44.2623 99.7539 41.4997 99.2805Z" fill="#1E1E1E"/>
</svg>
