<svg width="418" height="100" viewBox="0 0 418 100" fill="none" xmlns="http://www.w3.org/2000/svg">
<path d="M10.761 98.1185C9.51937 99.3728 8.02478 100 6.27726 100C4.52975 100 3.05815 99.3728 1.86248 98.1185C0.620828 96.9106 0 95.4239 0 93.6585V6.34146C0 4.62253 0.620828 3.13589 1.86248 1.88153C3.05815 0.627178 4.52975 0 6.27726 0H65.6698C67.4173 0 68.9119 0.627178 70.1536 1.88153C71.3952 3.13589 72.0161 4.62253 72.0161 6.34146C72.0161 8.10685 71.3952 9.61672 70.1536 10.8711C68.9119 12.1254 67.4173 12.7526 65.6698 12.7526H12.6235V43.6237H51.3218C53.0233 43.6237 54.4949 44.2509 55.7366 45.5052C56.9782 46.7596 57.5991 48.2695 57.5991 50.0348C57.5991 51.7538 56.9782 53.2404 55.7366 54.4948C54.4949 55.7491 53.0233 56.3763 51.3218 56.3763H12.6235V93.6585C12.6235 95.4239 12.0027 96.9106 10.761 98.1185Z" fill="#E2E2E2"/>
<path d="M152.894 23.6934C145.72 16.3995 137.029 12.7526 126.819 12.7526C116.656 12.7526 107.965 16.3995 100.745 23.6934C93.5707 30.9408 89.9837 39.7213 89.9837 50.0348C89.9837 60.302 93.5707 69.0825 100.745 76.3763C107.965 83.6237 116.656 87.2474 126.819 87.2474C137.029 87.2474 145.72 83.6237 152.894 76.3763C160.114 69.0825 163.724 60.302 163.724 50.0348C163.724 39.7213 160.114 30.9408 152.894 23.6934ZM161.862 85.3659C152.204 95.122 140.524 100 126.819 100C113.161 100 101.503 95.122 91.8462 85.3659C82.1888 75.6098 77.3602 63.8328 77.3602 50.0348C77.3602 36.1905 82.1888 24.3902 91.8462 14.6341C101.503 4.87805 113.161 0 126.819 0C140.524 0 152.204 4.87805 161.862 14.6341C171.519 24.3902 176.348 36.1905 176.348 50.0348C176.348 63.8328 171.519 75.6098 161.862 85.3659Z" fill="#E2E2E2"/>
<path d="M242.119 46.6899C245.936 42.7875 247.845 38.0952 247.845 32.6132C247.845 27.1312 245.936 22.439 242.119 18.5366C238.256 14.6806 233.612 12.7526 228.185 12.7526H201.282V52.4739H228.185C233.612 52.4739 238.256 50.5459 242.119 46.6899ZM199.42 98.1185C198.178 99.3728 196.684 100 194.936 100C193.189 100 191.717 99.3728 190.521 98.1185C189.28 96.9106 188.659 95.4239 188.659 93.6585V6.34146C188.659 4.62253 189.28 3.13589 190.521 1.88153C191.717 0.627178 193.189 0 194.936 0H228.185C237.107 0 244.717 3.18235 251.018 9.54704C257.318 15.9582 260.468 23.6469 260.468 32.6132C260.468 40.0465 258.215 46.6899 253.708 52.5436C249.293 58.3043 243.637 62.1371 236.739 64.0418L259.778 89.338C260.974 90.6388 261.549 92.1487 261.503 93.8676C261.411 95.633 260.721 97.1196 259.433 98.3275C258.238 99.4425 256.812 100 255.157 100C253.317 100 251.776 99.3264 250.535 97.9791L220.666 65.2265H201.282V93.6585C201.282 95.4239 200.662 96.9106 199.42 98.1185Z" fill="#E2E2E2"/>
<path d="M306.235 89.0592C299.015 96.3531 290.323 100 280.16 100C278.413 100 276.941 99.3728 275.745 98.1185C274.504 96.9106 273.883 95.4239 273.883 93.6585C273.883 91.8931 274.504 90.3833 275.745 89.1289C276.941 87.8746 278.413 87.2474 280.16 87.2474C286.874 87.2474 292.6 84.8548 297.336 80.0697C302.119 75.2846 304.51 69.5006 304.51 62.7178V6.34146C304.51 4.62253 305.108 3.13589 306.304 1.88153C307.546 0.627178 309.04 0 310.788 0C312.535 0 314.007 0.627178 315.203 1.88153C316.444 3.13589 317.065 4.62253 317.065 6.34146V62.7178C317.065 72.9849 313.455 81.7654 306.235 89.0592Z" fill="#E2E2E2"/>
<path d="M358.348 58.1882H389.459L373.869 22.23L358.348 58.1882ZM379.663 3.83275L417.465 91.0801C418.155 92.6597 418.178 94.2857 417.534 95.9582C416.936 97.5842 415.832 98.7456 414.223 99.4425C413.395 99.8142 412.544 100 411.67 100C408.957 100 407.049 98.7224 405.945 96.1672L394.977 70.8711H352.83L341.862 96.1672C341.172 97.7933 340.022 98.9082 338.413 99.5122C336.803 100.163 335.194 100.139 333.584 99.4425C331.974 98.7456 330.871 97.5842 330.273 95.9582C329.629 94.2857 329.652 92.6597 330.342 91.0801L368.143 3.83275C369.247 1.27758 371.156 0 373.869 0C376.628 0 378.56 1.27758 379.663 3.83275Z" fill="#E2E2E2"/>
</svg>
