<svg width="52" height="100" viewBox="0 0 52 100" fill="none" xmlns="http://www.w3.org/2000/svg">
<path d="M43.0341 43.159C42.8637 45.1249 44.028 46.7561 44.6315 47.3259C45.3414 46.6136 46.8039 44.783 46.9743 43.159C47.1447 41.535 45.1994 39.4195 44.2055 38.5647C43.7795 39.2058 43.247 40.7016 43.0341 43.159Z" fill="#E2E2E2"/>
<path d="M37.8159 26.8119C39.8605 28.6923 40.3007 31.9404 40.2652 33.3294C41.3302 32.2609 42.0756 29.1625 42.1821 27.6666C42.2886 26.1708 39.9457 21.0423 38.1353 19.5465C36.687 18.3498 34.763 15.0591 33.9821 13.5632C33.4496 18.9054 35.26 24.4613 37.8159 26.8119Z" fill="#E2E2E2"/>
<path d="M11.1924 89.5293C11.7035 91.8371 13.4642 93.625 14.2807 94.2304H11.1924C10.3759 94.2304 8.16791 93.8458 5.86764 92.3072C2.9923 90.384 -0.202521 88.0335 0.0104668 78.6312C0.180857 71.1094 3.34728 66.7359 4.9092 65.4894C4.55422 67.7687 2.56633 73.7164 5.33517 80.4476C7.99752 87.8198 10.5534 86.6445 11.1924 89.5293Z" fill="#E2E2E2"/>
<path d="M7.89101 51.2792C6.44269 53.8434 7.28754 57.6898 7.89101 59.2925C8.95595 54.0571 12.6833 51.2792 13.3222 48.2875C13.9612 45.2959 13.7482 41.2358 13.3222 43.159C12.9815 44.6976 11.4053 46.2219 10.6599 46.7917C10.3404 47.2191 9.16894 48.0738 7.89101 51.2792Z" fill="#E2E2E2"/>
<path d="M7.99753 68.5879C5.95284 73.5454 8.84948 80.1983 10.5534 82.905C10.5534 76.067 11.8313 74.5711 12.3638 72.0069C12.8963 69.4426 20.6703 59.5061 23.0132 56.7282C25.356 53.9503 25.995 48.5012 25.1431 42.6248C24.4615 37.9237 19.2504 32.902 16.73 30.9788C19.9249 35.0389 20.8833 41.77 20.0314 46.4712C19.3498 50.2321 15.4166 55.8734 13.5352 58.224C12.5413 59.613 9.9144 62.2841 7.99753 68.5879Z" fill="#E2E2E2"/>
<path d="M39.5198 76.1738C39.9457 77.114 40.1942 79.5572 40.2652 80.6612C41.8981 78.2038 45.3556 72.9257 46.1224 71.4727C47.0808 69.6563 47.0808 65.1689 46.7613 60.7883C46.5058 57.2838 43.815 53.7009 42.5016 52.3476C43.5665 62.2841 39.9457 66.5578 38.6678 68.3742C37.3899 70.1905 38.9873 74.9985 39.5198 76.1738Z" fill="#E2E2E2"/>
<path d="M19.6054 88.354C19.435 91.2602 21.3803 95.6906 22.3742 97.5426C21.4513 97.0084 18.9877 95.1066 16.5171 91.773C13.4287 87.6061 13.2157 81.8365 14.2807 75.6396C15.3456 69.4426 23.4392 61.2156 26.1015 57.1556C28.7639 53.0955 30.0418 50.9586 29.9353 43.3727C29.8288 35.7868 27.9119 38.8853 24.2911 26.5982C20.6703 14.3111 24.7171 4.90887 26.1015 2.13093C27.2091 -0.0914247 28.4089 -0.148408 28.8704 0.100895C28.2669 1.24056 26.9535 4.24644 26.5275 7.1526C26.1015 10.0588 26.705 13.9194 27.06 15.4864C27.6989 19.4397 34.1951 31.2993 36.6444 35.2526C38.8933 38.8822 39.5198 46.6849 38.9873 52.3476C38.5613 56.8778 34.621 62.6402 32.7041 64.9552C29.9353 68.6947 23.9929 76.708 22.3742 78.8449C20.3508 81.516 19.8184 84.7213 19.6054 88.354Z" fill="#E2E2E2"/>
<path d="M41.0107 88.5677L38.4548 94.4441L40.7398 94.2878C42.3267 94.1793 43.8802 93.7784 45.3224 93.1054L45.8077 92.879C47.0694 92.2902 48.1996 91.4518 49.1305 90.4141C50.0962 89.3376 50.8263 88.07 51.2739 86.693L51.3981 86.3108C51.922 84.6988 52.1071 82.9954 51.9417 81.308L51.9175 81.0618C51.6794 78.6325 50.7865 76.3142 49.3348 74.3554L48.4652 73.1822L48.5695 75.3791C48.8305 80.8784 45.8793 86.0277 41.0107 88.5677Z" fill="#E2E2E2"/>
<path d="M33.3431 67.9468L32.851 71.5434C32.6832 72.7701 32.3161 73.9608 31.7642 75.0683L31.1748 76.2509C30.7057 77.1921 30.1082 78.0632 29.3994 78.8389L26.9534 81.516L25.9723 82.9284C25.0058 84.3196 24.3631 85.9108 24.0915 87.5845L24.0283 87.9742C23.8495 89.0761 23.8341 90.1985 23.9825 91.3049L24.3028 93.692C24.4364 94.6876 24.7014 95.6609 25.0909 96.5864L26.5275 100C27.1572 99.0875 27.9967 98.3406 28.9751 97.8225L30.2561 97.1442C30.9632 96.7698 31.6286 96.3211 32.2412 95.8056L32.8261 95.3134C34.0101 94.3171 34.9776 93.0875 35.6687 91.7008L36.2543 90.5258C36.9333 89.1632 37.3314 87.6771 37.4247 86.1565L37.6121 83.1008C37.6766 82.0494 37.5946 80.9941 37.3684 79.9655L36.1119 74.2506L35.3375 71.849C35.0737 71.031 34.7179 70.2457 34.2769 69.5083L33.3431 67.9468Z" fill="#E2E2E2"/>
<path d="M0.308907 75.2278L0.329935 75.2122C0.542923 78.5244 2.16163 86.1317 6.93256 90.0635C10.4734 92.9816 12.5126 94.0008 13.5029 94.2304H11.1924C10.3759 94.2304 8.16791 93.8458 5.86764 92.3072C2.9923 90.384 -0.202521 88.0335 0.0104668 78.6312C0.0380314 77.4144 0.144004 76.28 0.308907 75.2278Z" fill="#1E1E1E" fill-opacity="0.15"/>
<path d="M29.873 46.7484C29.9323 45.752 29.9531 44.6381 29.9353 43.3727C29.8788 39.3473 29.3125 38.3304 28.2523 36.4267C27.3146 34.7429 25.9906 32.3652 24.2911 26.5982C23.8316 25.0389 23.4956 23.5261 23.262 22.0673C23.4862 22.0773 23.9847 22.27 24.9301 22.9655C26.5275 24.1408 30.3613 33.7567 31.4262 38.4579C32.2781 42.2188 30.8582 45.5096 30.0418 46.6849L29.873 46.7484Z" fill="#1E1E1E" fill-opacity="0.15"/>
<path d="M24.64 53.652L24.6106 53.416C18.7534 55.4461 11.8313 66.5578 10.3404 70.8316C9.21765 74.05 9.66983 79.6561 10.4037 82.662C10.4545 82.7462 10.5045 82.8272 10.5534 82.905C10.5534 77.8908 11.2405 75.7491 11.817 73.9523C12.0267 73.2987 12.2218 72.6908 12.3638 72.0069C12.8963 69.4426 20.6703 59.5061 23.0132 56.7282C23.7002 55.9136 24.2406 54.8694 24.64 53.652Z" fill="#1E1E1E" fill-opacity="0.15"/>
</svg>
