<svg width="50" height="51" viewBox="0 0 50 51" fill="none" xmlns="http://www.w3.org/2000/svg">
<path id="Subtract" fill-rule="evenodd" clip-rule="evenodd" d="M25 50.25C38.8071 50.25 50 39.0571 50 25.25C50 11.4429 38.8071 0.25 25 0.25C11.1929 0.25 0 11.4429 0 25.25C0 39.0571 11.1929 50.25 25 50.25ZM11.2261 17.1102C10.9649 17.5505 10.7491 17.9344 10.7491 17.9796C10.7491 17.9796 10.5561 18.3296 10.3176 18.849C8.76194 22.3266 8.5689 26.6623 9.81799 30.3431C10.011 30.8963 10.2722 31.5851 10.4085 31.8899C10.6242 32.3641 10.75 32.5 10.75 32.5C10.75 32.5 12.3843 35.2997 14.133 36.9595C17.0968 39.7483 20.8894 41.25 25.0568 41.25C28.9403 41.25 32.1652 40.2225 34.8905 38.1224C34.9827 38.0491 35.0799 37.9733 35.1745 37.8994C35.4877 37.655 35.7736 37.4319 35.7648 37.3885L36.1055 37.0837C36.5711 36.6433 37.5476 35.4239 38.0359 34.6561C39.6938 32.0592 40.4886 29.1236 40.5 25.6122C40.5 24.6863 40.4432 23.5911 40.3751 23.1508L40.2388 22.3717H25.1704V28.2429H34.0388L33.9594 28.6607C33.6868 30.1963 32.574 32.0367 31.3363 33.0415L30.7458 33.5271L29.6103 34.1481C27.203 35.3562 24.0235 35.4804 21.4685 34.4529C19.2202 33.5609 17.4034 31.856 16.3473 29.6204C16.0815 29.0698 15.8156 28.2936 15.8027 28.2557L15.8022 28.2543C15.3139 27.0123 15.2231 24.4041 15.6205 22.9363C15.7909 22.2927 15.9385 21.8297 15.9385 21.8297C16.6993 19.5829 18.5843 17.4715 20.8326 16.3424C22.2975 15.6085 23.1718 15.4278 25.1704 15.4391C26.7828 15.4391 27.0099 15.4617 27.8956 15.7553C28.9744 16.1053 29.826 16.5456 30.7004 17.1892C31.0297 17.4376 31.3363 17.6296 31.3817 17.6296C31.4385 17.6296 32.4491 16.6585 33.6301 15.4843L35.7876 13.3277L35.3901 12.989C32.1652 10.2679 28.1454 8.98077 23.7509 9.29692C18.6751 9.64693 13.94 12.6051 11.2261 17.1102Z" fill="#E2E2E2"/>
</svg>
