<svg width="20" height="20" viewBox="0 0 20 20" fill="none" xmlns="http://www.w3.org/2000/svg">
<g id="info">
<path d="M20 10C20 15.5228 15.5228 20 10 20C4.47715 20 0 15.5228 0 10C0 4.47715 4.47715 0 10 0C15.5228 0 20 4.47715 20 10Z" fill="#E2E2E2"/>
<path d="M9 7.66667C9 7.11438 9.44772 6.66667 10 6.66667V6.66667C10.5523 6.66667 11 7.11438 11 7.66667V15.6667C11 16.219 10.5523 16.6667 10 16.6667V16.6667C9.44772 16.6667 9 16.219 9 15.6667V7.66667Z" fill="#343434"/>
<path d="M9 4.33333C9 3.78105 9.44772 3.33333 10 3.33333V3.33333C10.5523 3.33333 11 3.78105 11 4.33333V4.33333C11 4.88562 10.5523 5.33333 10 5.33333V5.33333C9.44772 5.33333 9 4.88562 9 4.33333V4.33333Z" fill="#343434"/>
</g>
</svg>
