<svg width="100" height="100" viewBox="0 0 100 100" fill="none" xmlns="http://www.w3.org/2000/svg">
<path d="M44.4498 58.3064C46.0927 59.4041 48.0242 59.99 50 59.99C51.3119 59.99 52.611 59.7316 53.823 59.2296C55.0351 58.7275 56.1363 57.9917 57.064 57.064C57.9917 56.1363 58.7275 55.0351 59.2296 53.823C59.7316 52.611 59.99 51.3119 59.99 50C59.99 48.0242 59.4041 46.0927 58.3064 44.4499C57.2087 42.807 55.6484 41.5266 53.823 40.7704C51.9976 40.0143 49.9889 39.8165 48.0511 40.202C46.1132 40.5874 44.3331 41.5389 42.936 42.936C41.5389 44.3331 40.5874 46.1132 40.2019 48.051C39.8165 49.9889 40.0143 51.9976 40.7705 53.823C41.5266 55.6484 42.807 57.2087 44.4498 58.3064Z" fill="#E2E2E2"/>
<path fill-rule="evenodd" clip-rule="evenodd" d="M73.4 67.58C74.0533 65.7911 74.3982 63.9043 74.42 62C74.57 59 74.6 57.89 74.6 50C74.6 42.11 74.57 41 74.42 38C74.4119 36.0553 74.0668 34.1268 73.4 32.3C72.9013 31.0482 72.1331 29.9215 71.15 29C70.1669 27.9285 68.9433 27.106 67.58 26.6C65.7911 25.9467 63.9043 25.6018 62 25.58C59 25.4 57.89 25.4 50 25.4C45.1195 25.4 42.8332 25.4689 41.0891 25.5214C40.0136 25.5538 39.1443 25.58 38 25.58C36.056 25.5952 34.1286 25.9401 32.3 26.6C31.0379 27.1493 29.9114 27.9685 29 29C27.9688 29.905 27.1581 31.0337 26.63 32.3C25.9488 34.1238 25.5935 36.0532 25.58 38C25.4 41 25.4 42.11 25.4 50C25.4 54.8805 25.4689 57.1668 25.5214 58.9109V58.912C25.5538 59.987 25.58 60.8561 25.58 62C25.6413 63.9558 26.0476 65.8855 26.78 67.7C27.2445 69.0056 28.0043 70.1862 29 71.15C29.9341 72.1184 31.0573 72.8842 32.3 73.4C34.1738 74.0326 36.1427 74.337 38.12 74.3C41.1199 74.48 42.2299 74.48 50.1194 74.48C58.0094 74.48 59.12 74.45 62.12 74.3C64.0243 74.2782 65.9111 73.9333 67.7 73.28C68.9997 72.7893 70.1769 72.0215 71.15 71.03C72.1516 70.0653 72.921 68.8856 73.4 67.58ZM64.0199 30.9867C64.612 30.5911 65.308 30.38 66.02 30.38C66.9748 30.38 67.8905 30.7593 68.5656 31.4344C69.2407 32.1095 69.62 33.0252 69.62 33.98C69.62 34.692 69.4089 35.388 69.0133 35.9801C68.6177 36.5721 68.0555 37.0335 67.3977 37.306C66.7399 37.5784 66.016 37.6497 65.3177 37.5108C64.6193 37.3719 63.9779 37.0291 63.4744 36.5256C62.971 36.0221 62.6281 35.3807 62.4892 34.6823C62.3503 33.984 62.4216 33.2602 62.694 32.6023C62.9665 31.9445 63.4279 31.3823 64.0199 30.9867ZM41.458 37.2183C43.9849 35.5236 46.9574 34.6159 50 34.61C52.0247 34.6021 54.0309 34.9945 55.9034 35.7648C57.7759 36.535 59.4775 37.6679 60.9106 39.0982C62.3437 40.5284 63.4798 42.2279 64.2537 44.0989C65.0276 45.9698 65.424 47.9753 65.42 50C65.42 53.0426 64.5181 56.0169 62.8284 58.5471C61.1386 61.0773 58.7368 63.0499 55.9264 64.2156C53.116 65.3813 50.0231 65.6879 47.0386 65.0965C44.054 64.5051 41.3118 63.0423 39.1582 60.8929C37.0047 58.7436 35.5366 56.0042 34.9394 53.0208C34.3422 50.0374 34.6427 46.9439 35.8029 44.1313C36.9631 41.3186 38.931 38.9129 41.458 37.2183Z" fill="#E2E2E2"/>
<path fill-rule="evenodd" clip-rule="evenodd" d="M50 100C77.6142 100 100 77.6142 100 50C100 22.3858 77.6142 0 50 0C22.3858 0 0 22.3858 0 50C0 77.6142 22.3858 100 50 100ZM78.44 30.35C79.2955 32.6882 79.7617 35.1509 79.82 37.64C80 40.8199 80 41.8399 80 49.999C80 55.0228 79.9318 57.3413 79.8793 59.1226C79.8466 60.2347 79.82 61.1378 79.82 62.36C79.7617 64.8491 79.2955 67.3118 78.44 69.65C77.685 71.6546 76.4967 73.4677 74.96 74.96C73.4745 76.4977 71.6587 77.6775 69.65 78.41C67.318 79.2915 64.8525 79.7684 62.36 79.82C59.18 80 58.16 80 50 80C41.84 80 40.82 80 37.64 79.82C35.1474 79.7684 32.682 79.2915 30.35 78.41C28.345 77.6701 26.5308 76.4913 25.04 74.96C23.5023 73.4745 22.3225 71.6587 21.59 69.65C20.7085 67.318 20.2316 64.8526 20.18 62.36C20 59.18 20 58.16 20 50C20 41.84 20 40.82 20.18 37.64C20.2316 35.1475 20.7085 32.682 21.59 30.35C22.3225 28.3413 23.5023 26.5255 25.04 25.04C26.5308 23.5087 28.345 22.3299 30.35 21.59C32.682 20.7085 35.1474 20.2316 37.64 20.18C40.82 20 41.84 20 50 20C58.16 20 59.18 20 62.36 20.18C64.8525 20.2316 67.318 20.7085 69.65 21.59C71.6587 22.3225 73.4745 23.5023 74.96 25.04C76.49 26.5378 77.6772 28.3494 78.44 30.35Z" fill="#E2E2E2"/>
<path fill-rule="evenodd" clip-rule="evenodd" d="M50 34.61C46.9574 34.6159 43.9849 35.5236 41.458 37.2183C38.931 38.9129 36.9631 41.3186 35.8029 44.1313C34.6427 46.9439 34.3422 50.0374 34.9394 53.0208C35.5366 56.0042 37.0047 58.7436 39.1582 60.8929C41.3118 63.0423 44.054 64.5051 47.0386 65.0965C50.0231 65.6879 53.116 65.3813 55.9264 64.2156C58.7368 63.0499 61.1386 61.0773 62.8284 58.5471C64.5181 56.0169 65.42 53.0426 65.42 50C65.424 47.9753 65.0276 45.9698 64.2537 44.0989C63.4798 42.2279 62.3437 40.5284 60.9106 39.0982C59.4775 37.6679 57.7759 36.535 55.9034 35.7648C54.0309 34.9945 52.0247 34.6021 50 34.61ZM44.4498 58.3064C46.0927 59.4041 48.0242 59.99 50 59.99C51.3119 59.99 52.611 59.7316 53.823 59.2296C55.0351 58.7275 56.1363 57.9917 57.064 57.064C57.9917 56.1363 58.7275 55.0351 59.2296 53.823C59.7316 52.611 59.99 51.3119 59.99 50C59.99 48.0242 59.4041 46.0927 58.3064 44.4499C57.2087 42.807 55.6484 41.5266 53.823 40.7704C51.9976 40.0143 49.9889 39.8165 48.0511 40.202C46.1132 40.5874 44.3331 41.5389 42.936 42.936C41.5389 44.3331 40.5874 46.1132 40.2019 48.051C39.8165 49.9889 40.0143 51.9976 40.7705 53.823C41.5266 55.6484 42.807 57.2087 44.4498 58.3064Z" fill="#1E1E1E"/>
<path fill-rule="evenodd" clip-rule="evenodd" d="M79.82 37.64C79.7617 35.1509 79.2955 32.6882 78.44 30.35C77.6772 28.3494 76.49 26.5378 74.96 25.04C73.4745 23.5023 71.6587 22.3225 69.65 21.59C67.318 20.7085 64.8525 20.2316 62.36 20.18C59.18 20 58.16 20 50 20C41.84 20 40.82 20 37.64 20.18C35.1474 20.2316 32.682 20.7085 30.35 21.59C28.345 22.3299 26.5308 23.5087 25.04 25.04C23.5023 26.5255 22.3225 28.3413 21.59 30.35C20.7085 32.682 20.2316 35.1475 20.18 37.64C20 40.82 20 41.84 20 50C20 58.16 20 59.18 20.18 62.36C20.2316 64.8526 20.7085 67.318 21.59 69.65C22.3225 71.6587 23.5023 73.4745 25.04 74.96C26.5308 76.4913 28.345 77.6701 30.35 78.41C32.682 79.2915 35.1474 79.7684 37.64 79.82C40.82 80 41.84 80 50 80C58.16 80 59.18 80 62.36 79.82C64.8525 79.7684 67.318 79.2915 69.65 78.41C71.6587 77.6775 73.4745 76.4977 74.96 74.96C76.4967 73.4677 77.685 71.6546 78.44 69.65C79.2955 67.3118 79.7617 64.8491 79.82 62.36C79.82 61.1378 79.8466 60.2347 79.8793 59.1226C79.9318 57.3413 80 55.0228 80 49.999C80 41.8399 80 40.8199 79.82 37.64ZM73.4 67.58C74.0533 65.7911 74.3982 63.9043 74.42 62C74.57 59 74.6 57.89 74.6 50C74.6 42.11 74.57 41 74.42 38C74.4119 36.0553 74.0668 34.1268 73.4 32.3C72.9013 31.0482 72.1331 29.9215 71.15 29C70.1669 27.9285 68.9433 27.106 67.58 26.6C65.7911 25.9467 63.9043 25.6018 62 25.58C59 25.4 57.89 25.4 50 25.4C45.1195 25.4 42.8332 25.4689 41.0891 25.5214C40.0136 25.5538 39.1443 25.58 38 25.58C36.056 25.5952 34.1286 25.9401 32.3 26.6C31.0379 27.1493 29.9114 27.9685 29 29C27.9688 29.905 27.1581 31.0337 26.63 32.3C25.9488 34.1238 25.5935 36.0532 25.58 38C25.4 41 25.4 42.11 25.4 50C25.4 54.8805 25.4689 57.1668 25.5214 58.9109V58.912C25.5538 59.987 25.58 60.8561 25.58 62C25.6413 63.9558 26.0476 65.8855 26.78 67.7C27.2445 69.0056 28.0043 70.1862 29 71.15C29.9341 72.1184 31.0573 72.8842 32.3 73.4C34.1738 74.0326 36.1427 74.337 38.12 74.3C41.1199 74.48 42.2299 74.48 50.1194 74.48C58.0094 74.48 59.12 74.45 62.12 74.3C64.0243 74.2782 65.9111 73.9333 67.7 73.28C68.9997 72.7893 70.1769 72.0215 71.15 71.03C72.1516 70.0653 72.921 68.8856 73.4 67.58Z" fill="#1E1E1E"/>
<path d="M66.02 30.38C65.308 30.38 64.612 30.5911 64.0199 30.9867C63.4279 31.3823 62.9665 31.9445 62.694 32.6023C62.4216 33.2602 62.3503 33.984 62.4892 34.6823C62.6281 35.3807 62.971 36.0221 63.4744 36.5256C63.9779 37.0291 64.6193 37.3719 65.3177 37.5108C66.016 37.6497 66.7399 37.5784 67.3977 37.306C68.0555 37.0335 68.6177 36.5721 69.0133 35.9801C69.4089 35.388 69.62 34.692 69.62 33.98C69.62 33.0252 69.2407 32.1095 68.5656 31.4344C67.8905 30.7593 66.9748 30.38 66.02 30.38Z" fill="#1E1E1E"/>
</svg>
