<svg width="100" height="100" viewBox="0 0 100 100" fill="none" xmlns="http://www.w3.org/2000/svg">
<path d="M31.0484 68.659H36.4641V44.2905H31.0484C30.3302 44.2905 29.6414 44.5758 29.1336 45.0835C28.6258 45.5913 28.3405 46.28 28.3405 46.9981V65.9514C28.3405 66.6695 28.6258 67.3582 29.1336 67.866C29.6414 68.3737 30.3302 68.659 31.0484 68.659Z" fill="#E2E2E2"/>
<path d="M68.2272 66.4388L71.6662 47.4855C71.7322 47.0924 71.7106 46.6895 71.6029 46.3057C71.4953 45.9219 71.3042 45.5667 71.0434 45.2652C70.7887 44.9596 70.4699 44.7138 70.1096 44.5453C69.7492 44.3769 69.3561 44.2898 68.9583 44.2905H56.6105C55.7368 44.289 54.8764 44.0761 54.1028 43.67C53.3292 43.2639 52.6653 42.6768 52.1678 41.9585C51.6703 41.2403 51.354 40.4124 51.2459 39.5455C51.1378 38.6786 51.241 37.7983 51.5468 36.9799L52.982 33.1081C53.2643 32.3706 53.3907 31.5826 53.3531 30.7939C53.3155 30.0051 53.1148 29.2327 52.7637 28.5254C52.4126 27.8181 51.9186 27.1913 51.313 26.6845C50.7074 26.1777 50.0033 25.8019 49.2451 25.5809L41.8798 42.1515V68.659H65.5193C66.1605 68.6695 66.7846 68.452 67.2805 68.0455C67.7764 67.6389 68.1118 67.0695 68.2272 66.4388Z" fill="#E2E2E2"/>
<path fill-rule="evenodd" clip-rule="evenodd" d="M50 100C77.6142 100 100 77.6142 100 50C100 22.3858 77.6142 0 50 0C22.3858 0 0 22.3858 0 50C0 77.6142 22.3858 100 50 100ZM72.3972 39.6455C73.4734 40.1508 74.4255 40.8861 75.1864 41.7995C75.95 42.7129 76.5035 43.783 76.8076 44.934C77.1118 46.085 77.1592 47.2889 76.9465 48.4602L73.5075 67.4135C73.1654 69.2827 72.1788 70.9728 70.7193 72.1898C69.2598 73.4068 67.4197 74.0736 65.5193 74.0742H31.0484C28.8939 74.0742 26.8276 73.2184 25.3041 71.6951C23.7807 70.1718 22.9248 68.1057 22.9248 65.9514V46.9981C22.9248 44.8438 23.7807 42.7777 25.3041 41.2544C26.8276 39.7311 28.8939 38.8753 31.0484 38.8753H37.4118L45.1292 21.5195C45.3428 21.0444 45.6888 20.6411 46.1259 20.3577C46.5629 20.0744 47.0725 19.9231 47.5933 19.922C49.4023 19.9136 51.1863 20.3441 52.7923 21.1765C54.3983 22.009 55.7783 23.2186 56.8141 24.7015C57.8498 26.1845 58.5104 27.8965 58.739 29.6908C58.9677 31.4851 58.7576 33.3081 58.1269 35.0034L56.6105 38.8753H68.9583C70.1472 38.8773 71.3211 39.1402 72.3972 39.6455Z" fill="#E2E2E2"/>
<path fill-rule="evenodd" clip-rule="evenodd" d="M75.1864 41.7995C74.4255 40.8861 73.4734 40.1508 72.3972 39.6455C71.3211 39.1402 70.1472 38.8773 68.9583 38.8753H56.6105L58.1269 35.0034C58.7576 33.3081 58.9677 31.4851 58.739 29.6908C58.5104 27.8965 57.8498 26.1845 56.8141 24.7015C55.7783 23.2186 54.3983 22.009 52.7923 21.1765C51.1863 20.3441 49.4023 19.9136 47.5933 19.922C47.0725 19.9231 46.5629 20.0744 46.1259 20.3577C45.6888 20.6411 45.3428 21.0444 45.1292 21.5195L37.4118 38.8753H31.0484C28.8939 38.8753 26.8276 39.7311 25.3041 41.2544C23.7807 42.7777 22.9248 44.8438 22.9248 46.9981V65.9514C22.9248 68.1057 23.7807 70.1718 25.3041 71.6951C26.8276 73.2184 28.8939 74.0742 31.0484 74.0742H65.5193C67.4197 74.0736 69.2598 73.4068 70.7193 72.1898C72.1788 70.9728 73.1654 69.2827 73.5075 67.4135L76.9465 48.4602C77.1592 47.2889 77.1118 46.085 76.8076 44.934C76.5035 43.783 75.95 42.7129 75.1864 41.7995ZM31.0484 68.659H36.4641V44.2905H31.0484C30.3302 44.2905 29.6414 44.5758 29.1336 45.0835C28.6258 45.5913 28.3405 46.28 28.3405 46.9981V65.9514C28.3405 66.6695 28.6258 67.3582 29.1336 67.866C29.6414 68.3737 30.3302 68.659 31.0484 68.659ZM68.2272 66.4388L71.6662 47.4855C71.7322 47.0924 71.7106 46.6895 71.6029 46.3057C71.4953 45.9219 71.3042 45.5667 71.0434 45.2652C70.7887 44.9596 70.4699 44.7138 70.1096 44.5453C69.7492 44.3769 69.3561 44.2898 68.9583 44.2905H56.6105C55.7368 44.289 54.8764 44.0761 54.1028 43.67C53.3292 43.2639 52.6653 42.6768 52.1678 41.9585C51.6703 41.2403 51.354 40.4124 51.2459 39.5455C51.1378 38.6786 51.241 37.7983 51.5468 36.9799L52.982 33.1081C53.2643 32.3706 53.3907 31.5826 53.3531 30.7939C53.3155 30.0051 53.1148 29.2327 52.7637 28.5254C52.4126 27.8181 51.9186 27.1913 51.313 26.6845C50.7074 26.1777 50.0033 25.8019 49.2451 25.5809L41.8798 42.1515V68.659H65.5193C66.1605 68.6695 66.7846 68.452 67.2805 68.0455C67.7764 67.6389 68.1118 67.0695 68.2272 66.4388Z" fill="#1E1E1E"/>
</svg>
