<svg width="100" height="100" viewBox="0 0 100 100" fill="none" xmlns="http://www.w3.org/2000/svg">
<path d="M27.2628 33.9431C29.1646 32.6753 31.399 31.9984 33.6846 31.9979C35.684 31.998 37.6532 32.5156 39.3932 33.5006C41.1332 34.4855 42.5886 35.9041 43.6178 37.6183L45.5506 40.8396L37.2622 54.6536L31.028 64.6283C29.7129 66.7241 27.4125 68.0013 24.9377 68.0013C22.6866 68.0013 21.1479 67.4858 20.136 66.6256C19.1658 65.807 18.135 64.2152 17.8394 60.8802C17.7484 59.8835 17.8621 58.7731 18.1426 57.4845C19.1431 52.823 21.3563 43.0642 22.9973 39.1228C23.8769 37.0132 25.361 35.2109 27.2628 33.9431Z" fill="#E2E2E2"/>
<path d="M62.673 54.6536L54.3884 40.8396L56.3213 37.6183C57.4343 35.7678 59.0426 34.2655 60.9644 33.2808C62.8862 32.2961 65.045 31.8683 67.197 32.0457C69.3491 32.223 71.4088 32.9985 73.1434 34.2845C74.8781 35.5707 76.2186 37.316 77.0137 39.3237C78.0768 42.2036 79.0549 45.1143 79.947 48.0516C81.2166 52.2545 82.183 56.3135 82.183 58.5267C82.183 62.8661 81.1029 65.0945 80.0115 66.239C78.9503 67.3571 77.3358 68.0013 74.9975 68.0013C72.5228 68.0013 70.2186 66.7241 68.9073 64.6245L62.673 54.6536Z" fill="#E2E2E2"/>
<path fill-rule="evenodd" clip-rule="evenodd" d="M50 100C77.6143 100 100 77.6143 100 50C100 22.3857 77.6143 0 50 0C22.3857 0 0 22.3857 0 50C0 77.6143 22.3857 100 50 100ZM42.3246 26.4746C45.4678 28.0616 48.1129 30.4841 49.9695 33.476C51.8503 30.4507 54.5372 28.0095 57.7285 26.4266C60.9199 24.8439 64.4893 24.182 68.0359 24.5154C71.5826 24.8488 74.9661 26.1643 77.8065 28.3142C80.6469 30.464 82.8318 33.3632 84.1158 36.6859C85.2352 39.7146 86.2653 42.7756 87.2046 45.8649C88.4363 49.939 89.7627 55.0287 89.7627 58.5267C89.7627 64.0371 88.3832 68.4371 85.5029 71.4652C82.5961 74.5198 78.7229 75.5809 74.9975 75.5809C72.4948 75.5806 70.0332 74.9438 67.8441 73.7307C65.655 72.5175 63.8104 70.7676 62.4835 68.6455L56.2303 58.6404L56.1924 58.5836L49.9695 48.207L43.7466 58.5836L43.7087 58.6404L37.4555 68.6455C36.1283 70.7682 34.283 72.5184 32.0933 73.7316C29.9035 74.9448 27.4411 75.5812 24.9377 75.5809C21.6254 75.5809 18.0857 74.8268 15.232 72.405C12.3328 69.9454 10.7069 66.2542 10.2863 61.5548C10.1494 59.6558 10.3001 57.7468 10.7335 55.8928C11.6696 51.5117 14.0306 40.9419 16.0013 36.2085C17.3558 32.9583 19.5797 30.1442 22.4288 28.0751C25.2779 26.006 28.642 24.762 32.1519 24.4796C35.6616 24.1974 39.1813 24.8876 42.3246 26.4746Z" fill="#E2E2E2"/>
<path fill-rule="evenodd" clip-rule="evenodd" d="M49.9695 33.476C48.1129 30.4841 45.4678 28.0616 42.3246 26.4746C39.1813 24.8876 35.6616 24.1974 32.1519 24.4796C28.642 24.762 25.2779 26.006 22.4288 28.0751C19.5797 30.1442 17.3558 32.9583 16.0013 36.2085C14.0306 40.9419 11.6696 51.5117 10.7335 55.8928C10.3001 57.7468 10.1494 59.6558 10.2863 61.5548C10.7069 66.2542 12.3328 69.9454 15.232 72.405C18.0857 74.8268 21.6254 75.5809 24.9377 75.5809C27.4411 75.5812 29.9035 74.9448 32.0933 73.7316C34.283 72.5184 36.1283 70.7682 37.4555 68.6455L43.7087 58.6404L43.7466 58.5836L49.9695 48.207L56.1924 58.5836L56.2303 58.6404L62.4835 68.6455C63.8104 70.7676 65.655 72.5175 67.8441 73.7307C70.0332 74.9438 72.4948 75.5806 74.9975 75.5809C78.7229 75.5809 82.5961 74.5198 85.5029 71.4652C88.3832 68.4371 89.7627 64.0371 89.7627 58.5267C89.7627 55.0287 88.4363 49.939 87.2046 45.8649C86.2653 42.7756 85.2352 39.7146 84.1158 36.6859C82.8318 33.3632 80.6469 30.464 77.8065 28.3142C74.9661 26.1643 71.5826 24.8488 68.0359 24.5154C64.4893 24.182 60.9199 24.8439 57.7285 26.4266C54.5372 28.0095 51.8503 30.4507 49.9695 33.476ZM27.2628 33.9431C29.1646 32.6753 31.399 31.9984 33.6846 31.9979C35.684 31.998 37.6532 32.5156 39.3932 33.5006C41.1332 34.4855 42.5886 35.9041 43.6178 37.6183L45.5506 40.8396L37.2622 54.6536L31.028 64.6283C29.7129 66.7241 27.4125 68.0013 24.9377 68.0013C22.6866 68.0013 21.1479 67.4858 20.136 66.6256C19.1658 65.807 18.135 64.2152 17.8394 60.8802C17.7484 59.8835 17.8621 58.7731 18.1426 57.4845C19.1431 52.823 21.3563 43.0642 22.9973 39.1228C23.8769 37.0132 25.361 35.2109 27.2628 33.9431ZM62.673 54.6536L54.3884 40.8396L56.3213 37.6183C57.4343 35.7678 59.0426 34.2655 60.9644 33.2808C62.8862 32.2961 65.045 31.8683 67.197 32.0457C69.3491 32.223 71.4088 32.9985 73.1434 34.2845C74.8781 35.5707 76.2186 37.316 77.0137 39.3237C78.0768 42.2036 79.0549 45.1143 79.947 48.0516C81.2166 52.2545 82.183 56.3135 82.183 58.5267C82.183 62.8661 81.1029 65.0945 80.0115 66.239C78.9503 67.3571 77.3358 68.0013 74.9975 68.0013C72.5228 68.0013 70.2186 66.7241 68.9073 64.6245L62.673 54.6536Z" fill="#1E1E1E"/>
</svg>
