<svg width="100" height="100" viewBox="0 0 100 100" fill="none" xmlns="http://www.w3.org/2000/svg">
<path d="M68.8436 57.7903C68.6168 57.9189 68.618 58.2462 68.8457 58.3732L68.8992 58.403C69.0344 58.4784 69.0807 58.6506 69.0015 58.7837C68.9254 58.9116 68.7613 58.9557 68.6314 58.8832L68.5441 58.8345C68.3205 58.7098 68.0453 58.8714 68.0453 59.1274V59.1815C68.0453 59.3368 67.9194 59.4627 67.764 59.4627C67.6087 59.4627 67.4828 59.3368 67.4828 59.1815V59.1273C67.4828 58.8714 67.2076 58.7097 66.984 58.8344L66.8967 58.8832C66.7667 58.9557 66.6027 58.9116 66.5266 58.7837C66.4474 58.6506 66.4937 58.4784 66.6289 58.403L66.6824 58.3732C66.9101 58.2462 66.9113 57.9189 66.6845 57.7903L66.6258 57.757C66.4923 57.6813 66.4476 57.5102 66.5271 57.3789C66.6031 57.2534 66.7648 57.2105 66.893 57.282L66.9797 57.3304C67.2052 57.4562 67.4828 57.2932 67.4828 57.035V56.978C67.4828 56.8226 67.6087 56.6967 67.764 56.6967C67.9194 56.6967 68.0453 56.8226 68.0453 56.978V57.035C68.0453 57.2932 68.3229 57.4562 68.5483 57.3304L68.6351 57.282C68.7633 57.2105 68.925 57.2534 69.001 57.3789C69.0804 57.5102 69.0358 57.6813 68.9023 57.757L68.8436 57.7903Z" fill="#E2E2E2"/>
<path d="M72.4397 58.7837C72.5189 58.6506 72.4726 58.4784 72.3374 58.403L72.2839 58.3732C72.0562 58.2462 72.055 57.9189 72.2818 57.7903L72.3405 57.757C72.474 57.6813 72.5186 57.5102 72.4392 57.3789C72.3632 57.2534 72.2015 57.2105 72.0733 57.282L71.9865 57.3304C71.7611 57.4562 71.4835 57.2932 71.4835 57.035V56.978C71.4835 56.8226 71.3576 56.6967 71.2022 56.6967C71.0469 56.6967 70.921 56.8226 70.921 56.978V57.035C70.921 57.2932 70.6434 57.4562 70.4179 57.3304L70.3312 57.282C70.203 57.2105 70.0413 57.2534 69.9653 57.3789C69.8858 57.5102 69.9305 57.6813 70.064 57.757L70.1227 57.7903C70.3495 57.9189 70.3483 58.2462 70.1206 58.3732L70.0671 58.403C69.9319 58.4784 69.8856 58.6506 69.9648 58.7837C70.0409 58.9116 70.2049 58.9557 70.3349 58.8832L70.4222 58.8344C70.6458 58.7097 70.921 58.8714 70.921 59.1273V59.1815C70.921 59.3368 71.0469 59.4627 71.2022 59.4627C71.3576 59.4627 71.4835 59.3368 71.4835 59.1815V59.1274C71.4835 58.8714 71.7587 58.7098 71.9823 58.8345L72.0696 58.8832C72.1995 58.9557 72.3636 58.9116 72.4397 58.7837Z" fill="#E2E2E2"/>
<path d="M75.8779 58.7837C75.9571 58.6506 75.9108 58.4784 75.7756 58.403L75.7221 58.3732C75.4944 58.2462 75.4932 57.9189 75.72 57.7903L75.7787 57.757C75.9122 57.6813 75.9568 57.5102 75.8774 57.3789C75.8014 57.2534 75.6397 57.2105 75.5115 57.282L75.4248 57.3304C75.1993 57.4562 74.9217 57.2932 74.9217 57.035V56.978C74.9217 56.8226 74.7958 56.6967 74.6404 56.6967C74.4851 56.6967 74.3592 56.8226 74.3592 56.978V57.035C74.3592 57.2932 74.0816 57.4562 73.8561 57.3304L73.7694 57.282C73.6412 57.2105 73.4795 57.2534 73.4035 57.3789C73.324 57.5102 73.3687 57.6813 73.5022 57.757L73.5609 57.7903C73.7877 57.9189 73.7865 58.2462 73.5588 58.3732L73.5053 58.403C73.3701 58.4784 73.3238 58.6506 73.403 58.7837C73.4791 58.9116 73.6431 58.9557 73.7731 58.8832L73.8604 58.8344C74.084 58.7097 74.3592 58.8714 74.3592 59.1273V59.1815C74.3592 59.3368 74.4851 59.4627 74.6404 59.4627C74.7958 59.4627 74.9217 59.3368 74.9217 59.1815V59.1274C74.9217 58.8714 75.1969 58.7098 75.4205 58.8345L75.5078 58.8832C75.6377 58.9557 75.8018 58.9116 75.8779 58.7837Z" fill="#E2E2E2"/>
<path fill-rule="evenodd" clip-rule="evenodd" d="M50 100C77.6142 100 100 77.6142 100 50C100 22.3858 77.6142 0 50 0C22.3858 0 0 22.3858 0 50C0 77.6142 22.3858 100 50 100ZM23.6404 32C21.6299 32 20 33.5922 20 35.5563V38.5199H80V35.5563C80 33.5922 78.3701 32 76.3596 32H23.6404ZM80 66.4437V44.9081H20V66.4437C20 68.4078 21.6299 70 23.6404 70H76.3596C78.3701 70 80 68.4078 80 66.4437Z" fill="#E2E2E2"/>
<path fill-rule="evenodd" clip-rule="evenodd" d="M80 66.4437V44.9081H20V66.4437C20 68.4078 21.6299 70 23.6404 70H76.3596C78.3701 70 80 68.4078 80 66.4437ZM68.8992 58.403L68.8457 58.3732C68.618 58.2462 68.6168 57.9189 68.8436 57.7903L68.9023 57.757C69.0358 57.6813 69.0804 57.5102 69.001 57.3789C68.925 57.2534 68.7633 57.2105 68.6351 57.282L68.5483 57.3304C68.3229 57.4562 68.0453 57.2932 68.0453 57.035V56.978C68.0453 56.8226 67.9194 56.6967 67.764 56.6967C67.6087 56.6967 67.4828 56.8226 67.4828 56.978V57.035C67.4828 57.2932 67.2052 57.4562 66.9797 57.3304L66.893 57.282C66.7648 57.2105 66.6031 57.2534 66.5271 57.3789C66.4476 57.5102 66.4923 57.6813 66.6258 57.757L66.6845 57.7903C66.9113 57.9189 66.9101 58.2462 66.6824 58.3732L66.6289 58.403C66.4937 58.4784 66.4474 58.6506 66.5266 58.7837C66.6027 58.9116 66.7667 58.9557 66.8967 58.8832L66.984 58.8344C67.2076 58.7097 67.4828 58.8714 67.4828 59.1273V59.1815C67.4828 59.3368 67.6087 59.4627 67.764 59.4627C67.9194 59.4627 68.0453 59.3368 68.0453 59.1815V59.1274C68.0453 58.8714 68.3205 58.7098 68.5441 58.8345L68.6314 58.8832C68.7613 58.9557 68.9254 58.9116 69.0015 58.7837C69.0807 58.6506 69.0344 58.4784 68.8992 58.403ZM72.2839 58.3732L72.3374 58.403C72.4726 58.4784 72.5189 58.6506 72.4397 58.7837C72.3636 58.9116 72.1995 58.9557 72.0696 58.8832L71.9823 58.8345C71.7587 58.7098 71.4835 58.8714 71.4835 59.1274V59.1815C71.4835 59.3368 71.3576 59.4627 71.2022 59.4627C71.0469 59.4627 70.921 59.3368 70.921 59.1815V59.1273C70.921 58.8714 70.6458 58.7097 70.4222 58.8344L70.3349 58.8832C70.2049 58.9557 70.0409 58.9116 69.9648 58.7837C69.8856 58.6506 69.9319 58.4784 70.0671 58.403L70.1206 58.3732C70.3483 58.2462 70.3495 57.9189 70.1227 57.7903L70.064 57.757C69.9305 57.6813 69.8858 57.5102 69.9653 57.3789C70.0413 57.2534 70.203 57.2105 70.3312 57.282L70.4179 57.3304C70.6434 57.4562 70.921 57.2932 70.921 57.035V56.978C70.921 56.8226 71.0469 56.6967 71.2022 56.6967C71.3576 56.6967 71.4835 56.8226 71.4835 56.978V57.035C71.4835 57.2932 71.7611 57.4562 71.9865 57.3304L72.0733 57.282C72.2015 57.2105 72.3632 57.2534 72.4392 57.3789C72.5186 57.5102 72.474 57.6813 72.3405 57.757L72.2818 57.7903C72.055 57.9189 72.0562 58.2462 72.2839 58.3732ZM75.7221 58.3732L75.7756 58.403C75.9108 58.4784 75.9571 58.6506 75.8779 58.7837C75.8018 58.9116 75.6377 58.9557 75.5078 58.8832L75.4205 58.8345C75.1969 58.7098 74.9217 58.8714 74.9217 59.1274V59.1815C74.9217 59.3368 74.7958 59.4627 74.6404 59.4627C74.4851 59.4627 74.3592 59.3368 74.3592 59.1815V59.1273C74.3592 58.8714 74.084 58.7097 73.8604 58.8344L73.7731 58.8832C73.6431 58.9557 73.4791 58.9116 73.403 58.7837C73.3238 58.6506 73.3701 58.4784 73.5053 58.403L73.5588 58.3732C73.7865 58.2462 73.7877 57.9189 73.5609 57.7903L73.5022 57.757C73.3687 57.6813 73.324 57.5102 73.4035 57.3789C73.4795 57.2534 73.6412 57.2105 73.7694 57.282L73.8561 57.3304C74.0816 57.4562 74.3592 57.2932 74.3592 57.035V56.978C74.3592 56.8226 74.4851 56.6967 74.6404 56.6967C74.7958 56.6967 74.9217 56.8226 74.9217 56.978V57.035C74.9217 57.2932 75.1993 57.4562 75.4248 57.3304L75.5115 57.282C75.6397 57.2105 75.8014 57.2534 75.8774 57.3789C75.9568 57.5102 75.9122 57.6813 75.7787 57.757L75.72 57.7903C75.4932 57.9189 75.4944 58.2462 75.7221 58.3732Z" fill="#1E1E1E"/>
<path d="M23.6404 32C21.6299 32 20 33.5922 20 35.5563V38.5199H80V35.5563C80 33.5922 78.3701 32 76.3596 32H23.6404Z" fill="#1E1E1E"/>
</svg>
