<svg width="100" height="100" viewBox="0 0 100 100" fill="none" xmlns="http://www.w3.org/2000/svg">
<path fill-rule="evenodd" clip-rule="evenodd" d="M50 100C77.6142 100 100 77.6142 100 50C100 22.3858 77.6142 0 50 0C22.3858 0 0 22.3858 0 50C0 77.6142 22.3858 100 50 100ZM56.6305 28.4676C57.5343 27.7557 58.869 27.8651 59.6325 28.7383C60.4206 29.6395 60.2794 30.9828 59.3475 31.7169L57.632 33.0682C58.9457 33.4855 60.2347 34.0331 61.4799 34.7154C71.5211 40.2178 75.0003 52.4469 69.1722 62.0281C63.3616 71.5803 50.5347 74.8192 40.5201 69.3313C30.4789 63.8289 26.9997 51.5998 32.8278 42.0186C35.3756 37.8302 39.2778 34.8554 43.6881 33.2992C44.8295 32.8964 46.0267 33.5224 46.3982 34.5886C46.7896 35.712 46.1552 36.876 45.0875 37.2582C41.5979 38.5072 38.5395 40.8598 36.5403 44.1464C31.9635 51.6706 34.659 61.314 42.6399 65.6874C50.6474 70.0753 60.8651 67.4535 65.4597 59.9003C70.0365 52.3762 67.341 42.7327 59.3601 38.3593C59.2333 38.2899 59.106 38.2222 58.9782 38.1562C59.4876 39.0314 59.282 40.1578 58.4576 40.8072C57.5537 41.5192 56.219 41.4098 55.4555 40.5366L51.1117 35.5691C50.4851 34.8525 50.4411 33.8438 50.9199 33.0966C51.0414 32.9114 51.212 32.736 51.3967 32.5905L56.6305 28.4676Z" fill="#E2E2E2"/>
<path d="M59.6325 28.7383C58.869 27.8651 57.5343 27.7557 56.6305 28.4676L51.3967 32.5905C51.212 32.736 51.0414 32.9114 50.9199 33.0966C50.4411 33.8438 50.4851 34.8525 51.1117 35.5691L55.4555 40.5366C56.219 41.4098 57.5537 41.5192 58.4576 40.8072C59.282 40.1578 59.4876 39.0314 58.9782 38.1562C59.106 38.2222 59.2333 38.2899 59.3601 38.3593C67.341 42.7327 70.0365 52.3762 65.4597 59.9003C60.8651 67.4535 50.6474 70.0753 42.6399 65.6874C34.659 61.314 31.9635 51.6706 36.5403 44.1464C38.5395 40.8598 41.5979 38.5072 45.0875 37.2582C46.1552 36.876 46.7896 35.712 46.3982 34.5886C46.0267 33.5224 44.8295 32.8964 43.6881 33.2992C39.2778 34.8554 35.3756 37.8302 32.8278 42.0186C26.9997 51.5998 30.4789 63.8289 40.5201 69.3313C50.5347 74.8192 63.3616 71.5803 69.1722 62.0281C75.0003 52.4469 71.5211 40.2178 61.4799 34.7154C60.2347 34.0331 58.9457 33.4855 57.632 33.0682L59.3475 31.7169C60.2794 30.9828 60.4206 29.6395 59.6325 28.7383Z" fill="#1E1E1E"/>
</svg>
