<svg width="100" height="100" viewBox="0 0 100 100" fill="none" xmlns="http://www.w3.org/2000/svg">
<path fill-rule="evenodd" clip-rule="evenodd" d="M50 100C77.6142 100 100 77.6142 100 50C100 22.3858 77.6142 0 50 0C22.3858 0 0 22.3858 0 50C0 77.6142 22.3858 100 50 100ZM34.6557 33.9733C37.8509 30.7259 42.0934 28.6087 46.5667 27.9987C48.3063 27.7476 51.7855 27.927 53.5783 28.3217C61.3533 30.08 67.2466 35.9469 69.2525 43.9309C69.572 45.2406 69.643 45.9583 69.6253 48.7034C69.6253 51.6099 69.572 52.1123 69.146 53.6911C68.3472 56.7412 67.2289 59.0377 65.3118 61.5675C64.7716 62.2989 64.8503 63.3159 65.4964 63.9555L67.8324 66.2682C70.2466 68.6545 71.3116 69.8386 71.3826 70.1795C71.5424 71.2201 70.7791 72.1172 69.6785 72.1172C69.43 72.1172 68.1342 70.933 65.7201 68.5109L63.2996 66.0766C62.6233 65.3964 61.5593 65.2922 60.7638 65.8282L60.7498 65.8376C56.9865 68.4212 52.8506 69.5874 48.182 69.3721C44.7206 69.2106 41.7384 68.3495 38.9337 66.6988C27.147 59.7195 25.0524 43.6618 34.6557 33.9733ZM53.4008 31.5691C55.1937 32.0177 57.8208 33.2377 59.3297 34.3321C61.7261 36.0725 64.0515 39.0149 65.2053 41.7779C66.2526 44.3077 66.4479 45.3303 66.4479 48.7034C66.4479 51.3587 66.3946 51.9329 66.0396 53.1888C65.1698 56.2389 63.6077 58.948 61.4776 61.0831C59.3652 63.2361 56.6848 64.815 53.6671 65.6941C52.4245 66.0529 51.8565 66.1068 49.2293 66.1068C45.8921 66.1068 44.8803 65.9094 42.3774 64.8508C39.6438 63.6846 36.7326 61.3343 35.0108 58.9122C33.9102 57.3692 32.7209 54.7138 32.2416 52.812C31.6913 50.5872 31.6913 46.4965 32.2416 44.4512C34.1055 37.5257 39.3065 32.6097 46.0874 31.3C47.9513 30.9412 51.4127 31.0668 53.4008 31.5691Z" fill="#E2E2E2"/>
<path fill-rule="evenodd" clip-rule="evenodd" d="M46.5667 27.9987C42.0934 28.6087 37.8509 30.7259 34.6557 33.9733C25.0524 43.6618 27.147 59.7195 38.9337 66.6988C41.7384 68.3495 44.7206 69.2106 48.182 69.3721C52.8506 69.5874 56.9865 68.4212 60.7498 65.8376L60.7638 65.8282C61.5593 65.2922 62.6233 65.3964 63.2996 66.0766L65.7201 68.5109C68.1342 70.933 69.43 72.1172 69.6785 72.1172C70.7791 72.1172 71.5424 71.2201 71.3826 70.1795C71.3116 69.8386 70.2466 68.6545 67.8324 66.2682L65.4964 63.9555C64.8503 63.3159 64.7716 62.2989 65.3118 61.5675C67.2289 59.0377 68.3472 56.7412 69.146 53.6911C69.572 52.1123 69.6253 51.6099 69.6253 48.7034C69.643 45.9583 69.572 45.2406 69.2525 43.9309C67.2466 35.9469 61.3533 30.08 53.5783 28.3217C51.7855 27.927 48.3063 27.7476 46.5667 27.9987ZM59.3297 34.3321C57.8208 33.2377 55.1937 32.0177 53.4008 31.5691C51.4127 31.0668 47.9513 30.9412 46.0874 31.3C39.3065 32.6097 34.1055 37.5257 32.2416 44.4512C31.6913 46.4965 31.6913 50.5872 32.2416 52.812C32.7209 54.7138 33.9102 57.3692 35.0108 58.9122C36.7326 61.3343 39.6438 63.6846 42.3774 64.8508C44.8803 65.9094 45.8921 66.1068 49.2293 66.1068C51.8565 66.1068 52.4245 66.0529 53.6671 65.6941C56.6848 64.815 59.3652 63.2361 61.4776 61.0831C63.6077 58.948 65.1698 56.2389 66.0396 53.1888C66.3946 51.9329 66.4479 51.3587 66.4479 48.7034C66.4479 45.3303 66.2526 44.3077 65.2053 41.7779C64.0515 39.0149 61.7261 36.0725 59.3297 34.3321Z" fill="#1E1E1E"/>
</svg>
