<svg width="97" height="100" viewBox="0 0 97 100" fill="none" xmlns="http://www.w3.org/2000/svg">
<path d="M40.7201 0.262063C30.5839 1.64112 20.9706 6.42724 13.7304 13.7687C-8.03032 35.6713 -3.28399 71.9728 23.4242 87.7508C29.7794 91.4823 36.5369 93.4292 44.3804 93.7943C54.9591 94.281 64.3311 91.6446 72.8584 85.8039L75.9958 83.6947L84.1209 91.8474C89.5913 97.323 92.5276 100 93.0907 100C95.5845 100 97.3141 97.972 96.9521 95.6195C96.7912 94.8488 94.3778 92.1718 88.9075 86.7773L81.064 79.0303L83.1958 76.1505C87.5399 70.4315 90.074 65.2398 91.884 58.3445C92.8494 54.7752 92.97 53.6395 92.97 47.0687C93.0102 40.863 92.8494 39.2406 92.1253 36.2797C87.5801 18.2303 74.226 4.96707 56.6083 0.99215C52.5457 0.0998212 44.662 -0.305782 40.7201 0.262063ZM56.2061 8.33358C60.2686 9.34759 66.2216 12.1057 69.6406 14.5799C75.0707 18.5142 80.34 25.1661 82.9545 31.4124C85.3276 37.1314 85.7701 39.4434 85.7701 47.0687C85.7701 53.0717 85.6494 54.3696 84.8449 57.2088C82.874 64.1041 79.3344 70.2287 74.5076 75.0554C69.721 79.9226 63.6473 83.4919 56.8094 85.4794C53.9938 86.2906 52.7066 86.4123 46.7536 86.4123C39.1917 86.4123 36.8989 85.9661 31.2275 83.5731C25.0331 80.9366 18.4365 75.6232 14.5349 70.1476C12.041 66.6594 9.34608 60.6564 8.26006 56.357C7.01314 51.3276 7.01314 42.0798 8.26006 37.4559C12.4835 21.7996 24.2689 10.6861 39.6341 7.72517C43.8575 6.91396 51.7011 7.19789 56.2061 8.33358Z" fill="#E2E2E2"/>
</svg>
