<svg width="418" height="100" viewBox="0 0 418 100" fill="none" xmlns="http://www.w3.org/2000/svg">
<path d="M401.871 41.6431C406.889 40.4159 414.715 44.7112 418 47.0122V44.1997C414.416 36.274 401.871 35.2513 399.183 34.9957C396.495 34.74 385.295 38.575 382.159 44.9667C379.65 50.0801 370.66 53.4038 366.478 54.4265C341.837 60.5625 314.06 47.5234 306.892 41.8987C292.107 31.672 281.355 11.4742 268.81 3.29275C256.266 -4.88869 229.833 4.31542 225.353 7.89482C220.872 11.4742 217.736 7.89482 213.704 7.12777C210.478 6.51413 209.672 8.4061 209.672 9.42879C213.256 7.38339 215.496 11.4742 219.528 14.0308C223.561 16.5875 224.905 12.4969 235.657 7.89482C241.929 6.61644 248.799 8.74705 249.994 11.4742C249.546 14.7979 237.449 9.42883 229.833 16.5876C227.682 19.6556 222.067 19.3999 219.528 18.8886C213.704 17.8659 202.839 18.8886 200.712 34.2287C196.769 62.6591 188.317 66.0169 184.583 64.1419C183.09 64.1419 179.476 59.8467 176.967 42.6658C173.831 21.1896 155.014 21.7009 146.502 21.4453C137.989 21.1896 135.301 31.672 131.717 34.74C128.133 37.8081 120.069 29.1153 106.628 31.672C93.1876 34.2287 83.7792 49.0575 79.2991 53.9152C74.8189 58.7729 76.611 50.5915 70.3387 51.1029C65.3209 51.5119 64.6638 53.83 64.9625 54.9379C66.0079 53.2334 68.5467 50.6426 70.3387 53.9152C72.5788 58.0059 79.7471 60.8183 83.7792 58.0059C87.005 55.756 89.0061 56.3867 89.6034 56.9832C79.9263 67.4145 58.9889 63.2045 49.7299 59.7956C53.7621 65.1646 72.1308 66.9543 83.7792 64.1419C95.4277 61.3296 95.4277 49.8245 100.356 42.6658C105.284 35.5071 117.381 39.5978 125.445 41.6431C133.509 43.6885 137.989 37.0411 144.71 31.672C151.43 26.303 162.182 33.206 167.11 37.0411C172.039 40.8761 173.831 58.7729 174.727 62.0966C175.623 65.4203 178.759 69.511 192.647 75.9027C203.758 81.0161 222.067 75.4766 229.833 72.0677C232.67 65.0794 229.833 58.7729 221.32 60.5626C207.701 68.1304 207.88 49.7393 209.672 39.5977C201.429 22.8259 230.131 21.1896 245.513 22.4679C250.173 12.2412 257.013 13.4343 259.85 15.3093C292.107 53.1482 327.949 60.0512 335.117 61.841C343.996 64.058 370.51 61.3296 380.815 58.0059C389.058 55.347 392.911 49.228 393.807 46.5008C394.404 45.3929 396.854 42.8704 401.871 41.6431Z" fill="url(#paint0_linear_1119_2472)"/>
<path d="M391.567 50.5195V50.8471C390.97 58.1763 387.445 72.9881 378.126 73.6017C372.244 73.989 366.933 73.4635 362.712 73.0459C359.221 72.7005 356.475 72.4289 354.771 72.809C354.465 72.9084 354.184 73.003 353.933 73.0903C354.176 72.9718 354.455 72.8793 354.771 72.809C357.748 71.8415 363.105 70.4183 366.03 70.7893C370.062 71.3006 370.51 66.6986 364.686 66.9543C358.862 67.2099 300.171 62.8636 277.771 38.8307C262.134 22.0554 260.687 24.339 258.953 27.0742C258.203 28.2575 257.399 29.5254 255.37 29.371C254.53 29.3071 253.354 29.1872 251.933 29.0424C241.985 28.0287 220.032 25.7916 217.288 32.9503C216.84 32.7799 215.944 32.1322 215.944 30.905C212.957 32.5242 207.611 36.5808 210.12 39.8534C209.913 39.6656 209.702 39.455 209.493 39.224C207.269 34.4401 208.101 30.9138 210.776 28.3497C211.246 28.0028 211.773 27.6608 212.36 27.3256V27.0788C219.778 22.0404 235.48 21.6341 245.513 22.4679C250.173 12.2412 257.013 13.4343 259.85 15.3093C290.469 51.2268 324.318 59.2704 333.807 61.5254C334.315 61.646 334.753 61.7501 335.117 61.841C343.996 64.058 370.51 61.3296 380.815 58.0059C386.043 56.3195 389.505 53.2414 391.567 50.5195Z" fill="#999999"/>
<path d="M229.833 72.0677C230.281 77.0106 227.593 87.3055 213.256 88.9418C195.336 90.9871 176.519 87.6634 172.039 77.6924C170.025 73.2111 170.546 68.2135 171.037 63.4885C171.64 57.7001 172.2 52.3209 168.007 48.8018C163.526 41.1317 150.982 31.9276 142.47 38.3194C148.443 37.9785 160.749 39.7511 162.182 49.5688C158.897 45.9042 150.713 39.0864 144.262 41.1317C137.81 43.1771 129.029 49.8245 125.445 52.8925C125.486 52.6911 125.531 52.4867 125.576 52.2809C126.174 49.526 126.832 46.5008 121.413 46.5008C121.039 46.5541 120.655 46.5964 120.259 46.6399C116.86 47.014 112.554 47.4877 105.732 55.9605C103.343 60.0512 97.1302 68.744 91.3956 70.7893C93.1877 69.2553 96.1446 65.8805 93.6357 64.6533C92.1661 63.9344 88.5321 65.0121 84.1629 66.3079C79.2083 67.7773 73.3082 69.527 68.5467 69.2553C62.2745 68.2326 46.5939 65.4203 42.5618 58.0059C35.6922 45.5633 20.9673 22.3145 17.0248 28.8596C17.4491 29.9091 19.0349 31.1115 20.9922 32.5957C25.2337 35.8118 31.2199 40.3509 30.9133 47.5235C28.3745 42.751 21.236 32.6947 12.9925 30.6493C8.24644 29.4717 6.16154 28.6196 4.81174 28.0679C3.23093 27.4218 2.65832 27.1877 0 27.3256C2.6881 25.8768 8.06434 24.5133 12.9925 24.5133C13.1027 24.5278 13.2142 24.5424 13.3272 24.5572C19.1887 25.3239 28.8171 26.5834 36.2894 41.1317C39.2762 46.586 45.877 57.8013 48.3859 59.0285C48.9675 59.313 49.5763 59.6304 50.1834 59.9598C50.0293 59.9049 49.8781 59.8502 49.7299 59.7956C53.7621 65.1646 72.1308 66.9543 83.7792 64.1419C91.8636 62.1901 94.3372 56.0511 96.7415 50.084C97.8015 47.4534 98.848 44.8561 100.356 42.6658C104.818 36.184 115.157 38.9246 123.058 41.0192C123.883 41.238 124.682 41.4497 125.445 41.6431C131.76 43.2448 135.877 39.5159 140.593 35.2447C141.899 34.0615 143.252 32.8367 144.71 31.672C151.43 26.303 162.182 33.206 167.11 37.0411C170.956 40.034 172.892 51.5913 173.983 58.1024C174.29 59.9343 174.53 61.3668 174.727 62.0966C175.623 65.4203 178.759 69.511 192.647 75.9027C203.758 81.0161 222.067 75.4766 229.833 72.0677Z" fill="#999999"/>
<path d="M214.344 96.791C193.967 98.806 173.105 95.7062 163.784 86.4818C163.961 87.0531 164.172 87.6179 164.422 88.1748C168.903 98.1458 187.719 101.47 205.64 99.4242C209.226 99.0149 212.082 98.0642 214.344 96.791Z" fill="url(#paint1_linear_1119_2472)"/>
<path fill-rule="evenodd" clip-rule="evenodd" d="M380.729 73.022L380.815 73.0903C376.185 74.7095 366.209 77.6923 363.342 76.6697C360.682 75.7211 355.063 76.7433 351.242 77.4383C349.914 77.68 348.803 77.882 348.109 77.948C345.421 78.2037 338.701 77.4367 334.221 73.0903C330.637 69.6132 326.157 69.4257 324.364 69.7666C328.206 67.3914 335.48 71.0223 340.954 73.7546C343.14 74.8457 345.039 75.7935 346.317 76.1583C349.901 77.181 352.59 74.3686 353.486 72.8346L355.418 72.6032C355.192 72.6735 354.976 72.7423 354.771 72.809C356.475 72.4289 359.221 72.7005 362.712 73.0459C366.933 73.4635 372.244 73.989 378.126 73.6017C379.05 73.5408 379.917 73.3406 380.729 73.022ZM353.933 73.0903C354.176 72.9718 354.455 72.8793 354.771 72.809C354.465 72.9084 354.184 73.003 353.933 73.0903Z" fill="#999999"/>
<path d="M383.503 30.6493C392.463 25.7404 410.234 31.6719 418 35.2513C409.04 26.5586 389.327 25.2802 379.919 26.8143C370.51 28.3483 363.342 36.5297 354.83 40.6204C346.317 44.7111 336.013 39.342 331.981 35.2513C327.949 31.1606 318.988 33.4616 315.852 34.2287C313.343 34.8423 304.95 29.5414 301.068 26.8143C301.366 27.1552 302.86 28.7062 306.444 32.1833C310.924 36.5297 318.54 36.274 323.02 35.2513C327.501 34.2286 329.293 36.5297 331.981 40.6204C334.669 44.7111 342.733 46.2451 354.83 45.9894C366.926 45.7337 372.302 36.7853 383.503 30.6493Z" fill="url(#paint2_linear_1119_2472)"/>
<defs>
<linearGradient id="paint0_linear_1119_2472" x1="418" y1="64.1229" x2="-56.4452" y2="64.1229" gradientUnits="userSpaceOnUse">
<stop stop-color="#989898"/>
<stop offset="0.405" stop-color="white"/>
</linearGradient>
<linearGradient id="paint1_linear_1119_2472" x1="2101.71" y1="-269.868" x2="-1354.07" y2="-269.868" gradientUnits="userSpaceOnUse">
<stop stop-color="#989898"/>
<stop offset="0.405" stop-color="white"/>
</linearGradient>
<linearGradient id="paint2_linear_1119_2472" x1="418" y1="49.9997" x2="-4.98295e-05" y2="49.9997" gradientUnits="userSpaceOnUse">
<stop stop-color="#989898"/>
<stop offset="0.405" stop-color="white"/>
</linearGradient>
</defs>
</svg>
