<svg width="418" height="100" viewBox="0 0 418 100" fill="none" xmlns="http://www.w3.org/2000/svg">
<path d="M16.129 41.6431C11.111 40.4159 3.285 44.7112 0 47.0122V44.1997C3.584 36.274 16.129 35.2513 18.817 34.9957C21.505 34.74 32.705 38.575 35.841 44.9667C38.35 50.0801 47.34 53.4038 51.522 54.4265C76.163 60.5625 103.94 47.5234 111.108 41.8987C125.893 31.672 136.645 11.4742 149.19 3.29275C161.734 -4.88869 188.167 4.31542 192.647 7.89482C197.128 11.4742 200.264 7.89482 204.296 7.12777C207.522 6.51413 208.328 8.4061 208.328 9.42879C204.744 7.38339 202.504 11.4742 198.472 14.0308C194.439 16.5875 193.095 12.4969 182.343 7.89482C176.071 6.61644 169.201 8.74705 168.006 11.4742C168.454 14.7979 180.551 9.42883 188.167 16.5876C190.318 19.6556 195.933 19.3999 198.472 18.8886C204.296 17.8659 215.161 18.8886 217.288 34.2287C221.231 62.6591 229.683 66.0169 233.417 64.1419C234.91 64.1419 238.524 59.8467 241.033 42.6658C244.169 21.1896 262.986 21.7009 271.498 21.4453C280.011 21.1896 282.699 31.672 286.283 34.74C289.867 37.8081 297.931 29.1153 311.372 31.672C324.812 34.2287 334.221 49.0575 338.701 53.9152C343.181 58.7729 341.389 50.5915 347.661 51.1029C352.679 51.5119 353.336 53.83 353.037 54.9379C351.992 53.2334 349.453 50.6426 347.661 53.9152C345.421 58.0059 338.253 60.8183 334.221 58.0059C330.995 55.756 328.994 56.3867 328.397 56.9832C338.074 67.4145 359.011 63.2045 368.27 59.7956C364.238 65.1646 345.869 66.9543 334.221 64.1419C322.572 61.3296 322.572 49.8245 317.644 42.6658C312.716 35.5071 300.619 39.5978 292.555 41.6431C284.491 43.6885 280.011 37.0411 273.29 31.672C266.57 26.303 255.818 33.206 250.89 37.0411C245.961 40.8761 244.169 58.7729 243.273 62.0966C242.377 65.4203 239.241 69.511 225.353 75.9027C214.242 81.0161 195.933 75.4766 188.167 72.0677C185.33 65.0794 188.167 58.7729 196.68 60.5626C210.299 68.1304 210.12 49.7393 208.328 39.5977C216.571 22.8259 187.869 21.1896 172.487 22.4679C167.827 12.2412 160.987 13.4343 158.15 15.3093C125.893 53.1482 90.051 60.0512 82.883 61.841C74.004 64.058 47.49 61.3296 37.185 58.0059C28.942 55.347 25.089 49.228 24.193 46.5008C23.596 45.3929 21.146 42.8704 16.129 41.6431Z" fill="url(#paint0_linear_1119_2478)"/>
<path d="M26.433 50.5195V50.8471C27.03 58.1763 30.555 72.9881 39.874 73.6017C45.756 73.989 51.067 73.4635 55.288 73.0459C58.779 72.7005 61.525 72.4289 63.229 72.809C63.535 72.9084 63.816 73.003 64.067 73.0903C63.824 72.9718 63.545 72.8793 63.229 72.809C60.252 71.8415 54.895 70.4183 51.97 70.7893C47.938 71.3006 47.49 66.6986 53.314 66.9543C59.138 67.2099 117.829 62.8636 140.229 38.8307C155.866 22.0554 157.313 24.339 159.047 27.0742C159.797 28.2575 160.601 29.5254 162.63 29.371C163.47 29.3071 164.646 29.1872 166.067 29.0424C176.015 28.0287 197.968 25.7916 200.712 32.9503C201.16 32.7799 202.056 32.1322 202.056 30.905C205.043 32.5242 210.389 36.5808 207.88 39.8534C208.087 39.6656 208.298 39.455 208.507 39.224C210.731 34.4401 209.899 30.9138 207.224 28.3497C206.754 28.0028 206.227 27.6608 205.64 27.3256V27.0788C198.222 22.0404 182.52 21.6341 172.487 22.4679C167.827 12.2412 160.987 13.4343 158.15 15.3093C127.531 51.2268 93.682 59.2704 84.193 61.5254C83.685 61.646 83.247 61.7501 82.883 61.841C74.004 64.058 47.49 61.3296 37.185 58.0059C31.957 56.3195 28.495 53.2414 26.433 50.5195Z" fill="#999999"/>
<path d="M188.167 72.0677C187.719 77.0106 190.407 87.3055 204.744 88.9418C222.664 90.9871 241.481 87.6634 245.961 77.6924C247.975 73.2111 247.454 68.2135 246.963 63.4885C246.36 57.7001 245.8 52.3209 249.993 48.8018C254.474 41.1317 267.018 31.9276 275.53 38.3194C269.557 37.9785 257.251 39.7511 255.818 49.5688C259.103 45.9042 267.287 39.0864 273.738 41.1317C280.19 43.1771 288.971 49.8245 292.555 52.8925C292.514 52.6911 292.469 52.4867 292.424 52.2809C291.826 49.526 291.168 46.5008 296.587 46.5008C296.961 46.5541 297.345 46.5964 297.741 46.6399C301.14 47.014 305.446 47.4877 312.268 55.9605C314.657 60.0512 320.87 68.744 326.604 70.7893C324.812 69.2553 321.855 65.8805 324.364 64.6533C325.834 63.9344 329.468 65.0121 333.837 66.3079C338.792 67.7773 344.692 69.527 349.453 69.2553C355.726 68.2326 371.406 65.4203 375.438 58.0059C382.308 45.5633 397.033 22.3145 400.975 28.8596C400.551 29.9091 398.965 31.1115 397.008 32.5957C392.766 35.8118 386.78 40.3509 387.087 47.5235C389.626 42.751 396.764 32.6947 405.007 30.6493C409.754 29.4717 411.838 28.6196 413.188 28.0679C414.769 27.4218 415.342 27.1877 418 27.3256C415.312 25.8768 409.936 24.5133 405.007 24.5133C404.897 24.5278 404.786 24.5424 404.673 24.5572C398.811 25.3239 389.183 26.5834 381.711 41.1317C378.724 46.586 372.123 57.8013 369.614 59.0285C369.033 59.313 368.424 59.6304 367.817 59.9598C367.971 59.9049 368.122 59.8502 368.27 59.7956C364.238 65.1646 345.869 66.9543 334.221 64.1419C326.136 62.1901 323.663 56.0511 321.258 50.084C320.198 47.4534 319.152 44.8561 317.644 42.6658C313.182 36.184 302.843 38.9246 294.942 41.0192C294.117 41.238 293.318 41.4497 292.555 41.6431C286.24 43.2448 282.123 39.5159 277.407 35.2447C276.101 34.0615 274.748 32.8367 273.29 31.672C266.57 26.303 255.818 33.206 250.89 37.0411C247.044 40.034 245.108 51.5913 244.017 58.1024C243.71 59.9343 243.47 61.3668 243.273 62.0966C242.377 65.4203 239.241 69.511 225.353 75.9027C214.242 81.0161 195.933 75.4766 188.167 72.0677Z" fill="#999999"/>
<path d="M203.656 96.791C224.033 98.806 244.895 95.7062 254.216 86.4818C254.039 87.0531 253.828 87.6179 253.578 88.1748C249.097 98.1458 230.281 101.47 212.36 99.4242C208.774 99.0149 205.918 98.0642 203.656 96.791Z" fill="url(#paint1_linear_1119_2478)"/>
<path fill-rule="evenodd" clip-rule="evenodd" d="M37.271 73.022L37.185 73.0903C41.815 74.7095 51.791 77.6923 54.658 76.6697C57.318 75.7211 62.937 76.7433 66.758 77.4383C68.086 77.68 69.197 77.882 69.891 77.948C72.579 78.2037 79.299 77.4367 83.779 73.0903C87.363 69.6132 91.843 69.4257 93.636 69.7666C89.794 67.3914 82.52 71.0223 77.046 73.7546C74.86 74.8457 72.961 75.7935 71.683 76.1583C68.099 77.181 65.41 74.3686 64.514 72.8346L62.582 72.6032C62.808 72.6735 63.024 72.7423 63.229 72.809C61.525 72.4289 58.779 72.7005 55.288 73.0459C51.067 73.4635 45.756 73.989 39.874 73.6017C38.95 73.5408 38.083 73.3406 37.271 73.022ZM64.067 73.0903C63.824 72.9718 63.545 72.8793 63.229 72.809C63.535 72.9084 63.816 73.003 64.067 73.0903Z" fill="#999999"/>
<path d="M34.497 30.6493C25.537 25.7404 7.766 31.6719 0 35.2513C8.96 26.5586 28.673 25.2802 38.081 26.8143C47.49 28.3483 54.658 36.5297 63.17 40.6204C71.683 44.7111 81.987 39.342 86.019 35.2513C90.051 31.1606 99.012 33.4616 102.148 34.2287C104.657 34.8423 113.05 29.5414 116.932 26.8143C116.634 27.1552 115.14 28.7062 111.556 32.1833C107.076 36.5297 99.46 36.274 94.98 35.2513C90.499 34.2286 88.707 36.5297 86.019 40.6204C83.331 44.7111 75.267 46.2451 63.17 45.9894C51.074 45.7337 45.698 36.7853 34.497 30.6493Z" fill="url(#paint2_linear_1119_2478)"/>
<defs>
<linearGradient id="paint0_linear_1119_2478" x1="0" y1="64.1229" x2="474.445" y2="64.1229" gradientUnits="userSpaceOnUse">
<stop stop-color="#989898"/>
<stop offset="0.405" stop-color="white"/>
</linearGradient>
<linearGradient id="paint1_linear_1119_2478" x1="-1683.71" y1="-269.868" x2="1772.07" y2="-269.868" gradientUnits="userSpaceOnUse">
<stop stop-color="#989898"/>
<stop offset="0.405" stop-color="white"/>
</linearGradient>
<linearGradient id="paint2_linear_1119_2478" x1="0" y1="49.9997" x2="418" y2="49.9997" gradientUnits="userSpaceOnUse">
<stop stop-color="#989898"/>
<stop offset="0.405" stop-color="white"/>
</linearGradient>
</defs>
</svg>
