<svg width="100" height="100" viewBox="0 0 100 100" fill="none" xmlns="http://www.w3.org/2000/svg">
<path d="M49.9458 100C77.5895 100 99.9997 77.6146 99.9997 50C99.9997 22.3854 77.5895 0 49.9458 0C23.4187 0 1.71458 20.6125 0 46.6771C3.23958 52.1125 4.50416 55.4729 1.99375 64.3812C8.17708 84.9854 27.3062 100 49.9458 100Z" fill="#E2E2E2"/>
<path fill-rule="evenodd" clip-rule="evenodd" d="M47.1708 37.4125C47.1708 26.8917 55.6541 18.3333 66.0854 18.3333C76.5187 18.3333 85 26.8917 85 37.4125C85 47.9333 76.5208 56.4979 66.0833 56.4979C65.9437 56.4979 65.7979 56.4937 65.6583 56.4896L48.2208 69.0375C48.2709 71.0005 47.909 72.9522 47.1583 74.7667C44.2333 81.8479 36.1291 85.2187 29.1 82.2604C24.8041 80.4583 21.8916 76.7083 20.9437 72.4333L2.02708 64.5729C-0.533334 56.9896 0.05625 46.8396 0.064583 46.6729L26.8229 57.7625C27.552 57.2812 28.327 56.8646 29.1562 56.5229C31.0005 55.7515 32.9924 55.3972 34.9895 55.4854L47.175 37.6604C47.1708 37.5812 47.1708 37.4958 47.1708 37.4125ZM30.3125 79.325C35.7395 81.6021 41.9833 79.0062 44.2458 73.5354C45.3387 70.9053 45.3447 67.9491 44.2625 65.3146C43.7377 64.0106 42.9592 62.8239 41.9721 61.8233C40.9851 60.8226 39.8091 60.0279 38.5125 59.4854C36.007 58.4315 33.1908 58.3882 30.6541 59.3646L37.0187 62.0208C41.0187 63.7 42.9125 68.3312 41.2437 72.3646C40.8535 73.3208 40.2778 74.1902 39.5499 74.9228C38.8219 75.6553 37.9561 76.2365 37.0025 76.6328C36.0488 77.029 35.0261 77.2325 33.9934 77.2316C32.9606 77.2306 31.9383 77.0251 30.9854 76.6271L24.8291 74.0562C25.9443 76.4288 27.8973 78.3054 30.3125 79.325ZM66.0833 50.1271C59.1395 50.1271 53.4833 44.4229 53.4833 37.4125C53.4833 30.4062 59.1395 24.7021 66.0854 24.7021C73.0354 24.7021 78.6895 30.4063 78.6895 37.4104C78.6895 44.4229 73.0354 50.1271 66.0854 50.1271H66.0833ZM66.1062 27.8417C60.8833 27.8417 56.6416 32.1187 56.6416 37.3937C56.6416 42.6667 60.8833 46.9417 66.1062 46.9417C71.3354 46.9417 75.575 42.6667 75.575 37.3937C75.575 32.1187 71.3333 27.8396 66.1062 27.8396V27.8417Z" fill="#1E1E1E"/>
</svg>
