<svg width="100" height="100" viewBox="0 0 100 100" fill="none" xmlns="http://www.w3.org/2000/svg">
<path d="M72.2924 75.2489C72.2654 75.1139 63.5424 63.5021 52.9615 49.46L33.7115 23.9409H30.5346C27.9231 23.9409 27.3846 23.995 27.5731 24.319C27.6808 24.5081 36.5115 36.1199 47.1731 50.108L66.5577 75.519H69.4653C71.2961 75.519 72.3462 75.411 72.2924 75.2489Z" fill="#E2E2E2"/>
<path fill-rule="evenodd" clip-rule="evenodd" d="M50 100C77.6143 100 100 77.6143 100 50C100 22.3857 77.6143 0 50 0C22.3857 0 0 22.3857 0 50C0 77.6143 22.3857 100 50 100ZM28.1923 35.5527C20.95 26.0472 15 18.1891 15 18.108C15 18.054 19.9808 18.027 26.0923 18.054L37.1846 18.135L44.75 28.1805C48.8962 33.7164 52.3423 38.2262 52.4231 38.2262C52.5038 38.2532 56.5424 33.6895 61.3884 28.1266L70.2192 18H81.0154L80.2616 18.8911C80.0875 19.0875 79.1268 20.1875 77.6476 21.8812C75.4656 24.3798 72.1552 28.1703 68.5769 32.2582C62.5731 39.1443 57.6461 44.8422 57.6193 44.9502C57.5654 45.0582 63.7307 53.3215 71.2693 63.3401C78.8346 73.3586 85 81.6489 85 81.757C85 81.892 80.1808 82 74.3115 82H63.5962L55.25 71.0363C50.6731 65.0144 46.7961 59.9916 46.6346 59.8566C46.4731 59.7216 42.7846 63.7181 36.5923 70.8203L26.8461 82H21.5692C18.4193 82 16.3461 81.892 16.4 81.757C16.4539 81.595 21.7846 75.411 28.3 67.9578C34.7885 60.5046 40.4154 54.0507 40.7654 53.6455L41.4116 52.8624L28.1923 35.5527Z" fill="#E2E2E2"/>
<path fill-rule="evenodd" clip-rule="evenodd" d="M15 18.108C15 18.1891 20.95 26.0472 28.1923 35.5527L41.4116 52.8624L40.7654 53.6455C40.4154 54.0507 34.7885 60.5046 28.3 67.9578C21.7846 75.411 16.4539 81.595 16.4 81.757C16.3461 81.892 18.4193 82 21.5692 82H26.8461L36.5923 70.8203C42.7846 63.7181 46.4731 59.7216 46.6346 59.8566C46.7961 59.9916 50.6731 65.0144 55.25 71.0363L63.5962 82H74.3115C80.1808 82 85 81.892 85 81.757C85 81.6489 78.8346 73.3586 71.2693 63.3401C63.7307 53.3215 57.5654 45.0582 57.6193 44.9502C57.6461 44.8422 62.5731 39.1443 68.5769 32.2582C72.1552 28.1703 75.4656 24.3798 77.6476 21.8812C79.1268 20.1875 80.0875 19.0875 80.2616 18.8911L81.0154 18H70.2192L61.3884 28.1266C56.5424 33.6895 52.5038 38.2532 52.4231 38.2262C52.3423 38.2262 48.8962 33.7164 44.75 28.1805L37.1846 18.135L26.0923 18.054C19.9808 18.027 15 18.054 15 18.108ZM72.2924 75.2489C72.2654 75.1139 63.5424 63.5021 52.9615 49.46L33.7115 23.9409H30.5346C27.9231 23.9409 27.3846 23.995 27.5731 24.319C27.6808 24.5081 36.5115 36.1199 47.1731 50.108L66.5577 75.519H69.4653C71.2961 75.519 72.3462 75.411 72.2924 75.2489Z" fill="#1E1E1E"/>
</svg>
