<svg width="18" height="20" viewBox="0 0 18 20" fill="none" xmlns="http://www.w3.org/2000/svg">
<path id="Vector" fill-rule="evenodd" clip-rule="evenodd" d="M1.61643 0H15.7333C16.8775 0 17.2998 0.421921 17.2998 1.56571V15.3673C17.2998 15.4968 17.2946 15.617 17.2831 15.7284C17.2809 15.7492 17.2789 15.77 17.2769 15.7907C17.2546 16.0186 17.2327 16.2429 17.0197 16.4954C16.9971 16.5224 16.7598 16.6988 16.7598 16.6988C16.7367 16.7101 16.715 16.7209 16.694 16.7313C16.5988 16.7784 16.5191 16.8179 16.4011 16.8653L9.44977 19.7752C9.08888 19.9405 8.93796 20.0049 8.67587 19.9997L8.67483 19.9998H8.67382C8.41173 20.005 8.26081 19.9405 7.89996 19.7752L0.94861 16.8653C0.83051 16.8178 0.750647 16.7783 0.655287 16.731C0.634424 16.7208 0.612818 16.71 0.589911 16.6988C0.589911 16.6988 0.352649 16.5224 0.329942 16.4954C0.116921 16.2429 0.0950439 16.0186 0.0728127 15.7907C0.0707901 15.77 0.0687676 15.7492 0.0665949 15.7284C0.055152 15.617 0.0499268 15.4968 0.0499268 15.3673V1.56571C0.0499268 0.421921 0.472204 0 1.61643 0ZM13.6092 7.18208V8.91296C13.6092 9.21971 13.4673 9.36204 13.1729 9.36204H12.9545C12.6491 9.36204 12.5072 9.21971 12.5072 8.91296V4.07085C12.5072 3.76411 12.6491 3.62179 12.9545 3.62179H13.151C13.4456 3.62179 13.5875 3.76411 13.5875 4.07085V5.57179H14.733V4.00512C14.733 3.05215 14.2748 2.59203 13.3257 2.59203H12.7581C11.8091 2.59203 11.3397 3.06302 11.3397 4.01616V8.96767C11.3397 9.92083 11.8091 10.3918 12.7581 10.3918H13.3365C14.2858 10.3918 14.7549 9.92083 14.7549 8.96767V7.18208H13.6092ZM3.76227 6.952H5.13701V5.8895H3.76227V3.72036H5.19176V2.65785H2.59482V10.3261H5.21349V9.26358H3.76227V6.952ZM10.7227 10.3261H9.55503V2.65784H10.7227V10.3261ZM7.86097 6.06471C7.86097 6.37146 7.71931 6.51396 7.42469 6.51396H6.94449V3.68756H7.42469C7.71931 3.68756 7.86097 3.82992 7.86097 4.13661V6.06471ZM7.61005 2.65779H5.77705V10.3261H6.94449V7.5435H7.61005C8.55935 7.5435 9.02846 7.07254 9.02846 6.11958V4.08193C9.02846 3.12878 8.55935 2.65779 7.61005 2.65779ZM14.7846 13.9076L14.7878 13.8757L14.7909 13.8407V13.8057V13.7993V13.7643L14.7878 13.7293L14.7846 13.6975L14.7782 13.6656L14.7718 13.6338L14.7655 13.6051L14.7561 13.5765L14.7465 13.5478L14.7338 13.5224L14.7178 13.4937L14.7021 13.4682L14.683 13.4396L14.664 13.4141L14.6418 13.3918L14.6197 13.3663L14.5942 13.3441L14.5689 13.3218L14.5435 13.3059L14.518 13.2868L14.4928 13.2709L14.4643 13.255L14.4356 13.239L14.4039 13.2231L14.3723 13.2104L14.3406 13.1945L14.3055 13.1819L14.277 13.1724L14.2486 13.1628L14.2167 13.1533L14.1882 13.1437L14.1565 13.1342L14.1248 13.1246L14.093 13.1183L14.0581 13.1087L14.0264 13.0991L13.9916 13.0928L13.9567 13.0832L13.9219 13.0737L13.8868 13.0641L13.8552 13.0578L13.8267 13.0482L13.798 13.0418L13.7727 13.0323L13.7474 13.0259L13.7093 13.0132L13.6743 13.0005L13.6426 12.9877L13.6173 12.9718L13.5886 12.9559L13.5665 12.9336L13.5538 12.9145L13.5381 12.8795L13.5348 12.8381V12.8317L13.5381 12.7999L13.5506 12.7713L13.5697 12.7426L13.5982 12.7171L13.6205 12.7044L13.6458 12.6916L13.6743 12.6853L13.7062 12.6789L13.741 12.6725H13.779H13.8107L13.8392 12.6757L13.8711 12.6789L13.9028 12.6821L13.9344 12.6885L13.9661 12.6948L13.998 12.7012L14.0296 12.7108L14.0613 12.7203L14.0962 12.7298L14.1217 12.7426L14.1502 12.7521L14.1755 12.7648L14.2042 12.7776L14.2294 12.7903L14.2579 12.803L14.2834 12.819L14.3119 12.8317L14.3374 12.8508L14.3627 12.8667L14.3912 12.8827L14.4167 12.9018L14.4356 12.8763L14.4515 12.8508L14.4704 12.8254L14.4896 12.7999L14.5085 12.7713L14.5245 12.7458L14.5435 12.7203L14.5625 12.6948L14.5784 12.6694L14.5974 12.6439L14.6165 12.6184L14.6324 12.593L14.6513 12.5643L14.6705 12.5388L14.6894 12.5134L14.7053 12.4879L14.7242 12.4624L14.6989 12.4433L14.6736 12.4243L14.6482 12.4051L14.6228 12.3893L14.5942 12.3701L14.5689 12.3542L14.5404 12.3383L14.5117 12.3224L14.4864 12.3096L14.4579 12.2937L14.426 12.281L14.3975 12.2682L14.3691 12.2555L14.3406 12.246L14.3087 12.2333L14.2802 12.2268L14.2517 12.2173L14.2199 12.2078L14.1914 12.2014L14.1597 12.195L14.128 12.1886L14.0994 12.1823L14.0677 12.1759L14.0328 12.1728L14.0011 12.1664L13.9661 12.1632H13.9344L13.8996 12.16L13.8647 12.1568H13.8299H13.795H13.7599H13.7283L13.6966 12.16L13.6649 12.1632L13.633 12.1664L13.6014 12.1695L13.5729 12.1759L13.5412 12.1823L13.5126 12.1886L13.484 12.195L13.4587 12.2014L13.43 12.211L13.3984 12.2237L13.3667 12.2333L13.338 12.246L13.3096 12.2619L13.2811 12.2746L13.2524 12.2905L13.2271 12.3064L13.2018 12.3255L13.1763 12.3446L13.1542 12.3605L13.1287 12.3828L13.1066 12.4083L13.0843 12.4306L13.0622 12.4561L13.0431 12.4815L13.0241 12.507L13.0082 12.5356L12.9924 12.5643L12.9797 12.593L12.9669 12.6216L12.9544 12.6503L12.9481 12.6789L12.9385 12.7076L12.9321 12.7363L12.9257 12.7648L12.9225 12.7967L12.9194 12.8254L12.9162 12.8572V12.889V12.8954V12.9304L12.9194 12.9654L12.9225 12.9973L12.9257 13.0291L12.9321 13.0578L12.9385 13.0896L12.9481 13.115L12.9574 13.1437L12.9669 13.1692L12.9797 13.1913L12.9956 13.2199L13.0114 13.2454L13.0273 13.2677L13.0462 13.2899L13.0654 13.3123L13.0875 13.3345L13.1098 13.3568L13.1319 13.3759L13.1574 13.3918L13.1827 13.411L13.2111 13.4268L13.2367 13.4428L13.2684 13.4587L13.2968 13.4746L13.3287 13.4873L13.3604 13.5L13.392 13.5128L13.4269 13.5255L13.4556 13.5351L13.484 13.5446L13.5126 13.5542L13.5442 13.5606L13.5729 13.5701L13.6046 13.5797L13.6362 13.586L13.6681 13.5956L13.6998 13.602L13.7346 13.6115L13.7663 13.6179L13.8011 13.6274L13.8331 13.6338L13.8647 13.6433L13.8932 13.6497L13.9219 13.6593L13.9471 13.6656L13.9693 13.672L14.0073 13.6879L14.0392 13.7006L14.0677 13.7134L14.093 13.7261L14.1185 13.7452L14.1406 13.7643L14.1565 13.7866L14.1693 13.8184L14.1724 13.8566V13.863L14.1693 13.8948L14.1597 13.9235L14.1469 13.949L14.128 13.9712L14.1026 13.9903L14.0804 14.0031L14.0549 14.0126L14.0264 14.019L13.998 14.0254L13.9661 14.0317L13.9312 14.0349H13.8932H13.8615L13.8267 14.0317H13.795L13.7631 14.0254L13.7283 14.0222L13.6966 14.0158L13.6649 14.0095L13.633 14.0031L13.6046 13.9935L13.5729 13.984L13.5412 13.9744L13.5126 13.9617L13.484 13.9521L13.4556 13.9394L13.4269 13.9267L13.3984 13.9139L13.3731 13.898L13.3444 13.8853L13.3192 13.8693L13.2906 13.8503L13.2652 13.8344L13.2367 13.8153L13.2111 13.7962L13.1827 13.777L13.1574 13.758L13.1383 13.7834L13.1162 13.8057L13.097 13.8312L13.0749 13.8566L13.0558 13.8789L13.0368 13.9044L13.0146 13.9298L12.9956 13.9521L12.9733 13.9776L12.9544 13.9999L12.9321 14.0254L12.9132 14.0508L12.894 14.0731L12.8719 14.0985L12.8528 14.124L12.8307 14.1463L12.8116 14.1718L12.8369 14.1941L12.8591 14.2132L12.8845 14.2323L12.91 14.2514L12.9353 14.2705L12.9606 14.2896L12.986 14.3055L13.0114 14.3214L13.04 14.3373L13.0654 14.3532L13.0938 14.3692L13.1225 14.3819L13.151 14.3976L13.1795 14.4104L13.2081 14.4231L13.2398 14.4358L13.2684 14.4454L13.3 14.4549L13.3287 14.4677L13.3604 14.4772L13.392 14.4868L13.4205 14.4932L13.4524 14.5027L13.484 14.509L13.5157 14.5154L13.5474 14.5218L13.5793 14.5281L13.6109 14.5313L13.6426 14.5377L13.6775 14.5409L13.7093 14.5441L13.741 14.5473H13.7758L13.8076 14.5505H13.8392H13.8743H13.9091H13.9408L13.9725 14.5473L14.0073 14.5441L14.0392 14.5409L14.0677 14.5377L14.0994 14.5345L14.1313 14.5281L14.1597 14.5218L14.1882 14.5154L14.2199 14.509L14.2486 14.4995L14.2802 14.4899L14.3119 14.4804L14.3436 14.4677L14.3754 14.4549L14.4039 14.439L14.4324 14.4263L14.4611 14.4104L14.4864 14.3913L14.5117 14.3755L14.5372 14.3565L14.5593 14.3373L14.5848 14.315L14.6037 14.296L14.626 14.2736L14.6449 14.2514L14.6609 14.2259L14.6798 14.2005L14.6957 14.175L14.7117 14.1495L14.7242 14.1209L14.737 14.0954L14.7497 14.0668L14.7593 14.0349L14.7655 14.0062L14.775 13.9744L14.7814 13.9425L14.7846 13.9076ZM12.5314 14.5123H12.5632H12.5949V14.4804V14.4517V14.4199V14.3881V14.3565V14.3278V14.296V14.2641V14.2354V14.2036V14.1718V14.1432V14.1113V14.0795V14.0476V14.019V13.9871H12.5632H12.5314H12.4997H12.468H12.4364H12.4045H12.3728H12.3412H12.3095H12.2744H12.2427H12.2111H12.1794H12.1475H12.1159H12.0842H12.0525H12.0206H11.989H11.9573H11.9256H11.894H11.8621H11.8304H11.7988H11.7671H11.7352H11.7035H11.6719H11.637H11.6051H11.5734H11.5418H11.5101H11.4783H11.4466H11.4149H11.3832H11.3514V13.9553V13.9203V13.8885V13.8566V13.8216V13.7898V13.758V13.7229V13.6911V13.6593V13.6242V13.5924H11.3832H11.4149H11.4466H11.4783H11.5101H11.5418H11.5734H11.6051H11.6338H11.6655H11.6972H11.7288H11.7607H11.7924H11.8241H11.8557H11.8876H11.9192H11.951H11.9826H12.0145H12.0461H12.0778H12.1095H12.1414H12.173H12.2015H12.2332H12.2651H12.2968H12.3284H12.3601H12.3919H12.4236H12.4553V13.5606V13.5319V13.5V13.4682V13.4396V13.4078V13.3759V13.3441V13.3154V13.2836V13.2518V13.2231V13.1913V13.1596V13.131V13.0991H12.4236H12.3919H12.3601H12.3284H12.2968H12.2651H12.2332H12.2015H12.173H12.1414H12.1095H12.0778H12.0461H12.0145H11.9826H11.951H11.9192H11.8876H11.8557H11.8241H11.7924H11.7607H11.7288H11.6972H11.6655H11.6338H11.6051H11.5734H11.5418H11.5101H11.4783H11.4466H11.4149H11.3832H11.3514V13.0673V13.0355V13.0036V12.9718V12.94V12.9081V12.8795V12.8476V12.8158V12.784V12.7521V12.7203H11.3832H11.4149H11.4466H11.4783H11.5101H11.5418H11.5703H11.602H11.6338H11.6655H11.6972H11.7288H11.7607H11.7924H11.8241H11.8557H11.8876H11.9192H11.951H11.9794H12.0113H12.043H12.0746H12.1063H12.1382H12.1698H12.2015H12.2332H12.2651H12.2968H12.3284H12.3601H12.3887H12.4204H12.4521H12.4838H12.5156H12.5473H12.579V12.6885V12.6598V12.628V12.5962V12.5643V12.5356V12.5038V12.472V12.4433V12.4115V12.3797V12.351V12.3192V12.2873V12.2555V12.2268V12.195H12.5473H12.5156H12.4838H12.4521H12.4204H12.3887H12.3569H12.3252H12.2935H12.2619H12.23H12.1983H12.1667H12.135H12.1063H12.0746H12.043H12.0113H11.9794H11.9478H11.9161H11.8844H11.8525H11.8209H11.7892H11.7575H11.7259H11.694H11.6623H11.6307H11.599H11.5671H11.5354H11.5037H11.4721H11.4402H11.4085H11.3769H11.3452H11.3133H11.2816H11.25H11.2183H11.1896H11.1579H11.1263H11.0946H11.0628H11.0311H10.9994H10.9677H10.9359H10.9042H10.8725H10.8409H10.809H10.7773H10.7456V12.2268V12.2587V12.2905V12.3224V12.3542V12.386V12.4179V12.4497V12.4815V12.5134V12.5452V12.577V12.6089V12.6407V12.6725V12.7044V12.7363V12.768V12.7967V12.8285V12.8604V12.8922V12.924V12.9559V12.9877V13.0195V13.0514V13.0832V13.115V13.1469V13.1787V13.2104V13.2422V13.274V13.3059V13.3377V13.3695V13.4014V13.4332V13.465V13.4969V13.5288V13.5606V13.5924V13.6242V13.656V13.6879V13.7198V13.7515V13.7834V13.8153V13.8471V13.8789V13.9108V13.9394V13.9712V14.0031V14.0349V14.0668V14.0985V14.1304V14.1623V14.1941V14.2259V14.2578V14.2896V14.3214V14.3532V14.3851V14.4168V14.4486V14.4804V14.5123H10.7773H10.809H10.8409H10.8725H10.9042H10.9359H10.9677H10.9994H11.0311H11.0659H11.0976H11.1294H11.1611H11.1928H11.2244H11.2563H11.288H11.3197H11.3514H11.3832H11.4149H11.4466H11.4783H11.5101H11.5418H11.5734H11.6051H11.637H11.6719H11.7035H11.7352H11.7671H11.7988H11.8304H11.8621H11.894H11.9256H11.9573H11.989H12.0206H12.0525H12.0842H12.1159H12.1475H12.1794H12.2111H12.2427H12.2744H12.3095H12.3412H12.3728H12.4045H12.4364H12.468H12.4997H12.5314ZM10.2139 14.5123H10.2456H10.2772V14.4804V14.4486V14.4168V14.3851V14.3532V14.3214V14.2896V14.2578V14.2259V14.1941V14.1623V14.1304V14.0985V14.0668V14.0349V14.0031V13.9712V13.9394V13.9108V13.8789V13.8471V13.8153V13.7834V13.7515V13.7198V13.6879V13.656V13.6242V13.5924V13.5606V13.5288V13.4969V13.465V13.4332V13.4014V13.3695V13.3377V13.3059V13.274V13.2422V13.2104V13.1787V13.1469V13.115V13.0832V13.0514V13.0195V12.9877V12.9559V12.924V12.8922V12.8604V12.8285V12.7967V12.768V12.7363V12.7044V12.6725V12.6407V12.6089V12.577V12.5452V12.5134V12.4815V12.4497V12.4179V12.386V12.3542V12.3224V12.2905V12.2587V12.2268V12.195H10.2456H10.2139H10.1852H10.1535H10.1219H10.0902H10.0615H10.0298H9.99819H9.9665H9.93781H9.90611H9.8745H9.84281H9.81412H9.78247H9.75077H9.71908H9.69043H9.65874H9.62709L9.61116 12.2205L9.59539 12.2491L9.57629 12.2744L9.56032 12.303L9.5446 12.3285L9.52867 12.3572L9.50974 12.3825L9.49381 12.4111L9.47792 12.4366L9.46211 12.4621L9.44306 12.4905L9.42725 12.516L9.41136 12.5446L9.39543 12.5701L9.3765 12.5986L9.36053 12.624L9.34481 12.6495L9.32888 12.678L9.31295 12.7034L9.29401 12.7321L9.27813 12.7576L9.26215 12.786L9.24639 12.8115L9.22729 12.8401L9.21157 12.8654L9.19564 12.8909L9.17971 12.9195L9.16078 12.945L9.14485 12.9737L9.12904 12.999L9.11315 13.0276L9.09422 13.0531L9.07829 13.0815L9.0624 13.107L9.04664 13.0815L9.03071 13.0531L9.01157 13.0276L8.9958 12.999L8.97992 12.9737L8.96415 12.945L8.94822 12.9195L8.92912 12.8909L8.91336 12.8654L8.89743 12.8401L8.88171 12.8115L8.86578 12.786L8.84668 12.7576L8.83087 12.7321L8.81494 12.7034L8.79926 12.678L8.78329 12.6495L8.76419 12.624L8.74843 12.5986L8.7325 12.5701L8.71657 12.5446L8.69764 12.516L8.68171 12.4905L8.66598 12.4621L8.65001 12.4366L8.63412 12.4111L8.61515 12.3825L8.59922 12.3572L8.5835 12.3285L8.56757 12.303L8.5516 12.2744L8.5327 12.2491L8.51678 12.2205L8.50105 12.195H8.46915H8.4375H8.40902H8.37732H8.34546H8.31377H8.28533H8.25364H8.22178H8.19012H8.1616H8.12995H8.09805H8.0664H8.03791H8.00605H7.97436H7.94271H7.91418H7.88232H7.85067V12.2268V12.2587V12.2905V12.3224V12.3542V12.386V12.4179V12.4497V12.4815V12.5134V12.5452V12.577V12.6089V12.6407V12.6725V12.7044V12.7363V12.768V12.7967V12.8285V12.8604V12.8922V12.924V12.9559V12.9877V13.0195V13.0514V13.0832V13.115V13.1469V13.1787V13.2104V13.2422V13.274V13.3059V13.3377V13.3695V13.4014V13.4332V13.465V13.4969V13.5288V13.5606V13.5924V13.6242V13.656V13.6879V13.7198V13.7515V13.7834V13.8153V13.8471V13.8789V13.9108V13.9394V13.9712V14.0031V14.0349V14.0668V14.0985V14.1304V14.1623V14.1941V14.2259V14.2578V14.2896V14.3214V14.3532V14.3851V14.4168V14.4486V14.4804V14.5123H7.88232H7.91418H7.94588H7.97757H8.00926H8.04108H8.07278H8.10447H8.13612H8.16798H8.19967H8.23133H8.26302H8.29488H8.32653H8.35822H8.38992H8.42174H8.45343V14.4804V14.4486V14.4168V14.3849V14.3529V14.321V14.2892V14.2573V14.2255V14.1937V14.165V14.133V14.1012V14.0694V14.0375V14.0057V13.9737V13.9418V13.91V13.8782V13.8463V13.8145V13.7825V13.7506V13.7188V13.687V13.6551V13.6233V13.5913V13.5595V13.5276V13.4958V13.4671V13.4352V13.4033V13.3714V13.3396V13.3078V13.2759V13.2439V13.212V13.1802V13.1484L8.47232 13.1738L8.48833 13.2027L8.50722 13.2281L8.52316 13.2568L8.54226 13.2823L8.55802 13.3109L8.57712 13.3366L8.59288 13.3653L8.61198 13.3907L8.62791 13.4194L8.64684 13.4448L8.66277 13.4737L8.68171 13.4992L8.69764 13.5278L8.71657 13.5533L8.7325 13.5821L8.75164 13.6075L8.77053 13.6362L8.7865 13.6617L8.80539 13.6905L8.82137 13.716L8.84046 13.7446L8.85619 13.7701L8.87533 13.799L8.89105 13.8244L8.91019 13.853L8.92612 13.8785L8.94505 13.9072L8.96094 13.9329L8.97992 13.9615L8.9958 13.987L9.01478 14.0156L9.03071 14.0413L9.04981 14.0699H9.0624L9.07829 14.0445L9.09726 14.0156L9.11315 13.9901L9.13229 13.9647L9.14802 13.936L9.16712 13.9105L9.18288 13.8849L9.19881 13.8563L9.21795 13.8308L9.23367 13.8053L9.25281 13.7797L9.26853 13.751L9.28763 13.7255L9.3036 13.7L9.31933 13.6713L9.33847 13.6458L9.35415 13.6203L9.37329 13.5917L9.38901 13.5662L9.40815 13.5405L9.42412 13.5119L9.43984 13.4864L9.45899 13.461L9.47471 13.4321L9.49381 13.4066L9.50974 13.3812L9.52867 13.3557L9.5446 13.3269L9.56032 13.3014L9.57946 13.2759L9.59539 13.2473L9.61433 13.2218L9.63026 13.1963L9.64923 13.1675L9.66508 13.142V13.1738V13.2057V13.2375V13.2695V13.3014V13.3332V13.3651V13.3969V13.4289V13.4608V13.4926V13.5244V13.5562V13.5881V13.6201V13.652V13.6838V13.7156V13.7475V13.7793V13.8113V13.8431V13.875V13.9068V13.9386V13.9705V14.0025V14.0343V14.0662V14.098V14.1299V14.1619V14.1937V14.2255V14.2573V14.2892V14.321V14.3529V14.3849V14.4168V14.4486V14.4804V14.5123H9.69681H9.72846H9.76032H9.79519H9.82688H9.85853H9.89039H9.92209H9.95374H9.9886H10.0203H10.0522H10.0838H10.1155H10.1472H10.1822H10.2139ZM6.55558 13.5285L6.56513 13.5574L6.57789 13.586H6.5462H6.51438H6.48268H6.45099H6.41934H6.38765H6.35579H6.32413H6.29565H6.26379H6.23206H6.2004H6.16875H6.13689H6.1052H6.07355H6.04185L6.05441 13.5574L6.06396 13.5285L6.07672 13.4967L6.08948 13.468L6.09882 13.4392L6.11158 13.4105L6.1243 13.3787L6.13689 13.3499L6.14644 13.3212L6.1592 13.2926L6.17192 13.2638L6.18131 13.2319L6.19407 13.2033L6.20679 13.1744L6.21638 13.1458L6.22893 13.1171L6.24169 13.0851L6.25441 13.0564L6.26379 13.0278L6.27655 12.999L6.28931 12.9671L6.29882 12.9383L6.31137 12.9096L6.32413 12.9383L6.33368 12.9671L6.34624 12.999L6.359 13.0278L6.36855 13.0564L6.38127 13.0851L6.39386 13.1171L6.40337 13.1458L6.41613 13.1744L6.42889 13.2033L6.43823 13.2319L6.45099 13.2638L6.46058 13.2926L6.47309 13.3212L6.48585 13.3499L6.49545 13.3787L6.50816 13.4105L6.52072 13.4392L6.53027 13.468L6.54303 13.4967L6.55558 13.5285ZM7.52948 14.5123H7.5613H7.59295L7.58024 14.4836L7.56747 14.4549L7.55496 14.4263L7.54537 14.3945L7.53261 14.366L7.51989 14.3373L7.5073 14.3087L7.49458 14.28L7.48186 14.2514L7.46931 14.2195L7.45655 14.1909L7.44696 14.1623L7.4344 14.1336L7.42168 14.105L7.40892 14.0763L7.3962 14.0445L7.38365 14.0158L7.37089 13.9871L7.35813 13.9585L7.34879 13.9298L7.33603 13.9012L7.32327 13.8693L7.31051 13.8407L7.29796 13.812L7.28519 13.7834L7.27248 13.7547L7.25992 13.7261L7.25037 13.6943L7.23761 13.6656L7.22506 13.637L7.2123 13.6083L7.19954 13.5797L7.18682 13.551L7.17427 13.5192L7.16155 13.4905L7.15196 13.4619L7.13945 13.4332L7.12669 13.4046L7.11393 13.3759L7.10121 13.3441L7.08861 13.3154L7.07585 13.2868L7.06313 13.2581L7.05375 13.2295L7.04103 13.2008L7.02827 13.1724L7.01572 13.1405L7.00296 13.1119L6.9902 13.0832L6.97748 13.0545L6.96492 13.0259L6.95533 12.9973L6.94261 12.9654L6.93006 12.9368L6.9173 12.9081L6.90458 12.8795L6.89182 12.8508L6.87923 12.8222L6.86651 12.7903L6.85696 12.7617L6.84441 12.733L6.83165 12.7044L6.81893 12.6757L6.80637 12.6471L6.79361 12.6153L6.78085 12.5866L6.76813 12.558L6.75875 12.5293L6.74599 12.5007L6.73323 12.472L6.72072 12.4402L6.70796 12.4115L6.69524 12.3828L6.68248 12.3542L6.66993 12.3255L6.66038 12.2969L6.64762 12.265L6.63506 12.2364L6.6223 12.2078L6.60958 12.1791H6.57789H6.54941H6.51751H6.48585H6.4542H6.42568H6.39386H6.36217H6.33051H6.30203H6.27013H6.23844H6.20679H6.1783H6.14644H6.11475H6.0831H6.05441H6.02276L6.0102 12.2078L5.99744 12.2364L5.98472 12.265L5.97513 12.2969L5.96258 12.3255L5.94986 12.3542L5.9371 12.3828L5.92455 12.4115L5.91179 12.4402L5.89903 12.472L5.88626 12.5007L5.87692 12.5293L5.86416 12.558L5.8514 12.5866L5.83885 12.6153L5.82609 12.6471L5.81337 12.6757L5.80082 12.7044L5.7881 12.733L5.77851 12.7617L5.76579 12.7903L5.75324 12.8222L5.74048 12.8508L5.72776 12.8795L5.71516 12.9081L5.70244 12.9368L5.68968 12.9654L5.68013 12.9973L5.66758 13.0259L5.65482 13.0545L5.6421 13.0832L5.62951 13.1119L5.61679 13.1405L5.60407 13.1724L5.59147 13.2008L5.58193 13.2295L5.56916 13.2581L5.55645 13.2868L5.54389 13.3154L5.53113 13.3441L5.51837 13.3759L5.50582 13.4046L5.49306 13.4332L5.48351 13.4619L5.47079 13.4905L5.4582 13.5192L5.44548 13.551L5.43276 13.5797L5.42016 13.6083L5.40744 13.637L5.39468 13.6656L5.38513 13.6943L5.37258 13.7261L5.35982 13.7547L5.34706 13.7834L5.33455 13.812L5.32179 13.8407L5.30903 13.8693L5.29648 13.9012L5.28693 13.9298L5.27417 13.9585L5.26145 13.9871L5.24885 14.0158L5.23613 14.0445L5.22337 14.0763L5.21082 14.105L5.19806 14.1336L5.18855 14.1623L5.17579 14.1909L5.16324 14.2195L5.15048 14.2514L5.13772 14.28L5.12516 14.3087L5.11245 14.3373L5.09968 14.366L5.09014 14.3945L5.07754 14.4263L5.06482 14.4549L5.05206 14.4836L5.03951 14.5123H5.0712H5.1029H5.13455H5.16645H5.20131H5.23296H5.26457H5.29648H5.32817H5.35982H5.39151H5.42333H5.45503H5.48672H5.52158H5.55323H5.58514H5.61679H5.64844H5.68013L5.69289 14.4836L5.70244 14.4549L5.71516 14.4263L5.72776 14.3945L5.73731 14.366L5.75007 14.3373L5.76262 14.3087L5.77217 14.28L5.78493 14.2514L5.79765 14.2227L5.80703 14.1941L5.81975 14.1623L5.83251 14.1336L5.84206 14.105L5.85461 14.0763H5.88626H5.91817H5.94986H5.98147H6.0102H6.04185H6.07355H6.1052H6.13689H6.16875H6.2004H6.23206H6.26379H6.29565H6.32413H6.35579H6.38765H6.41934H6.45099H6.48268H6.51438H6.5462H6.57789H6.60958H6.63823H6.66993H6.70158H6.73323H6.76492L6.77768 14.105L6.78723 14.1336L6.79999 14.1623L6.81259 14.1941L6.8221 14.2227L6.83486 14.2514L6.84758 14.28L6.85696 14.3087L6.86972 14.3373L6.88244 14.366L6.89182 14.3945L6.90458 14.4263L6.9173 14.4549L6.92685 14.4836L6.93945 14.5123H6.9713H7.00296H7.03144H7.06313H7.09495H7.12669H7.15834H7.18682H7.21868H7.25037H7.28203H7.31372H7.34558H7.37406H7.40575H7.43741H7.46931H7.50092H7.52948ZM4.7569 14.2354L4.78238 14.2163L4.80448 14.1973V14.1654V14.1336V14.1018V14.0731V14.0413V14.0095V13.9776V13.9458V13.9139V13.8853V13.8535V13.8216V13.7898V13.758V13.7261V13.6943V13.6656V13.6338V13.602V13.5701V13.5383V13.5064V13.4746V13.446V13.4141V13.3823V13.3504V13.3186V13.2868V13.2581V13.2263V13.1945V13.1628H4.77278H4.74113H4.70927H4.67762H4.64593H4.61428H4.58237H4.55072H4.51903H4.48734H4.45552H4.42382H4.39217H4.36048H4.32862H4.29697H4.26531H4.23358H4.20172H4.17007H4.13837H4.10672H4.07486H4.04317H4.01152H3.97982H3.94796H3.91631H3.88462H3.85297H3.82127H3.78941H3.75772V13.1945V13.2231V13.255V13.2868V13.3186V13.3473V13.3791V13.411V13.4428V13.4714V13.5033V13.5351V13.567V13.5956V13.6274H3.78941H3.81806H3.84976H3.88145H3.91314H3.94179H3.97344H4.0051H4.03683H4.06548H4.09717H4.12882H4.16052H4.18917H4.22086V13.6593V13.6911V13.7229V13.7547V13.7898V13.8216V13.8535V13.8853V13.9171L4.19555 13.933L4.17324 13.9458L4.1448 13.9585L4.11932 13.9712L4.09075 13.984L4.06231 13.9903L4.03062 13.9999L3.99876 14.0062L3.96711 14.0126L3.93541 14.0158L3.90055 14.019L3.86548 14.0222H3.82745H3.79258L3.75772 14.019L3.72607 14.0158L3.69437 14.0095L3.66251 14.0031L3.63086 13.9935L3.59913 13.984L3.57052 13.9712L3.54204 13.9585L3.51351 13.9458L3.48803 13.9298L3.46276 13.9139L3.43745 13.8948L3.41193 13.8757L3.38987 13.8566L3.37069 13.8344L3.34858 13.812L3.32948 13.7898L3.31055 13.7643L3.29462 13.7388L3.27869 13.7134L3.26293 13.6847L3.25021 13.656L3.23745 13.6242L3.22807 13.5988L3.21852 13.5701L3.21218 13.5415L3.20575 13.5128L3.19942 13.4842L3.1962 13.4523L3.19304 13.4237L3.19007 13.3918V13.36V13.3536V13.3186L3.19304 13.2868L3.1962 13.255L3.20259 13.2199L3.20897 13.1913L3.2153 13.1596L3.2249 13.1278L3.23745 13.0991L3.24704 13.0705L3.25976 13.0418L3.27569 13.0164L3.29141 12.9877L3.30734 12.9623L3.3231 12.94L3.34224 12.9145L3.36435 12.8922L3.38345 12.8699L3.40555 12.8508L3.4279 12.8317L3.45 12.8127L3.47552 12.7967L3.50079 12.7808L3.52627 12.7648L3.55476 12.7521L3.58328 12.7394L3.61172 12.7298L3.64041 12.7203L3.6689 12.7139L3.70059 12.7076L3.72924 12.7044L3.76093 12.7012H3.79258H3.82745L3.86247 12.7044L3.89734 12.7076L3.92907 12.7108L3.96072 12.7171L3.99238 12.7235L4.02107 12.7298L4.04955 12.7394L4.07803 12.749L4.10351 12.7585L4.12882 12.7713L4.1543 12.784L4.18279 12.7999L4.2081 12.8158L4.23358 12.8317L4.25889 12.8476L4.28421 12.8667L4.30969 12.8827L4.335 12.9049L4.36048 12.924L4.37941 12.8986L4.40168 12.8763L4.42065 12.8508L4.44296 12.8254L4.46186 12.7999L4.481 12.7776L4.50314 12.7521L4.5222 12.7267L4.54434 12.7012L4.56348 12.6789L4.58237 12.6534L4.60468 12.628L4.62362 12.6057L4.64276 12.5802L4.66486 12.5548L4.684 12.5293L4.7061 12.507L4.7252 12.4815L4.69989 12.4624L4.67441 12.4402L4.64914 12.421L4.62362 12.402L4.59835 12.386L4.57303 12.3669L4.54434 12.351L4.51903 12.3351L4.49059 12.3192L4.46507 12.3033L4.43658 12.2905L4.4081 12.2746L4.37941 12.2619L4.35093 12.2491L4.32245 12.2364L4.29376 12.2268L4.26844 12.2173L4.24 12.211L4.21131 12.2014L4.18279 12.195L4.1543 12.1886L4.12566 12.1823L4.09396 12.1759L4.06231 12.1695L4.03362 12.1664L3.99876 12.16L3.96711 12.1568H3.93541L3.90055 12.1536L3.86548 12.1504H3.83061H3.79579H3.7641H3.72924L3.69738 12.1536L3.66568 12.1568L3.63403 12.16L3.60234 12.1632L3.57052 12.1695L3.53879 12.1728L3.50713 12.1791L3.47865 12.1886L3.44679 12.195L3.41831 12.2045L3.38987 12.211L3.36114 12.2237L3.32948 12.2333L3.30417 12.2428L3.27248 12.2587L3.24383 12.2714L3.2153 12.2842L3.18686 12.3001L3.15817 12.316L3.12969 12.3319L3.10442 12.3478L3.0789 12.3638L3.05358 12.3828L3.0281 12.3988L3.00279 12.4179L2.98065 12.437L2.95518 12.4593L2.93307 12.4783L2.91079 12.5007L2.88865 12.5229L2.86953 12.5452L2.84742 12.5675L2.8283 12.5898L2.80936 12.6153L2.79024 12.6407L2.77133 12.6662L2.75537 12.6916L2.73949 12.7171L2.72371 12.7426L2.70779 12.768L2.69187 12.7967L2.67932 12.8254L2.66656 12.854L2.65384 12.8827L2.64126 12.9113L2.6285 12.9431L2.61894 12.9718L2.60938 13.0036L2.60003 13.0323L2.59363 13.0641L2.58408 13.096L2.57771 13.1246L2.57455 13.1565L2.56819 13.1881L2.56496 13.2231L2.56197 13.255V13.2868L2.55881 13.3218V13.3536V13.36V13.3918V13.4268L2.56197 13.4587L2.56496 13.4905L2.56819 13.5224L2.57132 13.551L2.57771 13.5828L2.58091 13.6115L2.58727 13.6433L2.59683 13.672L2.6032 13.7038L2.61258 13.7325L2.61894 13.7611L2.6317 13.7898L2.64126 13.8153L2.65384 13.8439L2.66656 13.8725L2.67932 13.9012L2.69187 13.9298L2.70779 13.9553L2.72371 13.984L2.73949 14.0095L2.75537 14.0349L2.77432 14.0604L2.79024 14.0858L2.80936 14.1081L2.8283 14.1336L2.84742 14.1559L2.86953 14.1782L2.89184 14.2005L2.91395 14.2195L2.93627 14.2418L2.95838 14.2609L2.98065 14.28L3.006 14.2991L3.03132 14.3182L3.0568 14.3373L3.08207 14.3532L3.10759 14.3692L3.13607 14.3851L3.16134 14.4008L3.19007 14.4168L3.21852 14.4295L3.24704 14.4422L3.27569 14.4549L3.30734 14.4677L3.33582 14.4772L3.36435 14.4899L3.39304 14.4995L3.42469 14.5059L3.45317 14.5154L3.48503 14.5218L3.51351 14.5281L3.54521 14.5345L3.57686 14.5409L3.60876 14.5441L3.64041 14.5473L3.67206 14.5505L3.70693 14.5536L3.73862 14.5568H3.77048H3.8053H3.84021H3.87507L3.90989 14.5536L3.94179 14.5505L3.97665 14.5473L4.00831 14.5441L4.04317 14.5409L4.07486 14.5377L4.10672 14.5313L4.13837 14.525L4.1669 14.5186L4.19876 14.5123L4.22724 14.5027L4.25889 14.4932L4.28742 14.4836L4.31607 14.474L4.34459 14.4645L4.37303 14.4517L4.40493 14.439L4.43342 14.4263L4.46507 14.4135L4.49355 14.3976L4.5222 14.3851L4.55072 14.3692L4.5792 14.3532L4.6079 14.3373L4.63321 14.3214L4.65869 14.3055L4.684 14.2864L4.70927 14.2705L4.73475 14.2514L4.7569 14.2354ZM5.34906 17.2598H12.0324L8.62107 18.3838L5.34906 17.2598Z" fill="white"/>
</svg>
