<svg width="21" height="20" viewBox="0 0 21 20" fill="none" xmlns="http://www.w3.org/2000/svg">
<g id="Vector">
<path d="M9.52351 11.6613C9.85208 11.8808 10.2384 11.998 10.6335 11.998C10.8959 11.998 11.1557 11.9463 11.3981 11.8459C11.6406 11.7455 11.8608 11.5983 12.0463 11.4128C12.2319 11.2273 12.379 11.007 12.4795 10.7646C12.5799 10.5222 12.6315 10.2624 12.6315 10C12.6315 9.60483 12.5144 9.21854 12.2948 8.88997C12.0753 8.5614 11.7632 8.30531 11.3981 8.15409C11.0331 8.00286 10.6313 7.9633 10.2438 8.04039C9.85618 8.11748 9.50017 8.30778 9.22074 8.5872C8.94132 8.86663 8.75103 9.22264 8.67393 9.61021C8.59684 9.99778 8.63641 10.3995 8.78763 10.7646C8.93886 11.1297 9.19494 11.4417 9.52351 11.6613Z" fill="white"/>
<path fill-rule="evenodd" clip-rule="evenodd" d="M15.3135 13.516C15.4442 13.1582 15.5132 12.7809 15.5175 12.4C15.5475 11.8 15.5535 11.578 15.5535 10C15.5535 8.422 15.5475 8.2 15.5175 7.6C15.5159 7.21107 15.4469 6.82536 15.3135 6.46C15.2138 6.20964 15.0602 5.98431 14.8635 5.8C14.6669 5.58571 14.4222 5.42119 14.1495 5.32C13.7918 5.18935 13.4144 5.12037 13.0335 5.116C12.4335 5.08 12.2115 5.08 10.6335 5.08C9.65744 5.08 9.20018 5.09377 8.85136 5.10428C8.63626 5.11076 8.4624 5.116 8.23354 5.116C7.84474 5.11905 7.45927 5.18803 7.09354 5.32C6.84111 5.42986 6.61583 5.5937 6.43354 5.8C6.2273 5.981 6.06517 6.20675 5.95954 6.46C5.82331 6.82477 5.75223 7.21063 5.74955 7.6C5.71355 8.2 5.71355 8.422 5.71355 10C5.71355 10.9761 5.72732 11.4334 5.73783 11.7822C5.74431 11.9973 5.74955 12.1711 5.74955 12.4C5.76181 12.7912 5.84306 13.1771 5.98954 13.54C6.08245 13.8011 6.23439 14.0372 6.43354 14.23C6.62035 14.4237 6.84501 14.5768 7.09354 14.68C7.4683 14.8065 7.86208 14.8674 8.25754 14.86C8.85753 14.896 9.07953 14.896 10.6574 14.896C12.2354 14.896 12.4575 14.89 13.0575 14.86C13.4384 14.8556 13.8158 14.7867 14.1735 14.656C14.4335 14.5579 14.6689 14.4043 14.8635 14.206C15.0639 14.0131 15.2177 13.7771 15.3135 13.516ZM13.4375 6.19734C13.5559 6.11823 13.6951 6.076 13.8375 6.076C14.0285 6.076 14.2116 6.15186 14.3467 6.28688C14.4817 6.42191 14.5575 6.60504 14.5575 6.796C14.5575 6.9384 14.5153 7.07761 14.4362 7.19601C14.3571 7.31441 14.2446 7.4067 14.1131 7.46119C13.9815 7.51569 13.8367 7.52995 13.6971 7.50216C13.5574 7.47438 13.4291 7.40581 13.3284 7.30512C13.2277 7.20442 13.1592 7.07613 13.1314 6.93647C13.1036 6.7968 13.1179 6.65203 13.1723 6.52047C13.2268 6.3889 13.3191 6.27646 13.4375 6.19734ZM8.92514 7.44365C9.43052 7.10472 10.025 6.92319 10.6335 6.922C11.0385 6.92042 11.4397 6.99891 11.8142 7.15296C12.1887 7.30701 12.529 7.53358 12.8157 7.81963C13.1023 8.10569 13.3295 8.44558 13.4843 8.81977C13.6391 9.19396 13.7183 9.59506 13.7175 10C13.7175 10.6085 13.5372 11.2034 13.1992 11.7094C12.8613 12.2155 12.3809 12.61 11.8188 12.8431C11.2567 13.0763 10.6382 13.1376 10.0413 13.0193C9.44435 12.901 8.89589 12.6085 8.46519 12.1786C8.03448 11.7487 7.74086 11.2008 7.62142 10.6042C7.50198 10.0075 7.56208 9.38879 7.79412 8.82625C8.02617 8.26372 8.41975 7.78259 8.92514 7.44365Z" fill="white"/>
<path fill-rule="evenodd" clip-rule="evenodd" d="M10.6335 20C16.1564 20 20.6335 15.5228 20.6335 10C20.6335 4.47715 16.1564 0 10.6335 0C5.1107 0 0.633545 4.47715 0.633545 10C0.633545 15.5228 5.1107 20 10.6335 20ZM16.3215 6.07C16.4926 6.53764 16.5859 7.03018 16.5975 7.528C16.6335 8.164 16.6335 8.368 16.6335 10C16.6335 11.0048 16.6199 11.4683 16.6094 11.8245C16.6029 12.0469 16.5975 12.2276 16.5975 12.472C16.5859 12.9698 16.4926 13.4624 16.3215 13.93C16.1705 14.3309 15.9329 14.6935 15.6255 14.992C15.3284 15.2995 14.9653 15.5355 14.5635 15.682C14.0971 15.8583 13.604 15.9537 13.1055 15.964C12.4695 16 12.2655 16 10.6335 16C9.00154 16 8.79754 16 8.16154 15.964C7.66303 15.9537 7.16995 15.8583 6.70354 15.682C6.30255 15.534 5.9397 15.2983 5.64154 14.992C5.334 14.6949 5.09805 14.3317 4.95154 13.93C4.77524 13.4636 4.67987 12.9705 4.66954 12.472C4.63354 11.836 4.63354 11.632 4.63354 10C4.63354 8.368 4.63354 8.164 4.66954 7.528C4.67987 7.02949 4.77524 6.53641 4.95154 6.07C5.09805 5.66826 5.334 5.30511 5.64154 5.008C5.9397 4.70174 6.30255 4.46599 6.70354 4.318C7.16995 4.1417 7.66303 4.04633 8.16154 4.036C8.79754 4 9.00154 4 10.6335 4C12.2655 4 12.4695 4 13.1055 4.036C13.604 4.04633 14.0971 4.1417 14.5635 4.318C14.9653 4.46451 15.3284 4.70046 15.6255 5.008C15.9315 5.30757 16.169 5.66988 16.3215 6.07Z" fill="white"/>
</g>
</svg>
