<svg width="21" height="20" viewBox="0 0 21 20" fill="none" xmlns="http://www.w3.org/2000/svg">
<path id="Vector" fill-rule="evenodd" clip-rule="evenodd" d="M10.6584 20C16.1813 20 20.6584 15.5228 20.6584 10C20.6584 4.47715 16.1813 0 10.6584 0C5.1356 0 0.658447 4.47715 0.658447 10C0.658447 15.5228 5.1356 20 10.6584 20ZM15.2424 7.59116C15.7305 7.53076 16.2074 7.39836 16.6584 7.19807C16.3353 7.70013 15.9293 8.14075 15.4584 8.50018V8.82571C15.4657 9.77142 15.2887 10.7091 14.938 11.584C14.5872 12.459 14.0697 13.2536 13.4156 13.9215C12.7615 14.5893 11.9839 15.1171 11.1283 15.4739C10.2727 15.8307 9.35626 16.0094 8.43245 15.9996C7.09373 16.0013 5.7831 15.6067 4.65845 14.8633C4.85749 14.8886 5.05789 14.9009 5.25845 14.9002C6.35998 14.897 7.42877 14.5165 8.29445 13.8192C7.78179 13.8091 7.28496 13.6357 6.87309 13.323C6.46122 13.0104 6.15479 12.5741 5.99645 12.0749C6.1491 12.1016 6.30358 12.116 6.45845 12.1178C6.68217 12.1153 6.9044 12.0801 7.11845 12.0134C6.5624 11.9002 6.06163 11.5938 5.70084 11.1462C5.34004 10.6985 5.14138 10.137 5.13845 9.55661V9.5259C5.48038 9.72079 5.86323 9.82825 6.25445 9.83915C5.91786 9.60926 5.64202 9.29773 5.4515 8.93231C5.26098 8.56689 5.16168 8.15892 5.16245 7.74471C5.16216 7.29869 5.27593 6.86036 5.49245 6.47331C6.10975 7.25193 6.88017 7.88891 7.75364 8.34286C8.62711 8.79681 9.5841 9.05759 10.5624 9.10824C10.4348 8.56614 10.4866 7.99601 10.7096 7.48726C10.9326 6.97851 11.3143 6.55992 11.7947 6.29715C12.2752 6.03437 12.8272 5.94227 13.3643 6.03529C13.9014 6.12831 14.3932 6.40118 14.7624 6.81112C15.3149 6.69952 15.8446 6.49177 16.3284 6.19691C16.1432 6.78089 15.7573 7.27627 15.2424 7.59116Z" fill="white"/>
</svg>
