<svg width="313" height="309" viewBox="0 0 313 309" fill="none" xmlns="http://www.w3.org/2000/svg">
<path d="M25.551 154.5C25.551 83.1031 84.1789 25.2245 156.5 25.2245C169.461 25.2245 181.961 27.0797 193.754 30.5275L204.097 33.5517C205.152 33.8601 206.258 33.2595 206.574 32.2067L212.68 11.8521C212.999 10.7888 212.391 9.66926 211.326 9.35775L201.009 6.34146C186.887 2.21222 171.944 0 156.5 0C70.0674 0 0 69.172 0 154.5C0 239.828 70.0674 309 156.5 309C242.933 309 313 239.828 313 154.5C313 138.499 310.532 123.044 305.942 108.498L302.74 98.3499C302.409 97.3019 301.295 96.717 300.245 97.04L279.673 103.366C278.612 103.693 278.02 104.821 278.354 105.88L281.547 116C285.38 128.145 287.449 141.072 287.449 154.5C287.449 225.897 228.821 283.776 156.5 283.776C84.1789 283.776 25.551 225.897 25.551 154.5Z" fill="#E2E2E2"/>
<path d="M284.978 29.6388C283.873 29.6388 282.978 28.7433 282.978 27.6388V2C282.978 0.895431 282.082 0 280.978 0H259.427C258.322 0 257.427 0.895429 257.427 2V27.6388C257.427 28.7433 256.531 29.6388 255.427 29.6388H229.404C228.3 29.6388 227.404 30.5342 227.404 31.6388V52.8633C227.404 53.9678 228.3 54.8633 229.404 54.8633H255.427C256.531 54.8633 257.427 55.7587 257.427 56.8633V82.502C257.427 83.6066 258.322 84.502 259.427 84.502H280.978C282.082 84.502 282.978 83.6066 282.978 82.502V56.8633C282.978 55.7587 283.873 54.8633 284.978 54.8633H311C312.105 54.8633 313 53.9678 313 52.8633V31.6388C313 30.5342 312.105 29.6388 311 29.6388H284.978Z" fill="#E2E2E2"/>
<path d="M111.339 109.237C111.412 108.135 112.299 107.235 113.404 107.235H133.907C135.012 107.235 135.907 108.13 135.907 109.235V203C135.907 204.105 135.012 205 133.907 205H111.023C109.919 205 109.023 204.105 109.023 203V148.683C109.023 147.245 107.547 146.27 106.186 146.731C101.964 148.163 96.9406 149.078 91.0009 149.246C89.8967 149.277 89 148.378 89 147.274V130.507C89 129.441 89.8412 128.568 90.9026 128.466C103.187 127.294 110.584 120.782 111.339 109.237Z" fill="#E2E2E2"/>
<path d="M148.688 205C147.583 205 146.688 204.105 146.688 203V187.893C146.688 187.16 147.089 186.487 147.729 186.131C159.762 179.427 172.727 169.495 182.254 158.771C188.975 151.229 193.875 143.827 193.875 136.983C193.875 131.955 190.375 129.022 184.914 129.022C179.6 129.022 174.526 131.894 173.023 140.186C172.818 141.318 171.774 142.139 170.637 141.958L147.309 138.259C146.256 138.092 145.514 137.126 145.673 136.071C148.605 116.67 163.307 105 183.794 105C205.497 105 221.46 117.849 221.46 136.145C221.46 153.665 207.691 167.698 193.958 177.761C192.363 178.93 193.171 181.536 195.149 181.536H221C222.105 181.536 223 182.432 223 183.536V203C223 204.105 222.105 205 221 205H148.688Z" fill="#E2E2E2"/>
</svg>
