<svg width="313" height="309" viewBox="0 0 313 309" fill="none" xmlns="http://www.w3.org/2000/svg">
<path d="M25.551 154.5C25.551 83.1031 84.1789 25.2245 156.5 25.2245C169.461 25.2245 181.961 27.0797 193.754 30.5275L204.097 33.5517C205.152 33.8601 206.258 33.2595 206.574 32.2067L212.68 11.8521C212.999 10.7888 212.391 9.66926 211.326 9.35775L201.009 6.34146C186.887 2.21222 171.944 0 156.5 0C70.0674 0 0 69.172 0 154.5C0 239.828 70.0674 309 156.5 309C242.933 309 313 239.828 313 154.5C313 138.499 310.532 123.044 305.942 108.498L302.74 98.3499C302.409 97.3019 301.295 96.717 300.245 97.04L279.673 103.366C278.612 103.693 278.02 104.821 278.354 105.88L281.547 116C285.38 128.145 287.449 141.072 287.449 154.5C287.449 225.897 228.821 283.776 156.5 283.776C84.1789 283.776 25.551 225.897 25.551 154.5Z" fill="#E2E2E2"/>
<path d="M284.978 29.6388C283.873 29.6388 282.978 28.7433 282.978 27.6388V2C282.978 0.895431 282.082 0 280.978 0H259.427C258.322 0 257.427 0.895429 257.427 2V27.6388C257.427 28.7433 256.531 29.6388 255.427 29.6388H229.404C228.3 29.6388 227.404 30.5342 227.404 31.6388V52.8633C227.404 53.9678 228.3 54.8633 229.404 54.8633H255.427C256.531 54.8633 257.427 55.7587 257.427 56.8633V82.502C257.427 83.6066 258.322 84.502 259.427 84.502H280.978C282.082 84.502 282.978 83.6066 282.978 82.502V56.8633C282.978 55.7587 283.873 54.8633 284.978 54.8633H311C312.105 54.8633 313 53.9678 313 52.8633V31.6388C313 30.5342 312.105 29.6388 311 29.6388H284.978Z" fill="#E2E2E2"/>
<path d="M107.767 109.188C107.841 108.086 108.728 107.186 109.833 107.186H129.712C130.816 107.186 131.712 108.081 131.712 109.186V200.814C131.712 201.919 130.816 202.814 129.712 202.814H107.513C106.408 202.814 105.513 201.919 105.513 200.814V147.799C105.513 146.36 104.034 145.384 102.671 145.845C98.5849 147.227 93.7311 148.11 88.0007 148.277C86.8966 148.309 86 147.411 86 146.306V129.991C86 128.925 86.8409 128.052 87.902 127.949C99.8293 126.791 107.017 120.438 107.767 109.188Z" fill="#E2E2E2"/>
<path d="M222.645 126.961C223.086 128.062 222.401 129.268 221.244 129.525L200.387 134.165C199.484 134.366 198.57 133.914 198.102 133.115C195.492 128.659 191.59 126.175 185.883 126.175C175.118 126.175 170.786 134.225 169.941 143.285C169.796 144.83 171.485 145.811 172.885 145.14C179.236 142.098 186.29 140.792 192.842 140.792C212.628 140.792 226 152.951 226 170.71C226 190.656 209.353 205 186.156 205C159.684 205 143.719 186.421 143.719 155.546C143.719 124.399 159.957 105 186.838 105C204.506 105 217.227 113.421 222.645 126.961ZM170.731 164.255C170.292 164.615 170.049 165.161 170.074 165.728C170.47 174.636 176.779 182.186 186.156 182.186C194.07 182.186 200.21 176.858 200.21 170.027C200.21 163.47 194.07 159.098 186.156 159.098C179.971 159.098 174.638 161.047 170.731 164.255Z" fill="#E2E2E2"/>
</svg>
