<svg width="313" height="309" viewBox="0 0 313 309" fill="none" xmlns="http://www.w3.org/2000/svg">
<path d="M25.551 154.5C25.551 83.1031 84.1789 25.2245 156.5 25.2245C169.461 25.2245 181.961 27.0797 193.754 30.5275L204.097 33.5517C205.152 33.8601 206.258 33.2595 206.574 32.2067L212.68 11.8521C212.999 10.7888 212.391 9.66926 211.326 9.35775L201.009 6.34146C186.887 2.21222 171.944 0 156.5 0C70.0674 0 0 69.172 0 154.5C0 239.828 70.0674 309 156.5 309C242.933 309 313 239.828 313 154.5C313 138.499 310.532 123.044 305.942 108.498L302.74 98.3499C302.409 97.3019 301.295 96.717 300.245 97.04L279.673 103.366C278.612 103.693 278.02 104.821 278.354 105.88L281.547 116C285.38 128.145 287.449 141.072 287.449 154.5C287.449 225.897 228.821 283.776 156.5 283.776C84.1789 283.776 25.551 225.897 25.551 154.5Z" fill="#E2E2E2"/>
<path d="M284.978 29.6388C283.873 29.6388 282.978 28.7433 282.978 27.6388V2C282.978 0.895431 282.082 0 280.978 0H259.427C258.322 0 257.427 0.895429 257.427 2V27.6388C257.427 28.7433 256.531 29.6388 255.427 29.6388H229.404C228.3 29.6388 227.404 30.5342 227.404 31.6388V52.8633C227.404 53.9678 228.3 54.8633 229.404 54.8633H255.427C256.531 54.8633 257.427 55.7587 257.427 56.8633V82.502C257.427 83.6066 258.322 84.502 259.427 84.502H280.978C282.082 84.502 282.978 83.6066 282.978 82.502V56.8633C282.978 55.7587 283.873 54.8633 284.978 54.8633H311C312.105 54.8633 313 53.9678 313 52.8633V31.6388C313 30.5342 312.105 29.6388 311 29.6388H284.978Z" fill="#E2E2E2"/>
<path d="M109.804 109.188C109.878 108.086 110.765 107.186 111.87 107.186H131.789C132.894 107.186 133.789 108.081 133.789 109.186V200.814C133.789 201.919 132.894 202.814 131.789 202.814H109.546C108.441 202.814 107.546 201.919 107.546 200.814V147.797C107.546 146.359 106.069 145.383 104.706 145.843C100.61 147.226 95.7452 148.111 90.0007 148.277C88.8966 148.309 88 147.411 88 146.306V129.991C88 128.925 88.841 128.052 89.9022 127.949C101.852 126.793 109.052 120.439 109.804 109.188Z" fill="#E2E2E2"/>
<path d="M184.225 205C159.895 205 144.45 193.525 144.45 176.038C144.45 166.311 149.202 158.59 157.501 153.617C158.929 152.761 158.994 150.549 157.647 149.571C151.506 145.112 148.14 138.609 148.14 130.82C148.14 114.973 162.082 105 184.225 105C206.368 105 220.31 114.973 220.31 130.273C220.31 138.492 216.286 145.043 208.903 149.512C207.377 150.436 207.422 152.9 209.002 153.73C218.486 158.715 224 166.454 224 176.585C224 193.525 208.555 205 184.225 205ZM184.225 142.842C191.879 142.842 196.39 139.836 196.39 134.508C196.39 129.18 191.879 126.175 184.225 126.175C176.57 126.175 172.197 129.18 172.197 134.508C172.197 139.836 176.57 142.842 184.225 142.842ZM184.225 182.459C193.519 182.459 198.577 178.497 198.577 172.213C198.577 165.929 193.519 162.104 184.225 162.104C175.067 162.104 169.736 165.929 169.736 172.213C169.736 178.497 175.067 182.459 184.225 182.459Z" fill="#E2E2E2"/>
</svg>
