<svg width="313" height="309" viewBox="0 0 313 309" fill="none" xmlns="http://www.w3.org/2000/svg">
<path d="M25.551 154.5C25.551 83.1031 84.1789 25.2245 156.5 25.2245C169.461 25.2245 181.961 27.0797 193.754 30.5275L204.097 33.5517C205.152 33.8601 206.258 33.2595 206.574 32.2067L212.68 11.8521C212.999 10.7888 212.391 9.66926 211.326 9.35775L201.009 6.34146C186.887 2.21222 171.944 0 156.5 0C70.0674 0 0 69.172 0 154.5C0 239.828 70.0674 309 156.5 309C242.933 309 313 239.828 313 154.5C313 138.499 310.532 123.044 305.942 108.498L302.74 98.3499C302.409 97.3019 301.295 96.717 300.245 97.04L279.673 103.366C278.612 103.693 278.02 104.821 278.354 105.88L281.547 116C285.38 128.145 287.449 141.072 287.449 154.5C287.449 225.897 228.821 283.776 156.5 283.776C84.1789 283.776 25.551 225.897 25.551 154.5Z" fill="#E2E2E2"/>
<path d="M284.978 29.6388C283.873 29.6388 282.978 28.7433 282.978 27.6388V2C282.978 0.895431 282.082 0 280.978 0H259.427C258.322 0 257.427 0.895429 257.427 2V27.6388C257.427 28.7433 256.531 29.6388 255.427 29.6388H229.404C228.3 29.6388 227.404 30.5342 227.404 31.6388V52.8633C227.404 53.9678 228.3 54.8633 229.404 54.8633H255.427C256.531 54.8633 257.427 55.7587 257.427 56.8633V82.502C257.427 83.6066 258.322 84.502 259.427 84.502H280.978C282.082 84.502 282.978 83.6066 282.978 82.502V56.8633C282.978 55.7587 283.873 54.8633 284.978 54.8633H311C312.105 54.8633 313 53.9678 313 52.8633V31.6388C313 30.5342 312.105 29.6388 311 29.6388H284.978Z" fill="#E2E2E2"/>
<path d="M95.2523 205C94.1477 205 93.2523 204.105 93.2523 203V187.889C93.2523 187.158 93.6509 186.487 94.2883 186.13C106.245 179.426 119.128 169.494 128.594 158.771C135.272 151.229 140.142 143.827 140.142 136.983C140.142 131.955 136.664 129.022 131.237 129.022C125.958 129.022 120.916 131.894 119.422 140.183C119.218 141.316 118.172 142.137 117.034 141.956L93.8782 138.261C92.826 138.093 92.0853 137.128 92.2434 136.074C95.1555 116.671 109.766 105 130.124 105C151.691 105 167.553 117.849 167.553 136.145C167.553 153.668 153.867 167.701 140.219 177.764C138.63 178.936 139.44 181.536 141.415 181.536H167.083C168.188 181.536 169.083 182.432 169.083 183.536V203C169.083 204.105 168.188 205 167.083 205H95.2523Z" fill="#E2E2E2"/>
<path d="M196.587 109.237C196.659 108.135 197.546 107.235 198.651 107.235H219C220.105 107.235 221 108.13 221 109.235V203C221 204.105 220.105 205 219 205H196.285C195.181 205 194.285 204.105 194.285 203V148.691C194.285 147.251 192.805 146.275 191.443 146.739C187.255 148.166 182.275 149.077 176.389 149.245C175.285 149.277 174.388 148.378 174.388 147.274V130.506C174.388 129.44 175.229 128.568 176.29 128.465C188.49 127.29 195.837 120.778 196.587 109.237Z" fill="#E2E2E2"/>
</svg>
