<svg width="313" height="309" viewBox="0 0 313 309" fill="none" xmlns="http://www.w3.org/2000/svg">
<path d="M25.551 154.5C25.551 83.1031 84.1789 25.2245 156.5 25.2245C169.461 25.2245 181.961 27.0797 193.754 30.5275L204.097 33.5517C205.152 33.8601 206.258 33.2595 206.574 32.2067L212.68 11.8521C212.999 10.7888 212.391 9.66926 211.326 9.35775L201.009 6.34146C186.887 2.21222 171.944 0 156.5 0C70.0674 0 0 69.172 0 154.5C0 239.828 70.0674 309 156.5 309C242.933 309 313 239.828 313 154.5C313 138.499 310.532 123.044 305.942 108.498L302.74 98.3499C302.409 97.3019 301.295 96.717 300.245 97.04L279.673 103.366C278.612 103.693 278.02 104.821 278.354 105.88L281.547 116C285.38 128.145 287.449 141.072 287.449 154.5C287.449 225.897 228.821 283.776 156.5 283.776C84.1789 283.776 25.551 225.897 25.551 154.5Z" fill="#E2E2E2"/>
<path d="M284.978 29.6388C283.873 29.6388 282.978 28.7433 282.978 27.6388V2C282.978 0.895431 282.082 0 280.978 0H259.427C258.322 0 257.427 0.895429 257.427 2V27.6388C257.427 28.7433 256.531 29.6388 255.427 29.6388H229.404C228.3 29.6388 227.404 30.5342 227.404 31.6388V52.8633C227.404 53.9678 228.3 54.8633 229.404 54.8633H255.427C256.531 54.8633 257.427 55.7587 257.427 56.8633V82.502C257.427 83.6066 258.322 84.502 259.427 84.502H280.978C282.082 84.502 282.978 83.6066 282.978 82.502V56.8633C282.978 55.7587 283.873 54.8633 284.978 54.8633H311C312.105 54.8633 313 53.9678 313 52.8633V31.6388C313 30.5342 312.105 29.6388 311 29.6388H284.978Z" fill="#E2E2E2"/>
<path d="M132.057 206C130.595 206 129.627 204.482 130.244 203.156L162.751 133.329C162.852 133.112 162.904 132.876 162.904 132.638V132.638C162.904 131.733 162.171 131 161.266 131H123C121.895 131 121 130.105 121 129V108C121 106.895 121.895 106 123 106H191C192.105 106 193 106.895 193 108V125.182C193 125.439 192.95 125.694 192.854 125.932L160.962 204.75C160.656 205.506 159.923 206 159.108 206H132.057Z" fill="#E2E2E2"/>
</svg>
