<svg width="1920" height="915" viewBox="0 0 1920 915" preserveAspectRatio="none" fill="none" xmlns="http://www.w3.org/2000/svg">
<g clip-path="url(#clip0_1413_4562)">
<path fill-rule="evenodd" clip-rule="evenodd" d="M1920 -106H0V974H1920V-106ZM446 30C444.895 30 444 30.8954 444 32V815C444 816.105 444.895 817 446 817H1474C1475.1 817 1476 816.105 1476 815V32C1476 30.8954 1475.1 30 1474 30H446Z" fill="#1E1E1E"/>
<path d="M264 81.5201C264 80.6217 264.599 79.8336 265.465 79.5931L444 30H445V817H444L265.465 767.407C264.599 767.166 264 766.378 264 765.48V81.5201Z" fill="url(#paint0_linear_1413_4562)"/>
<path d="M1653.77 81.5201C1653.77 80.6217 1653.17 79.8336 1652.31 79.5931L1473.77 30H1472.77V817H1474L1652.31 767.407C1653.17 767.167 1653.77 766.379 1653.77 765.48V81.5201Z" fill="url(#paint1_linear_1413_4562)"/>
<path d="M485.399 882.406C446.86 886.214 407.401 880.356 389.773 862.922C390.107 864.001 390.507 865.069 390.98 866.121C399.454 884.967 435.043 891.248 468.937 887.383C475.719 886.609 481.122 884.812 485.399 882.406Z" fill="url(#paint2_linear_1413_4562)"/>
<path fill-rule="evenodd" clip-rule="evenodd" d="M800.093 837.482L800.255 837.612C791.499 840.672 772.631 846.309 767.208 844.377C762.178 842.584 751.549 844.516 744.323 845.829C741.81 846.286 739.709 846.668 738.398 846.793C733.314 847.276 720.603 845.826 712.13 837.612C705.351 831.04 696.877 830.686 693.488 831.33C700.754 826.841 714.512 833.703 724.865 838.867C728.999 840.929 732.59 842.721 735.008 843.41C741.787 845.343 746.871 840.028 748.566 837.128L752.203 836.715C751.775 836.848 751.597 837.016 750.997 837.08C754.221 836.362 759.413 836.875 766.017 837.528C774 838.317 784.045 839.31 795.171 838.578C796.918 838.463 798.557 838.085 800.093 837.482ZM750.997 837.08C750.4 837.213 749.871 837.388 749.413 837.612C749.887 837.447 750.418 837.268 750.997 837.08Z" fill="url(#paint3_linear_1413_4562)"/>
<path fill-rule="evenodd" clip-rule="evenodd" d="M700.859 817C734.645 824.387 764.321 826.258 769.746 826.021C780.762 825.537 779.914 834.235 772.288 833.269C766.859 832.581 757.003 835.157 751.315 836.982C751.144 836.941 750.793 836.972 750.993 837.086C750.754 836.949 749.464 837.465 749.409 837.618C749.781 837.618 750.601 837.367 750.993 837.086C750.828 837.406 751.207 837.086 751.315 837.032C754.527 836.542 759.627 836.902 766.013 837.534H766.016L766.018 837.534C774 838.323 784.043 839.316 795.167 838.584C805.541 837.901 812.119 827.921 816.005 817H752.008H717.118H700.859Z" fill="url(#paint4_linear_1413_4562)"/>
<path fill-rule="evenodd" clip-rule="evenodd" d="M483.344 867.575C510.46 864.482 515.544 845.025 514.696 835.683C500.009 842.126 465.38 852.595 444.365 842.931C418.097 830.851 412.166 823.119 410.471 816.838C410.099 815.458 409.645 812.751 409.065 809.288C407.002 796.983 403.34 775.14 396.066 769.483C386.745 762.235 366.408 749.188 353.698 759.335C350.943 761.535 348.388 763.848 345.919 766.082L345.912 766.088L345.909 766.09C336.99 774.161 329.204 781.207 317.261 778.181C315.842 777.82 314.356 777.427 312.821 777.021L312.747 777.002C297.803 773.043 278.248 767.863 269.809 780.114C266.958 784.251 264.98 789.157 262.976 794.126L262.973 794.134L262.972 794.135C258.425 805.413 253.746 817.014 238.457 820.703C216.425 826.019 181.683 822.636 174.057 812.489C174.337 812.592 174.623 812.695 174.915 812.799C173.767 812.176 172.615 811.577 171.515 811.039C166.77 808.719 154.285 787.523 148.636 777.214C134.504 749.72 116.296 747.338 105.209 745.888L105.207 745.888C105.138 745.879 105.068 745.87 104.999 745.861C104.856 745.842 104.714 745.824 104.573 745.805C95.2526 745.805 85.0842 748.383 80 751.121C85.0278 750.86 86.1109 751.302 89.1007 752.524L89.1091 752.527C91.6624 753.569 95.6068 755.179 104.573 757.403C120.165 761.268 133.666 780.275 138.468 789.295C139.048 775.739 127.727 767.161 119.705 761.082L119.704 761.081L119.701 761.078C116 758.274 113.003 756.003 112.2 754.02C119.657 741.65 147.507 785.59 160.5 809.106C168.126 823.119 197.783 828.435 209.646 830.368C218.652 830.881 229.81 827.574 239.181 824.797L239.182 824.797L239.185 824.796C247.448 822.347 254.319 820.311 257.099 821.67C261.844 823.989 256.251 830.368 252.862 833.267C263.708 829.401 275.458 812.972 279.978 805.24C292.879 789.227 301.023 788.332 307.452 787.625L307.453 787.625L307.581 787.611C308.285 787.533 308.968 787.457 309.635 787.362C319.884 787.362 318.641 793.078 317.509 798.284V798.286C317.424 798.675 317.34 799.061 317.261 799.442C324.04 793.644 340.649 781.08 352.851 777.214C365.053 773.349 380.531 786.234 386.745 793.16C384.034 774.605 360.759 771.255 349.461 771.899C365.561 759.819 389.287 777.214 397.761 791.711C405.692 798.362 404.633 808.528 403.493 819.468V819.469C402.563 828.399 401.579 837.844 405.387 846.314C413.861 865.159 449.45 871.441 483.344 867.575Z" fill="#545454"/>
<path fill-rule="evenodd" clip-rule="evenodd" d="M441.6 817C436.72 821.932 432.113 822.21 429.115 820.705C426.29 820.705 419.455 812.587 414.71 780.116C409.037 741.299 376.242 740.487 359.307 740.068C359.134 740.063 358.962 740.059 358.793 740.055C358.203 740.04 357.634 740.025 357.089 740.009C345.91 739.673 340.042 749.122 335.23 756.871L335.219 756.888C333.104 760.292 331.194 763.367 329.126 765.136C326.187 767.649 321.658 765.987 315.398 763.69C307.216 760.687 296.077 756.6 281.674 759.337C260.89 763.288 245.204 782.743 235.542 794.727L235.539 794.73C233.384 797.403 231.529 799.704 229.985 801.377C225.595 806.133 224.389 804.276 222.597 801.516L222.596 801.515C220.929 798.946 218.755 795.596 213.038 796.062C203.547 796.835 202.305 801.216 202.869 803.31C204.847 800.088 209.648 795.192 213.038 801.377C217.275 809.108 230.832 814.424 238.459 809.108C244.56 804.856 248.344 806.048 249.474 807.175C231.171 826.89 191.571 818.934 174.059 812.491C181.685 822.638 216.427 826.021 238.459 820.705C253.749 817.017 258.427 805.414 262.974 794.136C264.979 789.164 266.959 784.255 269.811 780.116C278.249 767.865 297.803 773.045 312.747 777.004L312.749 777.005C314.31 777.418 315.82 777.817 317.263 778.183C329.206 781.21 336.992 774.163 345.912 766.09L345.913 766.09L345.919 766.084C348.388 763.85 350.944 761.537 353.7 759.337C366.41 749.19 386.747 762.237 396.068 769.485C403.341 775.14 407.002 796.98 409.065 809.288L409.066 809.29C409.646 812.753 410.1 815.461 410.473 816.84C412.168 823.121 418.099 830.853 444.367 842.933C465.382 852.597 500.011 842.128 514.698 835.685C517.744 828.187 517.332 821.104 513.46 817H490.845C488.776 817.417 486.954 817.393 485.355 817H441.6Z" fill="url(#paint5_linear_1413_4562)"/>
<path d="M1434.6 882.406C1473.14 886.214 1512.6 880.356 1530.23 862.922C1529.89 864.001 1529.49 865.069 1529.02 866.121C1520.55 884.967 1484.96 891.248 1451.06 887.383C1444.28 886.609 1438.88 884.812 1434.6 882.406Z" fill="url(#paint6_linear_1413_4562)"/>
<path fill-rule="evenodd" clip-rule="evenodd" d="M1119.91 837.482L1119.74 837.612C1128.5 840.672 1147.37 846.309 1152.79 844.377C1157.82 842.584 1168.45 844.516 1175.68 845.829C1178.19 846.286 1180.29 846.668 1181.6 846.793C1186.69 847.276 1199.4 845.826 1207.87 837.612C1214.65 831.04 1223.12 830.686 1226.51 831.33C1219.25 826.841 1205.49 833.703 1195.14 838.867C1191 840.929 1187.41 842.721 1184.99 843.41C1178.21 845.343 1173.13 840.028 1171.43 837.128L1167.8 836.715C1168.23 836.848 1168.4 837.016 1169 837.08C1165.78 836.362 1160.59 836.875 1153.98 837.528C1146 838.317 1135.95 839.31 1124.83 838.578C1123.08 838.463 1121.44 838.085 1119.91 837.482ZM1169 837.08C1169.6 837.213 1170.13 837.388 1170.59 837.612C1170.11 837.447 1169.58 837.268 1169 837.08Z" fill="url(#paint7_linear_1413_4562)"/>
<path fill-rule="evenodd" clip-rule="evenodd" d="M1219.14 817C1185.35 824.387 1155.68 826.258 1150.25 826.021C1139.24 825.537 1140.09 834.235 1147.71 833.269C1153.14 832.581 1163 835.157 1168.68 836.982C1168.86 836.941 1169.21 836.972 1169.01 837.086C1169.25 836.949 1170.54 837.465 1170.59 837.618C1170.22 837.618 1169.4 837.367 1169.01 837.086C1169.17 837.406 1168.79 837.086 1168.68 837.032C1165.47 836.542 1160.37 836.902 1153.99 837.534H1153.98L1153.98 837.534C1146 838.323 1135.96 839.316 1124.83 838.584C1114.46 837.901 1107.88 827.921 1103.99 817H1167.99H1202.88H1219.14Z" fill="url(#paint8_linear_1413_4562)"/>
<path fill-rule="evenodd" clip-rule="evenodd" d="M1436.66 867.575C1409.54 864.482 1404.46 845.025 1405.3 835.683C1419.99 842.126 1454.62 852.595 1475.64 842.931C1501.9 830.851 1507.83 823.119 1509.53 816.838C1509.9 815.458 1510.35 812.751 1510.93 809.288C1513 796.983 1516.66 775.14 1523.93 769.483C1533.25 762.235 1553.59 749.188 1566.3 759.335C1569.06 761.535 1571.61 763.848 1574.08 766.082L1574.09 766.088L1574.09 766.09C1583.01 774.161 1590.8 781.207 1602.74 778.181C1604.16 777.82 1605.64 777.427 1607.18 777.021L1607.25 777.002C1622.2 773.043 1641.75 767.863 1650.19 780.114C1653.04 784.251 1655.02 789.157 1657.02 794.126L1657.03 794.134L1657.03 794.135C1661.57 805.413 1666.25 817.014 1681.54 820.703C1703.57 826.019 1738.32 822.636 1745.94 812.489C1745.66 812.592 1745.38 812.695 1745.08 812.799C1746.23 812.176 1747.39 811.577 1748.49 811.039C1753.23 808.719 1765.71 787.523 1771.36 777.214C1785.5 749.72 1803.7 747.338 1814.79 745.888L1814.79 745.888C1814.86 745.879 1814.93 745.87 1815 745.861C1815.14 745.842 1815.29 745.824 1815.43 745.805C1824.75 745.805 1834.92 748.383 1840 751.121C1834.97 750.86 1833.89 751.302 1830.9 752.524L1830.89 752.527C1828.34 753.569 1824.39 755.179 1815.43 757.403C1799.84 761.268 1786.33 780.275 1781.53 789.295C1780.95 775.739 1792.27 767.161 1800.29 761.082L1800.3 761.081L1800.3 761.078C1804 758.274 1807 756.003 1807.8 754.02C1800.34 741.65 1772.49 785.59 1759.5 809.106C1751.87 823.119 1722.22 828.435 1710.35 830.368C1701.35 830.881 1690.19 827.574 1680.82 824.797L1680.82 824.797L1680.82 824.796C1672.55 822.347 1665.68 820.311 1662.9 821.67C1658.16 823.989 1663.75 830.368 1667.14 833.267C1656.29 829.401 1644.54 812.972 1640.02 805.24C1627.12 789.227 1618.98 788.332 1612.55 787.625L1612.55 787.625L1612.42 787.611C1611.72 787.533 1611.03 787.457 1610.37 787.362C1600.12 787.362 1601.36 793.078 1602.49 798.284V798.286C1602.58 798.675 1602.66 799.061 1602.74 799.442C1595.96 793.644 1579.35 781.08 1567.15 777.214C1554.95 773.349 1539.47 786.234 1533.26 793.16C1535.97 774.605 1559.24 771.255 1570.54 771.899C1554.44 759.819 1530.71 777.214 1522.24 791.711C1514.31 798.362 1515.37 808.528 1516.51 819.468V819.469C1517.44 828.399 1518.42 837.844 1514.61 846.314C1506.14 865.159 1470.55 871.441 1436.66 867.575Z" fill="#545454"/>
<path fill-rule="evenodd" clip-rule="evenodd" d="M1478.4 817C1483.28 821.932 1487.89 822.21 1490.89 820.705C1493.71 820.705 1500.55 812.587 1505.29 780.116C1510.96 741.299 1543.76 740.487 1560.69 740.068C1560.87 740.063 1561.04 740.059 1561.21 740.055C1561.8 740.04 1562.37 740.025 1562.91 740.009C1574.09 739.673 1579.96 749.122 1584.77 756.871L1584.78 756.888C1586.9 760.292 1588.81 763.367 1590.87 765.136C1593.81 767.649 1598.34 765.987 1604.6 763.69C1612.78 760.687 1623.92 756.6 1638.33 759.337C1659.11 763.288 1674.8 782.743 1684.46 794.727L1684.46 794.73C1686.62 797.403 1688.47 799.704 1690.01 801.377C1694.4 806.133 1695.61 804.276 1697.4 801.516L1697.4 801.515C1699.07 798.946 1701.25 795.596 1706.96 796.062C1716.45 796.835 1717.69 801.216 1717.13 803.31C1715.15 800.088 1710.35 795.192 1706.96 801.377C1702.73 809.108 1689.17 814.424 1681.54 809.108C1675.44 804.856 1671.66 806.048 1670.53 807.175C1688.83 826.89 1728.43 818.934 1745.94 812.491C1738.31 822.638 1703.57 826.021 1681.54 820.705C1666.25 817.017 1661.57 805.414 1657.03 794.136C1655.02 789.164 1653.04 784.255 1650.19 780.116C1641.75 767.865 1622.2 773.045 1607.25 777.004L1607.25 777.005C1605.69 777.418 1604.18 777.817 1602.74 778.183C1590.79 781.21 1583.01 774.163 1574.09 766.09L1574.09 766.09L1574.08 766.084C1571.61 763.85 1569.06 761.537 1566.3 759.337C1553.59 749.19 1533.25 762.237 1523.93 769.485C1516.66 775.14 1513 796.98 1510.93 809.288L1510.93 809.29C1510.35 812.753 1509.9 815.461 1509.53 816.84C1507.83 823.121 1501.9 830.853 1475.63 842.933C1454.62 852.597 1419.99 842.128 1405.3 835.685C1402.26 828.187 1402.67 821.104 1406.54 817H1429.15C1431.22 817.417 1433.05 817.393 1434.64 817H1478.4Z" fill="url(#paint9_linear_1413_4562)"/>
</g>
<defs>
<linearGradient id="paint0_linear_1413_4562" x1="264" y1="423.5" x2="443.772" y2="423.5" gradientUnits="userSpaceOnUse">
<stop stop-color="#1E1E1E"/>
<stop offset="1" stop-color="#363636"/>
</linearGradient>
<linearGradient id="paint1_linear_1413_4562" x1="1654" y1="423.5" x2="1474.23" y2="423.5" gradientUnits="userSpaceOnUse">
<stop stop-color="#1E1E1E"/>
<stop offset="1" stop-color="#363636"/>
</linearGradient>
<linearGradient id="paint2_linear_1413_4562" x1="28291.1" y1="-2302.9" x2="-22016" y2="-2302.9" gradientUnits="userSpaceOnUse">
<stop stop-color="#545454"/>
<stop offset="0.405" stop-color="#868686"/>
</linearGradient>
<linearGradient id="paint3_linear_1413_4562" x1="135.229" y1="1094.79" x2="587.515" y2="901.403" gradientUnits="userSpaceOnUse">
<stop stop-color="#545454"/>
<stop offset="1" stop-color="#666666"/>
</linearGradient>
<linearGradient id="paint4_linear_1413_4562" x1="1164.83" y1="583.481" x2="-3888.26" y2="583.481" gradientUnits="userSpaceOnUse">
<stop stop-color="#545454"/>
<stop offset="0.405" stop-color="#868686"/>
</linearGradient>
<linearGradient id="paint5_linear_1413_4562" x1="870.587" y1="793.978" x2="80.0011" y2="793.978" gradientUnits="userSpaceOnUse">
<stop stop-color="#545454"/>
<stop offset="0.405" stop-color="#868686"/>
</linearGradient>
<linearGradient id="paint6_linear_1413_4562" x1="-26371.1" y1="-2302.9" x2="23936" y2="-2302.9" gradientUnits="userSpaceOnUse">
<stop stop-color="#545454"/>
<stop offset="0.405" stop-color="#868686"/>
</linearGradient>
<linearGradient id="paint7_linear_1413_4562" x1="1784.77" y1="1094.79" x2="1332.49" y2="901.403" gradientUnits="userSpaceOnUse">
<stop stop-color="#545454"/>
<stop offset="1" stop-color="#666666"/>
</linearGradient>
<linearGradient id="paint8_linear_1413_4562" x1="755.168" y1="583.481" x2="5808.26" y2="583.481" gradientUnits="userSpaceOnUse">
<stop stop-color="#545454"/>
<stop offset="0.405" stop-color="#868686"/>
</linearGradient>
<linearGradient id="paint9_linear_1413_4562" x1="1049.41" y1="793.978" x2="1840" y2="793.978" gradientUnits="userSpaceOnUse">
<stop stop-color="#545454"/>
<stop offset="0.405" stop-color="#868686"/>
</linearGradient>
<clipPath id="clip0_1413_4562">
<rect width="1920" height="915" fill="white"/>
</clipPath>
</defs>
</svg>
