<svg width="44" height="305" viewBox="0 0 44 305" fill="none" xmlns="http://www.w3.org/2000/svg">
<path d="M43.0021 304.571H0.882067L0.882067 294.483C0.882067 291.64 1.22873 289.248 1.92207 287.307C2.58073 285.331 3.72473 283.84 5.35407 282.835C6.9834 281.795 9.20207 281.275 12.0101 281.275C13.7087 281.275 15.2341 281.431 16.5861 281.743C17.9381 282.055 19.0994 282.592 20.0701 283.355C21.0061 284.083 21.7341 285.106 22.2541 286.423L43.0021 280.547L43.0021 288.243L23.7101 293.339V296.875H43.0021V304.571ZM18.8741 296.875V294.483C18.8741 292.992 18.6661 291.814 18.2501 290.947C17.7994 290.046 17.1061 289.404 16.1701 289.023C15.1994 288.642 13.9687 288.451 12.4781 288.451C10.3634 288.451 8.78607 288.85 7.74607 289.647C6.6714 290.41 6.13407 291.883 6.13407 294.067V296.875H18.8741Z" fill="#E2E2E2"/>
<path d="M43.0021 275.422H0.882066L0.882065 257.742H6.29007L6.29007 267.726H18.4061V259.874H23.7621V267.726H37.6981V257.638H43.0021V275.422Z" fill="#E2E2E2"/>
<path d="M43.5741 242.624C43.5741 245.398 42.9847 247.599 41.8061 249.228C40.6274 250.858 38.9634 252.036 36.8141 252.764C34.6301 253.458 32.0647 253.804 29.1181 253.804H14.9741C11.9581 253.804 9.35807 253.458 7.17407 252.764C4.99007 252.071 3.32607 250.858 2.18207 249.124C1.0034 247.356 0.414064 244.93 0.414064 241.844C0.414064 238.967 0.899398 236.679 1.87007 234.98C2.84073 233.282 4.24473 232.068 6.08207 231.34C7.88473 230.578 10.0861 230.196 12.6861 230.196H14.8701V237.528H12.4781C11.1261 237.528 9.96473 237.632 8.99407 237.84C8.0234 238.014 7.2954 238.395 6.81007 238.984C6.29007 239.539 6.03007 240.458 6.03007 241.74C6.03007 243.092 6.3594 244.08 7.01807 244.704C7.67673 245.294 8.5434 245.675 9.61807 245.848C10.6927 245.987 11.8714 246.056 13.1541 246.056H30.7821C32.2381 246.056 33.5034 245.935 34.5781 245.692C35.6527 245.45 36.4847 244.999 37.0741 244.34C37.6287 243.682 37.9061 242.746 37.9061 241.532C37.9061 240.284 37.5941 239.331 36.9701 238.672C36.3461 238.014 35.4794 237.563 34.3701 237.32C33.2607 237.043 31.9434 236.904 30.4181 236.904H26.4661V241.428H21.6301L21.6301 229.988H43.0021V234.928L38.8421 235.5C40.2287 236.055 41.3727 236.904 42.2741 238.048C43.1407 239.158 43.5741 240.683 43.5741 242.624Z" fill="#E2E2E2"/>
<path d="M43.0021 223.925H0.882064L0.882063 216.333H43.0021V223.925Z" fill="#E2E2E2"/>
<path d="M43.5741 199.205C43.5741 201.736 43.0887 203.85 42.1181 205.549C41.1127 207.248 39.6567 208.53 37.7501 209.397C35.8434 210.264 33.5034 210.749 30.7301 210.853L29.4301 204.249C31.0594 204.18 32.4981 203.989 33.7461 203.677C34.9941 203.33 35.9647 202.828 36.6581 202.169C37.3167 201.476 37.6461 200.574 37.6461 199.465C37.6461 198.217 37.2821 197.333 36.5541 196.813C35.7914 196.293 34.8381 196.033 33.6941 196.033C31.8567 196.033 30.3487 196.449 29.1701 197.281C27.9914 198.113 26.8127 199.222 25.6341 200.609L20.9541 205.913C19.6714 207.404 18.2501 208.6 16.6901 209.501C15.0954 210.368 13.1367 210.801 10.8141 210.801C7.48606 210.801 4.92073 209.83 3.11807 207.889C1.3154 205.948 0.414063 203.296 0.414062 199.933C0.414062 197.957 0.726062 196.31 1.35006 194.993C1.9394 193.676 2.7714 192.636 3.84606 191.873C4.92073 191.076 6.1514 190.486 7.53806 190.105C8.89006 189.724 10.3287 189.481 11.8541 189.377L12.9981 195.929C11.6807 195.998 10.5021 196.154 9.46206 196.397C8.42206 196.605 7.6074 197.004 7.01806 197.593C6.42873 198.148 6.13406 198.98 6.13406 200.089C6.13406 201.233 6.5154 202.117 7.27806 202.741C8.00607 203.33 8.92473 203.625 10.0341 203.625C11.4554 203.625 12.6341 203.33 13.5701 202.741C14.4714 202.152 15.4074 201.302 16.3781 200.193L21.0061 194.941C22.4621 193.208 24.1781 191.734 26.1541 190.521C28.0954 189.273 30.4527 188.649 33.2261 188.649C35.2367 188.649 37.0221 189.1 38.5821 190.001C40.1421 190.868 41.3727 192.098 42.2741 193.693C43.1407 195.253 43.5741 197.09 43.5741 199.205Z" fill="#E2E2E2"/>
<path d="M43.0021 179.906H6.55006L6.55006 186.614H0.882062L0.882061 165.606H6.55006V172.21H43.0021V179.906Z" fill="#E2E2E2"/>
<path d="M43.0021 161.774H0.882061L0.88206 144.094H6.29006L6.29006 154.078H18.4061V146.226H23.7621V154.078H37.6981V143.99H43.0021V161.774Z" fill="#E2E2E2"/>
<path d="M43.0021 139.532H0.88206L0.88206 129.444C0.882059 126.601 1.22873 124.209 1.92206 122.268C2.58073 120.292 3.72473 118.801 5.35406 117.796C6.98339 116.756 9.20206 116.236 12.0101 116.236C13.7087 116.236 15.2341 116.392 16.5861 116.704C17.9381 117.016 19.0994 117.553 20.0701 118.316C21.0061 119.044 21.7341 120.066 22.2541 121.384L43.0021 115.508V123.204L23.7101 128.3V131.836H43.0021V139.532ZM18.8741 131.836V129.444C18.8741 127.953 18.6661 126.774 18.2501 125.908C17.7994 125.006 17.1061 124.365 16.1701 123.984C15.1994 123.602 13.9687 123.412 12.4781 123.412C10.3634 123.412 8.78606 123.81 7.74606 124.608C6.67139 125.37 6.13406 126.844 6.13406 129.028V131.836H18.8741Z" fill="#E2E2E2"/>
<path d="M43.0021 93.3188L0.882058 99.2988L0.882058 92.8508L28.1821 89.3668L0.986059 84.9988L0.986059 79.7468L28.1821 75.2748L0.882057 71.8428L0.882057 65.4988L43.0021 71.3748V77.6148L14.7661 82.2948L43.0021 86.9228V93.3188Z" fill="#E2E2E2"/>
<path d="M43.0021 60.5113L0.882057 60.5113L0.882056 52.9193L43.0021 52.9193V60.5113Z" fill="#E2E2E2"/>
<path d="M43.0021 42.187H6.55006V48.895H0.882056L0.882055 27.887H6.55006L6.55006 34.491L43.0021 34.491V42.187Z" fill="#E2E2E2"/>
<path d="M43.0021 23.9513L0.882055 23.9513L0.882055 16.3073H18.5101V7.67525L0.882054 7.67525L0.882054 0.0312518L43.0021 0.03125V7.67525L23.9701 7.67525V16.3073L43.0021 16.3072L43.0021 23.9513Z" fill="#E2E2E2"/>
</svg>
